# Blender 4.2.1 LTS
# www.blender.org
mtllib butterfree.mtl
o Pii_BATAHURII_12
v 0.148875 -2.682086 1.587152
v -0.202256 -2.682086 1.052329
v 0.148869 -2.998427 1.052329
v -0.244670 -2.427682 1.052329
v 0.127668 -2.427682 1.697229
v -0.526142 -2.015447 1.741976
v 0.212570 -1.668394 1.523923
v -0.074861 -1.668394 1.052329
v 0.500000 -1.595042 1.052329
v 1.244670 -2.427682 1.052329
v 1.074861 -1.668394 1.052329
v 1.526142 -2.015447 1.741976
v 0.872332 -2.427682 0.407430
v 0.851125 -2.682086 0.395482
v 0.148875 -2.682086 0.395482
v 0.500000 -2.788323 1.052329
v 0.127668 -2.427682 0.407430
v 0.212570 -1.668394 0.580736
v 0.787430 -1.668394 0.580736
v 0.851125 -2.682086 1.587152
v 0.851131 -2.998427 1.052329
v 1.202256 -2.682086 1.052329
v 0.872332 -2.427682 1.697229
v 0.787430 -1.668394 1.523923
v -0.362150 1.263694 0.816450
v -0.030261 1.369828 0.753398
v 0.127056 0.310010 1.367440
v -0.203089 1.465886 1.066310
v 1.030218 1.369828 0.753398
v 1.362107 1.263694 0.816450
v 0.872901 0.310010 1.367440
v 1.203046 1.465886 1.066310
v 0.812367 -0.656111 2.145589
v 1.446788 -0.148062 1.444502
v 0.768465 -0.148062 1.999118
v 1.593259 -0.656111 1.505172
v 0.892173 -1.164154 1.999118
v 1.446788 -1.164154 1.444502
v -0.446788 -0.148062 1.444502
v 0.187633 -0.656111 2.145589
v 0.231535 -0.148062 1.999118
v -0.593259 -0.656111 1.505172
v 0.107827 -1.164154 1.999118
v -0.446788 -1.164154 1.444502
v 1.328512 -0.053215 0.567226
v 1.046630 0.223854 1.278754
v 0.737858 0.223854 0.505700
v 0.806463 -0.093449 0.139430
v 0.193537 -0.093449 0.139430
v 0.500000 -0.656111 -0.040930
v -0.141280 -0.655835 0.146767
v 0.181999 -1.229551 0.144042
v -0.328512 -1.259007 0.567226
v 0.226734 -1.536070 0.536178
v -0.046630 -1.536070 1.100310
v 0.500000 -1.672203 1.052329
v 0.273576 -1.536070 1.598959
v 0.726424 -1.536070 1.598959
v 0.273576 0.223854 1.598959
v 0.726424 0.223854 1.598959
v 0.500000 0.359981 0.987630
v 0.378006 -1.162605 2.090596
v 0.276399 -1.110080 2.012590
v 0.500000 -1.162494 1.997611
v 0.233170 -0.996531 2.138062
v 0.369604 -1.001675 2.195186
v 0.378006 -0.830458 2.185523
v 0.500000 -0.931055 2.215848
v 0.621994 -0.830458 2.185523
v 0.630396 -1.001675 2.195186
v 0.766830 -0.996531 2.138062
v 0.621994 -1.162605 2.090596
v 0.723601 -1.110080 2.012590
v 1.046630 -1.536070 1.100310
v 0.773266 -1.536070 0.536178
v 1.141329 -0.656111 0.146846
v 0.818001 -1.229551 0.144042
v 0.500000 -1.093227 2.169502
v -0.046630 0.223854 1.278754
v 0.262142 0.223854 0.505700
v 1.328512 -1.259007 0.567226
v 1.593259 -0.656111 0.715767
v -0.328512 -0.053215 0.567226
v -0.593259 -0.656111 0.715767
v 0.784724 -0.963064 2.054606
v 0.723601 -0.833838 2.091539
v 0.500000 -0.781424 2.106518
v 0.276399 -0.833838 2.091539
v 0.215276 -0.963064 2.054606
vn -0.3807 -0.6793 0.6274
vn -0.9088 -0.4085 -0.0851
vn -0.1050 -0.9934 0.0460
vn -0.5398 -0.5874 0.6030
vn -0.9835 -0.1397 -0.1153
vn -0.2320 -0.2996 0.9254
vn -0.3806 -0.6793 0.6274
vn -0.2320 -0.2997 0.9254
vn -0.7954 -0.2913 0.5314
vn -0.9835 -0.1397 -0.1152
vn -0.0607 0.7225 0.6887
vn -0.4073 0.1743 0.8965
vn -0.2321 -0.2997 0.9254
vn -0.5682 0.8015 -0.1863
vn -0.5721 0.7186 0.3954
vn -0.0000 1.0000 -0.0000
vn -0.0607 0.7224 0.6888
vn 0.9612 -0.1546 -0.2286
vn 0.6502 0.7152 -0.2565
vn 0.9867 0.1607 0.0226
vn 0.4912 0.1286 -0.8615
vn 0.6502 0.7152 -0.2566
vn 0.6108 -0.4731 -0.6349
vn 0.4913 0.1285 -0.8615
vn 0.4394 -0.6096 -0.6598
vn -0.2428 -0.5710 -0.7842
vn 0.4913 0.1286 -0.8615
vn -0.0000 -0.9994 0.0347
vn -0.2429 -0.5710 -0.7842
vn 0.4393 -0.6096 -0.6599
vn -0.1051 -0.9934 0.0460
vn -0.0416 -0.6379 -0.7690
vn -0.2428 -0.5711 -0.7842
vn -0.9088 -0.4084 -0.0851
vn -0.5038 0.0982 -0.8582
vn -0.4070 -0.4429 -0.7988
vn -0.4698 0.6725 -0.5719
vn -0.5682 0.8015 -0.1862
vn -0.4698 0.6724 -0.5720
vn -0.5683 0.8015 -0.1863
vn -0.4699 0.6724 -0.5719
vn -0.5038 0.0983 -0.8582
vn 0.2475 0.6776 -0.6925
vn -0.4699 0.6724 -0.5720
vn -0.0001 -0.9994 0.0347
vn -0.2425 -0.7615 0.6011
vn 0.1912 -0.7044 0.6836
vn -0.3807 -0.6792 0.6275
vn 0.1051 -0.9934 0.0460
vn 0.1913 -0.7044 0.6835
vn -0.0000 -0.9994 0.0346
vn 0.1050 -0.9934 0.0460
vn 0.8779 -0.4566 0.1440
vn 0.1912 -0.7044 0.6835
vn 0.3511 -0.1806 0.9188
vn 0.8780 -0.4566 0.1440
vn 0.9612 -0.1547 -0.2286
vn 0.3510 -0.1806 0.9188
vn 0.7954 -0.2913 0.5314
vn 0.9611 -0.1547 -0.2286
vn 0.4073 0.1743 0.8965
vn 0.0725 0.8085 0.5840
vn 0.3511 -0.1806 0.9187
vn 0.6502 0.7151 -0.2566
vn 0.5720 0.7186 0.3954
vn 0.6502 0.7151 -0.2565
vn 0.0725 0.8085 0.5841
vn 0.0506 -0.7907 -0.6101
vn 0.1050 -0.9934 0.0461
vn 0.0724 0.8085 0.5840
vn 0.2475 0.6777 -0.6925
vn -0.9868 0.1607 0.0226
vn -0.0039 -0.5017 -0.8650
vn -0.3484 0.8247 -0.4456
vn -0.8102 -0.0801 0.5806
vn 0.8628 0.3431 0.3712
vn 0.0039 -0.5017 -0.8650
vn 0.3484 0.8247 -0.4456
vn -0.8628 0.3431 0.3712
vn 0.8102 -0.0801 0.5806
vn 0.6955 0.5969 -0.3998
vn 0.4329 0.8987 0.0703
vn 0.7535 0.5293 0.3900
vn 0.6955 0.5969 -0.3999
vn 0.1985 0.8826 -0.4261
vn 0.2707 0.4901 -0.8286
vn 0.1986 0.8826 -0.4261
vn 0.6955 0.5970 -0.3999
vn 0.2707 0.4900 -0.8286
vn -0.2256 0.5441 -0.8081
vn 0.1985 0.8826 -0.4262
vn -0.0000 -0.0000 -1.0000
vn -0.2256 0.5441 -0.8082
vn -0.5792 0.0014 -0.8152
vn -0.2293 -0.5612 -0.7953
vn -0.2293 -0.5612 -0.7952
vn -0.6980 -0.5928 -0.4018
vn -0.5793 0.0013 -0.8151
vn -0.2288 -0.9030 -0.3637
vn -0.2293 -0.5613 -0.7952
vn -0.4356 -0.8999 0.0223
vn -0.6980 -0.5928 -0.4017
vn -0.0000 -1.0000 0.0062
vn -0.4355 -0.8999 0.0224
vn -0.0000 -1.0000 0.0063
vn -0.2514 -0.8852 0.3914
vn 0.2102 -0.8694 0.4471
vn -0.2513 -0.8852 0.3914
vn 0.2103 -0.8694 0.4472
vn -0.3294 -0.5289 0.7822
vn 0.3291 -0.4447 0.8330
vn -0.3294 -0.5288 0.7822
vn 0.3291 -0.4446 0.8330
vn -0.3385 0.0245 0.9406
vn 0.3360 0.1249 0.9335
vn -0.3386 0.0244 0.9406
vn -0.2327 0.4798 0.8459
vn 0.2321 0.5765 0.7834
vn -0.2328 0.4798 0.8459
vn 0.2321 0.5766 0.7834
vn -0.1953 0.8485 0.4918
vn -0.2327 0.4799 0.8459
vn 0.2344 0.8636 0.4464
vn 0.2344 0.8636 0.4463
vn -0.0000 1.0000 0.0040
vn 0.4328 0.8987 0.0703
vn 0.0001 1.0000 0.0040
vn -0.2779 -0.8496 0.4482
vn -0.6709 -0.7404 0.0415
vn -0.0000 -0.9767 -0.2147
vn -0.2780 -0.8496 0.4482
vn -0.7632 -0.1644 0.6248
vn -0.6709 -0.7404 0.0416
vn -0.2402 -0.2532 0.9371
vn -0.7633 -0.1644 0.6248
vn -0.2402 -0.2531 0.9371
vn -0.2782 0.4959 0.8226
vn -0.0001 -0.0272 0.9996
vn -0.2781 0.4959 0.8226
vn -0.2401 -0.2531 0.9372
vn -0.0000 -0.0271 0.9996
vn 0.2781 0.4959 0.8226
vn 0.2401 -0.2531 0.9372
vn 0.0001 -0.0272 0.9996
vn 0.2402 -0.2531 0.9371
vn 0.7632 -0.1645 0.6248
vn 0.2782 0.4959 0.8226
vn 0.2780 -0.8496 0.4482
vn 0.7633 -0.1644 0.6248
vn 0.2402 -0.2532 0.9371
vn 0.6708 -0.7404 0.0416
vn 0.7632 -0.1644 0.6249
vn 0.0001 -0.9767 -0.2146
vn 0.6709 -0.7404 0.0416
vn 0.2779 -0.8496 0.4482
vn 0.7700 -0.5864 0.2515
vn 0.3292 -0.4447 0.8330
vn 0.2103 -0.8694 0.4471
vn 0.4356 -0.8999 0.0224
vn 0.4355 -0.8999 0.0224
vn 0.0001 -1.0000 0.0062
vn 0.1910 -0.8914 -0.4110
vn -0.2287 -0.9030 -0.3637
vn -0.2288 -0.9030 -0.3638
vn 0.1910 -0.8914 -0.4111
vn 0.5793 0.0013 -0.8151
vn 0.2708 0.4900 -0.8286
vn 0.0001 -0.0000 -1.0000
vn 0.2749 -0.5022 -0.8199
vn 0.2748 -0.5022 -0.8199
vn -0.0000 -0.9767 -0.2146
vn 0.2779 -0.8496 0.4483
vn -0.0000 -0.4922 0.8705
vn 0.2401 -0.2532 0.9371
vn 0.0001 -0.4922 0.8705
vn 0.2401 -0.2532 0.9372
vn -0.0000 -0.0272 0.9996
vn -0.4328 0.8987 0.0703
vn -0.1953 0.8486 0.4917
vn -0.2374 0.8972 -0.3723
vn -0.4329 0.8987 0.0703
vn -0.0000 1.0000 0.0039
vn -0.2374 0.8972 -0.3724
vn 0.5793 0.0012 -0.8151
vn 0.6980 -0.5928 -0.4018
vn 0.9674 -0.0000 -0.2532
vn 0.6980 -0.5928 -0.4017
vn 0.6956 0.5969 -0.3999
vn 0.7535 0.5292 0.3900
vn -0.6955 0.5970 -0.3998
vn -0.7535 0.5293 0.3900
vn -0.6955 0.5970 -0.3999
vn -0.9674 -0.0000 -0.2532
vn -0.5793 0.0014 -0.8151
vn -0.9674 0.0001 -0.2532
vn -0.6955 0.5969 -0.3999
vn -0.7700 -0.5864 0.2516
vn -0.7699 -0.5864 0.2515
vn -0.4356 -0.8999 0.0224
vn -0.7700 -0.5864 0.2515
vn 0.1911 -0.8913 -0.4111
vn 0.4356 -0.8999 0.0223
vn 0.1911 -0.8914 -0.4111
vn -0.8681 -0.0303 0.4954
vn -0.7536 0.5292 0.3900
vn 0.2345 0.8636 0.4464
vn 0.2322 0.5765 0.7834
vn -0.2328 0.4799 0.8459
vn -0.2401 -0.2532 0.9372
vn -0.2401 -0.2532 0.9371
vn -0.0001 -0.4922 0.8705
vn 0.9800 -0.0354 0.1959
vn 0.7632 -0.1644 0.6248
vn 0.9800 -0.0353 0.1960
vn 0.6535 0.6067 0.4526
vn 0.0001 0.9426 0.3338
vn 0.2781 0.4959 0.8227
vn -0.0000 0.9426 0.3339
vn -0.0001 0.9426 0.3338
vn -0.6535 0.6067 0.4526
vn -0.2781 0.4959 0.8227
vn -0.6535 0.6068 0.4525
vn -0.9800 -0.0353 0.1960
vn -0.7633 -0.1645 0.6248
vn 0.8681 -0.0303 0.4954
vn 0.7536 0.5292 0.3900
vn -0.2375 0.8972 -0.3723
vn -0.2375 0.8972 -0.3724
vn -0.7632 -0.1644 0.6249
vn -0.9800 -0.0354 0.1959
vn -0.2257 0.5441 -0.8081
vt 0.917727 0.727463
vt 0.916845 0.727463
vt 0.917727 0.680527
vt 0.916738 0.742950
vt 0.917673 0.742950
vt 0.916032 0.751928
vt 0.917886 0.754310
vt 0.917165 0.754310
vt 0.918608 0.755805
vt 0.925630 0.742950
vt 0.925203 0.754310
vt 0.926336 0.751928
vt 0.924694 0.742950
vt 0.924641 0.727463
vt 0.922879 0.727463
vt 0.923760 0.714312
vt 0.922879 0.680527
vt 0.921997 0.727463
vt 0.922825 0.742950
vt 0.921891 0.742950
vt 0.923038 0.754310
vt 0.922316 0.754310
vt 0.923760 0.755805
vt 0.924481 0.754310
vt 0.918608 0.714312
vt 0.919489 0.727463
vt 0.919489 0.680527
vt 0.920371 0.727463
vt 0.919543 0.742950
vt 0.920477 0.742950
vt 0.921184 0.751928
vt 0.919329 0.754310
vt 0.920051 0.754310
vt 0.924641 0.680527
vt 0.925523 0.727463
vt 0.933530 0.930041
vt 0.908838 0.930041
vt 0.921184 0.802469
vt 0.921184 0.914095
vt 0.914612 0.750441
vt 0.913842 0.755089
vt 0.914936 0.748852
vt 0.912997 0.755089
vt 0.913184 0.749763
vt 0.911508 0.749763
vt 0.912346 0.740318
vt 0.910595 0.740334
vt 0.911476 0.730694
vt 0.910080 0.730196
vt 0.911598 0.725548
vt 0.910851 0.725548
vt 0.912346 0.723258
vt 0.911726 0.725548
vt 0.912965 0.725548
vt 0.911274 0.731792
vt 0.913419 0.731792
vt 0.911491 0.740318
vt 0.913200 0.740318
vt 0.911612 0.748852
vt 0.913081 0.748852
vt 0.911726 0.755089
vt 0.912965 0.755089
vt 0.912346 0.757378
vt 0.920588 0.685977
vt 0.920345 0.686974
vt 0.920879 0.685977
vt 0.920243 0.689131
vt 0.920568 0.689037
vt 0.920588 0.692292
vt 0.920879 0.690376
vt 0.921169 0.692292
vt 0.921189 0.689037
vt 0.921514 0.689131
vt 0.921169 0.685977
vt 0.921411 0.686974
vt 0.914936 0.731792
vt 0.913842 0.725548
vt 0.913093 0.725548
vt 0.914100 0.740318
vt 0.913216 0.730694
vt 0.920879 0.687293
vt 0.910851 0.755089
vt 0.911696 0.755089
vt 0.914612 0.730196
vt 0.915337 0.740318
vt 0.910080 0.750441
vt 0.909756 0.748852
vt 0.909356 0.740318
vt 0.909756 0.731792
vt 0.916100 0.751460
vt 0.931013 0.726303
vt 0.926679 0.751453
vt 0.911937 0.726303
vt 0.921557 0.689769
vt 0.921411 0.692222
vt 0.920879 0.693219
vt 0.920345 0.692222
vt 0.920200 0.689769
s 0
usemtl material_atlas_00001_1
f 1/1/1 2/2/2 3/3/3
f 1/1/4 4/4/5 2/2/2
f 5/5/6 4/4/5 1/1/7
f 5/5/8 6/6/9 4/4/10
f 7/7/11 6/6/12 5/5/13
f 7/7/11 8/8/14 6/6/15
f 9/9/16 8/8/14 7/7/17
f 10/10/18 11/11/19 12/12/20
f 10/10/18 13/13/21 11/11/22
f 14/14/23 13/13/24 10/10/18
f 14/14/25 15/15/26 13/13/27
f 16/16/28 15/15/29 14/14/30
f 16/16/28 3/17/31 15/15/32
f 2/18/2 15/15/33 3/17/3
f 2/18/34 17/19/35 15/15/36
f 4/20/5 17/19/35 2/18/34
f 4/20/5 18/21/37 17/19/35
f 8/22/38 18/21/39 4/20/10
f 8/22/40 9/23/16 18/21/41
f 17/19/35 13/13/21 15/15/26
f 17/19/42 19/24/43 13/13/24
f 18/21/37 19/24/43 17/19/35
f 18/21/44 9/23/16 19/24/43
f 16/25/45 1/1/46 3/3/31
f 16/25/28 20/26/47 1/1/48
f 21/27/49 20/26/50 16/25/51
f 21/27/52 22/28/53 20/26/54
f 20/26/47 5/5/8 1/1/1
f 20/26/47 23/29/55 5/5/8
f 22/28/53 23/29/55 20/26/54
f 22/28/56 10/30/57 23/29/58
f 12/31/59 23/29/55 10/30/60
f 12/31/61 24/32/62 23/29/63
f 11/33/64 24/32/62 12/31/65
f 11/33/66 9/9/16 24/32/67
f 14/14/68 21/34/69 16/16/28
f 14/14/25 22/35/53 21/34/52
f 10/10/57 22/35/53 14/14/23
f 7/7/17 24/32/62 9/9/16
f 7/7/11 23/29/55 24/32/70
f 5/5/13 23/29/58 7/7/11
f 11/11/66 19/24/43 9/23/16
f 11/11/19 13/13/27 19/24/71
f 4/20/10 6/31/72 8/22/14
f 25/36/73 26/37/73 27/38/73
f 25/36/74 28/39/74 26/37/74
f 27/38/75 28/39/75 25/36/75
f 27/38/76 26/37/76 28/39/76
f 29/37/77 30/36/77 31/38/77
f 29/37/78 32/39/78 30/36/78
f 31/38/79 32/39/79 29/37/79
f 31/38/80 30/36/80 32/39/80
f 45/40/81 46/41/82 34/42/83
f 45/40/84 47/43/85 46/41/82
f 48/44/86 47/43/87 45/40/88
f 48/44/89 49/45/90 47/43/91
f 50/46/92 49/45/93 48/44/86
f 50/46/92 51/47/94 49/45/90
f 52/48/95 51/47/94 50/46/92
f 52/48/96 53/49/97 51/47/98
f 54/50/99 53/49/97 52/48/100
f 54/50/99 55/51/101 53/49/102
f 56/52/103 55/51/104 54/50/99
f 56/52/105 57/53/106 55/51/104
f 58/54/107 57/53/108 56/52/105
f 58/54/109 43/55/110 57/53/108
f 37/56/111 43/55/112 58/54/109
f 37/56/113 40/57/114 43/55/112
f 33/58/115 40/57/116 37/56/113
f 33/58/115 41/59/117 40/57/114
f 35/60/118 41/59/119 33/58/115
f 35/60/120 59/61/121 41/59/122
f 60/62/123 59/61/121 35/60/120
f 60/62/124 61/63/125 59/61/121
f 46/41/126 61/63/127 60/62/124
f 46/41/82 47/43/85 61/63/125
f 62/64/128 63/65/129 64/66/130
f 62/64/131 65/67/132 63/65/133
f 66/68/134 65/67/135 62/64/131
f 66/68/136 67/69/137 65/67/135
f 68/70/138 67/69/139 66/68/140
f 68/70/141 69/71/142 67/69/139
f 70/72/143 69/71/142 68/70/144
f 70/72/145 71/73/146 69/71/147
f 72/74/148 71/73/149 70/72/150
f 72/74/148 73/75/151 71/73/152
f 64/66/153 73/75/154 72/74/155
f 58/54/109 38/76/156 37/56/157
f 58/54/158 74/77/159 38/76/156
f 56/52/105 74/77/160 58/54/158
f 56/52/161 75/78/162 74/77/160
f 54/50/163 75/78/162 56/52/103
f 54/50/164 52/48/100 75/78/165
f 76/79/166 48/44/167 45/40/84
f 76/79/166 50/46/168 48/44/89
f 77/80/169 50/46/168 76/79/166
f 77/80/170 52/48/95 50/46/92
f 75/78/165 52/48/100 77/80/169
f 72/74/148 62/64/131 64/66/171
f 72/74/172 78/81/173 62/64/128
f 70/72/174 78/81/175 72/74/155
f 70/72/176 68/70/177 78/81/173
f 61/63/125 79/82/178 59/61/179
f 61/63/125 80/83/180 79/82/181
f 47/43/85 80/83/180 61/63/182
f 47/43/91 49/45/90 80/83/183
f 76/79/184 81/84/185 77/80/169
f 76/79/166 82/85/186 81/84/187
f 45/40/188 82/85/186 76/79/166
f 45/40/88 34/42/189 82/85/186
f 83/86/190 39/87/191 79/82/181
f 83/86/192 84/88/193 39/87/191
f 51/47/194 84/88/195 83/86/196
f 51/47/98 53/49/102 84/88/193
f 44/89/197 57/53/106 43/55/110
f 44/89/198 55/51/104 57/53/106
f 53/49/102 55/51/199 44/89/200
f 81/84/185 75/78/201 77/80/169
f 81/84/187 74/77/202 75/78/203
f 38/76/156 74/77/159 81/84/187
f 84/88/193 42/88/204 39/87/205
f 84/88/193 44/89/200 42/88/204
f 53/49/102 44/89/200 84/88/193
f 60/90/206 34/91/83 46/92/82
f 60/90/123 35/93/207 34/91/83
f 39/91/191 59/90/121 79/92/181
f 39/91/191 41/93/208 59/90/121
f 66/68/209 78/81/173 68/70/177
f 66/68/210 62/64/128 78/81/211
f 85/94/212 71/73/213 73/75/154
f 85/94/214 86/95/215 71/73/152
f 86/95/215 69/71/147 71/73/152
f 86/95/215 87/96/216 69/71/217
f 87/96/218 67/69/139 69/71/142
f 87/96/219 88/97/220 67/69/221
f 88/97/220 65/67/135 67/69/137
f 88/97/222 89/98/223 65/67/224
f 36/85/225 82/85/186 34/42/226
f 36/85/225 38/76/156 82/85/186
f 80/83/227 83/86/190 79/82/181
f 80/83/228 49/45/90 83/86/192
f 63/65/133 65/67/229 89/98/230
f 82/85/186 38/76/156 81/84/187
f 51/47/194 83/86/192 49/45/231
o Pii_BATAHURII_eye
v 0.812367 -0.656111 2.145589
v 1.446788 -0.148062 1.444502
v 0.768465 -0.148062 1.999118
v 1.593259 -0.656111 1.505172
v 0.892173 -1.164154 1.999118
v 1.446788 -1.164154 1.444502
v -0.446788 -0.148062 1.444502
v 0.187633 -0.656111 2.145589
v 0.231535 -0.148062 1.999118
v -0.593259 -0.656111 1.505172
v 0.107827 -1.164154 1.999118
v -0.446788 -1.164154 1.444502
vn 0.3361 0.1249 0.9335
vn 0.7536 0.5292 0.3900
vn 0.2321 0.5765 0.7834
vn 0.8682 -0.0303 0.4954
vn 0.7535 0.5292 0.3900
vn 0.3292 -0.4446 0.8330
vn 0.8681 -0.0303 0.4954
vn 0.3360 0.1248 0.9335
vn 0.7700 -0.5864 0.2515
vn -0.7536 0.5292 0.3900
vn -0.3386 0.0245 0.9406
vn -0.2328 0.4799 0.8459
vn -0.7535 0.5293 0.3900
vn -0.8681 -0.0303 0.4954
vn -0.3294 -0.5288 0.7822
vn -0.3386 0.0244 0.9406
vn -0.7700 -0.5864 0.2515
vt 0.074126 0.866646
vt 0.182979 0.926844
vt 0.083115 0.930041
vt 0.189249 0.863006
vt 0.092753 0.807682
vt 0.182979 0.806859
s 0
usemtl material_atlas_00001_1
f 90/99/232 91/100/233 92/101/234
f 90/99/232 93/102/235 91/100/236
f 94/103/237 93/102/238 90/99/239
f 94/103/237 95/104/240 93/102/238
f 96/100/241 97/99/242 98/101/243
f 96/100/244 99/102/245 97/99/242
f 99/102/245 100/103/246 97/99/247
f 99/102/245 101/104/248 100/103/246
o Pii_BATAHURII_F_22
v 0.683110 -1.706044 0.471057
v 2.010583 -2.101432 -1.828190
v 1.625514 -2.843971 -1.161232
v 1.011276 0.146754 -0.097337
v 2.478111 -0.070913 -2.637969
v 2.136025 0.847675 -2.045459
v 0.636709 -1.731195 0.432121
v 1.707170 -3.418923 -1.421969
v 1.253513 -3.719104 -0.636208
v 1.741598 -2.558114 -1.481597
v -0.707127 -3.418923 -1.421938
v 0.363333 -1.731195 0.432152
v -0.253470 -3.719104 -0.636177
v -0.741555 -2.558114 -1.481566
v -1.010540 -2.101432 -1.828159
v 0.316927 -1.706044 0.471088
v -0.625471 -2.843971 -1.161202
v -0.011234 0.146754 -0.097306
v -1.478068 -0.070913 -2.637938
v -1.135982 0.847675 -2.045429
v 0.683110 -1.706044 0.471057
v 2.010583 -2.101432 -1.828190
v 1.625514 -2.843971 -1.161232
v 1.011276 0.146754 -0.097337
v 2.478111 -0.070913 -2.637969
v 2.136025 0.847675 -2.045459
v 0.636709 -1.731195 0.432121
v 1.707170 -3.418923 -1.421969
v 1.253513 -3.719104 -0.636208
v 1.741598 -2.558114 -1.481597
v -0.707127 -3.418923 -1.421938
v 0.363333 -1.731195 0.432152
v -0.253470 -3.719104 -0.636177
v -0.741555 -2.558114 -1.481566
v -1.010540 -2.101432 -1.828159
v 0.316927 -1.706044 0.471088
v -0.625471 -2.843971 -1.161202
v -0.011234 0.146754 -0.097306
v -1.478068 -0.070913 -2.637938
v -1.135982 0.847675 -2.045429
vn -0.8660 -0.0000 -0.5000
vn 0.8660 -0.0000 -0.5000
vn 0.8660 -0.0000 0.5000
vn -0.8660 -0.0000 0.5000
vt 0.591366 0.597720
vt 0.768920 0.572016
vt 0.717409 0.523762
vt 0.635258 0.718166
vt 0.376767 0.718166
vt 0.572954 0.704020
vt 0.510430 0.572016
vt 0.527201 0.763723
vt 0.592265 0.930041
vt 0.532928 0.763786
vt 0.496199 0.811109
vt 0.591698 0.773594
s 0
usemtl material_atlas_00001_1
f 102/105/249 103/106/249 104/107/249
f 102/105/249 105/108/249 103/106/249
f 105/109/249 106/110/249 103/111/249
f 105/109/249 107/112/249 106/110/249
f 108/113/249 109/114/249 110/115/249
f 108/113/249 111/116/249 109/114/249
f 112/114/250 113/113/250 114/115/250
f 112/114/250 115/116/250 113/113/250
f 116/106/250 117/105/250 118/107/250
f 116/106/250 119/108/250 117/105/250
f 120/110/250 119/109/250 116/111/250
f 120/110/250 121/112/250 119/109/250
f 122/105/251 124/107/251 123/106/251
f 122/105/251 123/106/251 125/108/251
f 125/109/251 123/111/251 126/110/251
f 125/109/251 126/110/251 127/112/251
f 128/113/251 130/115/251 129/114/251
f 128/113/251 129/114/251 131/116/251
f 132/114/252 134/115/252 133/113/252
f 132/114/252 133/113/252 135/116/252
f 136/106/252 138/107/252 137/105/252
f 136/106/252 137/105/252 139/108/252
f 140/110/252 136/111/252 139/109/252
f 140/110/252 139/109/252 141/112/252
