# Blender 4.2.1 LTS
# www.blender.org
mtllib metapod.mtl
o Pii_TORANSERU_body2
v 0.214313 -2.319736 -1.641689
v 0.055034 -2.278443 -0.736055
v 0.500000 -2.153143 -0.932867
v 0.109119 -2.659075 -1.001488
v 0.304559 -2.741815 -1.491712
v 0.197884 -3.055899 -0.593424
v 0.500000 -3.007422 -1.108608
v 0.802116 -3.055899 -0.593424
v 0.695441 -2.741815 -1.491712
v 0.890881 -2.659075 -1.001488
v 0.785687 -2.319736 -1.641689
v 0.944966 -2.278443 -0.736055
v 0.990881 -1.956344 -0.416834
v 0.009119 -1.956344 -0.416834
v 1.294259 -2.435064 0.168194
v 1.054171 -2.666788 -0.442199
v 1.154029 -3.034294 0.145861
v 0.500000 -3.156137 0.571520
v -0.154029 -3.034294 0.145861
v -0.054171 -2.666788 -0.442199
v -0.294259 -2.435064 0.168194
v -0.672168 -1.575332 0.010100
v -0.608130 -2.256265 0.859267
v -0.294259 -1.097681 0.058390
v 0.500000 -1.158370 -0.099016
v 0.500000 -0.638075 0.377090
v 1.294259 -1.097681 0.058390
v 1.224440 -0.721729 0.750081
v 0.122175 -1.545325 2.420900
v 0.877825 -1.545325 2.420900
v 0.500000 -0.760330 2.143788
v 0.500000 -2.555361 2.068774
v -0.294259 -2.468869 1.718632
v 0.500000 -2.807558 1.317881
v -0.224440 -2.894025 0.825095
v -0.224440 -0.721729 0.750081
v 0.500000 0.361320 1.328207
v -0.365513 -0.787106 1.635944
v 0.500000 0.158514 1.726396
v 1.365513 -0.787106 1.635944
v 2.103975 -1.317759 0.388717
v 1.672168 -1.575332 0.010100
v 0.500000 -2.429952 -1.901791
v 1.294259 -2.468869 1.718632
v 1.224440 -2.894025 0.825095
v -1.103975 -1.317759 0.388717
v -0.551664 -1.725360 1.760117
v 1.551664 -1.725360 1.760117
v 1.608130 -2.256265 0.859267
vn -0.6188 0.7094 -0.3373
vn -0.8705 0.3340 -0.3616
vn -0.0000 0.9211 -0.3893
vn -0.7175 0.5329 -0.4485
vn -0.9343 -0.2416 -0.2622
vn -0.5439 -0.6694 -0.5060
vn -0.9217 0.0815 -0.3792
vn -0.5439 -0.6694 -0.5061
vn -0.5092 -0.8271 -0.2380
vn -0.9343 -0.2417 -0.2622
vn -0.0000 -0.9321 -0.3622
vn -0.5092 -0.8271 -0.2379
vn -0.0000 -0.9321 -0.3621
vn 0.5092 -0.8271 -0.2379
vn 0.5439 -0.6694 -0.5060
vn 0.9343 -0.2417 -0.2622
vn 0.5092 -0.8271 -0.2380
vn 0.9217 0.0815 -0.3792
vn 0.9343 -0.2416 -0.2622
vn 0.5439 -0.6694 -0.5061
vn 0.7175 0.5329 -0.4485
vn 0.8705 0.3340 -0.3616
vn 0.9343 -0.2415 -0.2622
vn 0.6188 0.7094 -0.3374
vn -0.0000 0.9211 -0.3892
vn 0.4268 0.4238 -0.7989
vn -0.3533 0.5448 -0.7605
vn 0.3533 0.5448 -0.7605
vn 0.9131 -0.2358 -0.3326
vn 0.4275 0.4235 -0.7987
vn 0.9131 -0.2358 -0.3325
vn 0.9242 -0.2060 -0.3217
vn 0.7480 -0.6481 -0.1431
vn 0.5091 -0.8271 -0.2379
vn -0.0000 -0.9891 0.1472
vn 0.7480 -0.6480 -0.1431
vn -0.7480 -0.6480 -0.1431
vn -0.9241 -0.2060 -0.3217
vn -0.5091 -0.8271 -0.2379
vn -0.9131 -0.2358 -0.3326
vn -0.9242 -0.2060 -0.3217
vn -0.7480 -0.6480 -0.1430
vn -0.9131 -0.2358 -0.3325
vn -0.6968 -0.1453 -0.7024
vn -0.8821 -0.4691 -0.0441
vn -0.6967 -0.1454 -0.7024
vn -0.4788 0.2959 -0.8266
vn -0.3021 0.6245 -0.7202
vn -0.4275 0.4234 -0.7987
vn -0.0000 0.5282 -0.8491
vn -0.0000 0.7623 -0.6472
vn -0.0000 0.5283 -0.8491
vn -0.3021 0.6246 -0.7202
vn 0.3021 0.6245 -0.7202
vn 0.5224 0.7826 -0.3387
vn 0.3021 0.6246 -0.7202
vn -0.4158 0.0042 0.9094
vn 0.4158 0.0041 0.9094
vn -0.0000 0.4482 0.8940
vn -0.0000 -0.6908 0.7231
vn 0.4158 0.0042 0.9094
vn -0.5977 -0.6261 0.5008
vn -0.0000 -0.6908 0.7230
vn -0.4158 0.0041 0.9094
vn -0.5978 -0.6260 0.5007
vn -0.0000 -0.9219 0.3875
vn -0.6291 -0.7593 0.1661
vn -0.0001 -0.9219 0.3875
vn -0.5978 -0.6260 0.5008
vn -0.0000 -0.9891 0.1473
vn -0.5223 0.7826 -0.3387
vn -0.5224 0.7826 -0.3387
vn -0.2136 0.9118 -0.3507
vn -0.7234 0.5265 0.4466
vn -0.4917 0.7967 -0.3515
vn -0.5224 0.7825 -0.3387
vn -0.2917 0.5509 0.7820
vn -0.7158 0.6801 -0.1584
vn -0.0000 0.4482 0.8939
vn -0.0000 0.6621 0.7494
vn 0.7234 0.5265 0.4466
vn 0.8400 0.5230 -0.1446
vn 0.6780 0.6943 -0.2414
vn 0.3022 0.6245 -0.7202
vn 0.6968 -0.1454 -0.7024
vn 0.9166 0.3296 -0.2263
vn 0.4275 0.4234 -0.7987
vn 0.4788 0.2959 -0.8266
vn -0.0000 -0.9321 -0.3623
vn -0.0000 -0.6414 -0.7672
vn -0.8945 -0.2385 -0.3782
vn 0.0001 -0.6413 -0.7673
vn -0.4010 0.8737 -0.2754
vn 0.4010 0.8737 -0.2754
vn -0.0000 0.9207 -0.3902
vn 0.5978 -0.6260 0.5007
vn 0.0001 -0.9219 0.3875
vn 0.6291 -0.7593 0.1661
vn 0.5978 -0.6260 0.5008
vn 0.7481 -0.6480 -0.1431
vn 0.6291 -0.7593 0.1662
vn -0.6291 -0.7594 0.1661
vn -0.9132 -0.2358 -0.3325
vn -0.7480 -0.6481 -0.1431
vn -0.6292 -0.7593 0.1662
vn -0.8821 -0.4691 -0.0440
vn -0.6292 -0.7593 0.1661
vn -0.9806 -0.0897 -0.1743
vn -0.8820 -0.4691 -0.0440
vn -0.9166 0.3295 -0.2264
vn -0.6780 0.6943 -0.2414
vn -0.8400 0.5230 -0.1446
vn -0.9166 0.3296 -0.2264
vn -0.8627 -0.1020 0.4953
vn -0.7235 0.5264 0.4466
vn -0.8821 -0.4690 -0.0440
vn -0.9754 0.1587 -0.1532
vn 0.8627 -0.1020 0.4954
vn 0.8821 -0.4691 -0.0440
vn 0.8627 -0.1020 0.4953
vn 0.8705 0.3339 -0.3616
vn 0.9242 -0.2059 -0.3217
vn -0.4275 0.4235 -0.7987
vn -0.8705 0.3339 -0.3616
vn -0.9343 -0.2415 -0.2622
vn 0.7158 0.6801 -0.1584
vn 0.2917 0.5509 0.7819
vn 0.7234 0.5264 0.4466
vn 0.5224 0.7825 -0.3387
vn 0.4917 0.7967 -0.3515
vn 0.0001 0.5283 -0.8491
vn 0.9166 0.3296 -0.2264
vn 0.7235 0.5264 0.4466
vn 0.9754 0.1587 -0.1533
vn 0.8821 -0.4691 -0.0441
vn 0.9806 -0.0897 -0.1743
vn 0.6968 -0.1453 -0.7024
vn 0.9132 -0.2358 -0.3325
vn 0.7480 -0.6481 -0.1430
vn 0.6292 -0.7593 0.1662
vn 0.4009 0.8737 -0.2754
vn -0.4009 0.8737 -0.2754
vn -0.0001 -0.6413 -0.7673
vn 0.8945 -0.2385 -0.3783
vn 0.2136 0.9118 -0.3507
vn 0.6292 -0.7593 0.1661
vt 0.462724 0.138504
vt 0.471502 0.280727
vt 0.439252 0.250785
vt 0.101890 0.138504
vt 0.143452 0.238773
vt 0.110668 0.280727
vt 0.171880 0.167594
vt 0.214250 0.296594
vt 0.278465 0.224564
vt 0.342735 0.296549
vt 0.384995 0.167594
vt 0.413501 0.238773
vt 0.455041 0.138459
vt 0.443534 0.280727
vt 0.456329 0.250785
vt 0.455423 0.346347
vt 0.427835 0.435455
vt 0.407681 0.322635
vt 0.378369 0.403272
vt 0.278509 0.445226
vt 0.178638 0.403272
vt 0.149303 0.322635
vt 0.129183 0.435455
vt 0.449800 0.797892
vt 0.230964 0.741774
vt 0.326097 0.741774
vt 0.278541 0.833168
vt 0.278520 0.627386
vt 0.188496 0.609009
vt 0.278520 0.547377
vt 0.185494 0.492604
vt 0.438817 0.722634
vt 0.171880 0.901163
vt 0.270157 0.827519
vt 0.384995 0.901163
vt 0.101890 0.872073
vt 0.455041 0.872028
vt 0.368543 0.609009
vt 0.371534 0.492604
vt 0.113997 0.548902
vt 0.421109 0.682876
vt 0.443032 0.548902
vt 0.135941 0.682921
vt 0.464353 0.138459
s 0
usemtl material_atlas_00001_1
f 1/1/1 2/2/2 3/3/3
f 1/4/4 4/5/5 2/6/2
f 5/7/6 4/5/5 1/4/7
f 5/7/8 6/8/9 4/5/10
f 7/9/11 6/8/12 5/7/6
f 7/9/13 8/10/14 6/8/12
f 9/11/15 8/10/14 7/9/11
f 9/11/15 10/12/16 8/10/17
f 11/13/18 10/12/19 9/11/20
f 11/13/21 12/14/22 10/12/23
f 3/15/3 12/14/22 11/13/24
f 3/15/25 13/16/26 12/14/22
f 14/16/27 13/16/28 3/15/3
f 15/17/29 12/14/22 13/16/30
f 15/17/31 16/18/32 12/14/22
f 17/19/33 16/18/32 15/17/29
f 17/19/33 8/10/34 16/18/32
f 18/20/35 8/10/14 17/19/36
f 18/20/35 6/8/12 8/10/14
f 19/21/37 6/8/12 18/20/35
f 19/21/37 20/22/38 6/8/39
f 21/23/40 20/22/41 19/21/42
f 21/23/43 2/6/2 20/22/41
f 22/24/44 21/24/43 23/24/45
f 22/24/46 14/24/47 21/24/40
f 24/24/48 14/24/49 22/24/46
f 24/24/48 25/24/50 14/24/49
f 26/24/51 25/24/52 24/24/53
f 26/24/51 27/24/54 25/24/52
f 28/24/55 27/24/56 26/24/51
f 29/25/57 30/26/58 31/27/59
f 29/25/57 32/28/60 30/26/61
f 33/29/62 32/28/63 29/25/64
f 33/29/65 34/30/66 32/28/63
f 35/31/67 34/30/68 33/29/69
f 35/31/67 18/20/70 34/30/66
f 19/21/37 18/20/35 35/31/67
f 36/24/71 26/24/51 24/24/53
f 36/24/72 37/24/73 26/24/51
f 38/24/74 37/24/75 36/24/76
f 38/24/74 39/24/77 37/24/78
f 31/24/79 39/24/80 38/24/74
f 31/24/79 40/24/81 39/24/80
f 41/32/82 28/32/55 40/32/81
f 41/32/83 27/32/84 28/32/55
f 42/32/85 27/32/54 41/32/86
f 42/32/85 13/32/87 27/32/84
f 15/32/29 13/32/88 42/32/85
f 5/7/8 9/11/20 7/9/89
f 5/33/6 43/34/90 9/35/15
f 1/36/91 43/34/92 5/33/6
f 1/36/93 11/37/94 43/34/95
f 34/30/66 44/38/96 32/28/63
f 34/30/97 45/39/98 44/38/99
f 18/20/70 45/39/98 34/30/66
f 18/20/70 17/19/100 45/39/101
f 35/31/102 21/23/103 19/21/104
f 35/31/105 23/40/45 21/23/43
f 33/29/69 23/40/106 35/31/107
f 46/32/108 22/32/46 23/32/109
f 46/32/110 24/32/48 22/32/46
f 36/32/72 24/32/53 46/32/111
f 46/32/112 38/32/74 36/32/76
f 46/32/113 47/32/114 38/32/115
f 23/32/116 47/32/114 46/32/117
f 44/38/99 30/26/58 32/28/63
f 44/38/99 48/41/118 30/26/58
f 49/42/119 48/41/120 44/38/99
f 10/12/16 16/18/32 8/10/17
f 10/12/23 12/14/121 16/18/122
f 2/14/2 14/16/123 3/15/3
f 2/14/2 21/17/40 14/16/49
f 20/22/41 4/5/10 6/8/9
f 20/22/41 2/6/124 4/5/125
f 47/43/114 33/29/65 29/25/64
f 47/43/114 23/40/106 33/29/65
f 40/24/81 37/24/126 39/24/127
f 40/24/128 28/24/129 37/24/130
f 13/24/87 25/24/131 27/24/54
f 13/24/87 14/24/49 25/24/52
f 48/32/120 41/32/132 40/32/133
f 48/32/120 49/32/119 41/32/134
f 49/32/135 42/32/85 41/32/136
f 49/32/135 15/32/31 42/32/137
f 15/17/138 45/39/101 17/19/139
f 15/17/31 49/42/135 45/39/140
f 11/44/141 1/13/142 3/15/3
f 43/34/143 11/37/144 9/35/20
f 26/24/51 37/24/145 28/24/55
f 49/42/119 44/38/96 45/39/146
o Pii_TORANSERU_eye
v 0.122175 -1.545325 2.420900
v 0.877825 -1.545325 2.420900
v 0.500000 -0.760330 2.143788
v -0.365513 -0.787106 1.635944
v 1.365513 -0.787106 1.635944
v -0.551664 -1.725360 1.760117
v 1.551664 -1.725360 1.760117
vn 0.4158 0.0041 0.9094
vn 0.7234 0.5264 0.4467
vn -0.0000 0.4482 0.8939
vn 0.4158 0.0042 0.9094
vn 0.8627 -0.1020 0.4953
vn 0.7235 0.5264 0.4466
vn -0.4159 0.0041 0.9094
vn -0.7234 0.5265 0.4467
vn -0.8627 -0.1020 0.4954
vn -0.4158 0.0041 0.9094
vn -0.7234 0.5264 0.4467
vt 0.670007 0.776863
vt 0.825540 0.848115
vt 0.696759 0.901163
vt 0.780647 0.706729
s 0
usemtl material_atlas_00001_1
f 51/45/147 54/46/148 52/47/149
f 51/45/150 56/48/151 54/46/152
f 50/45/153 53/46/154 55/48/155
f 50/45/156 52/47/149 53/46/157
