# Blender 4.2.1 LTS
# www.blender.org
mtllib mrmime_s.mtl
o Pii_BARIYAADO_body2
v 1.665001 -2.125134 1.630240
v 0.901644 -2.120246 1.630654
v 1.002572 -2.301643 1.630654
v 1.075030 -2.001691 1.630654
v 0.993357 -1.593356 1.630654
v 1.665001 -2.125134 1.477275
v 1.432047 -1.376282 1.630654
v 1.731080 -1.487496 1.630654
v -0.677811 -2.125134 1.630240
v -0.444857 -1.376282 1.630654
v -0.743890 -1.487496 1.630654
v -0.006167 -1.593356 1.630654
v -0.087840 -2.001691 1.630654
v -0.677811 -2.125134 1.477275
v -0.015382 -2.301643 1.630654
v 0.085546 -2.120246 1.630654
v 0.120004 -2.606870 1.215960
v -0.253606 -2.606870 0.646891
v 0.119999 -2.983150 0.646891
v -0.298736 -2.336187 0.646891
v 0.097437 -2.336187 1.333087
v -0.598231 -1.937230 1.380702
v 0.202111 -1.567885 1.125171
v -0.089397 -1.567885 0.646891
v 0.493614 -1.489910 0.646891
v 1.285964 -2.336187 0.646891
v 1.076625 -1.567885 0.646891
v 1.585460 -1.937230 1.380702
v 0.889792 -2.336187 -0.039304
v 0.867224 -2.606870 -0.052018
v 0.120004 -2.606870 -0.052018
v 0.493614 -2.719917 0.646891
v 0.097441 -2.336187 -0.039304
v 0.202111 -1.567885 0.168612
v 0.785117 -1.567885 0.168612
v 0.867224 -2.606870 1.215960
v 0.867229 -2.983150 0.646891
v 1.240834 -2.606870 0.646891
v 0.889787 -2.336187 1.333087
v 0.785117 -1.567885 1.125171
vn 0.0003 -0.0003 1.0000
vn 0.0005 -0.0002 1.0000
vn 0.0005 0.0003 1.0000
vn 0.0003 -0.0002 1.0000
vn 0.0006 -0.0003 1.0000
vn 0.0005 -0.0003 1.0000
vn 0.0005 -0.0001 1.0000
vn 0.0004 -0.0003 1.0000
vn 0.0712 0.0841 -0.9939
vn -0.0012 0.2003 -0.9797
vn 0.7406 0.0836 -0.6667
vn -0.1322 0.1044 -0.9857
vn -0.1756 0.0616 -0.9825
vn -0.0013 0.2003 -0.9797
vn -0.2279 0.1127 -0.9672
vn -0.1757 0.0615 -0.9825
vn -0.1958 0.0842 -0.9770
vn -0.2278 0.1128 -0.9671
vn -0.0803 -0.0933 -0.9924
vn 0.0421 -0.7405 -0.6708
vn 0.7604 -0.6494 -0.0000
vn 0.0420 -0.7404 -0.6708
vn 0.5681 -0.6342 -0.5244
vn 0.0001 -0.0005 1.0000
vn 0.0004 -0.0002 1.0000
vn -0.0002 -0.0006 1.0000
vn 0.0002 -0.0005 1.0000
vn 0.7202 -0.4553 -0.5235
vn 0.7406 0.0836 -0.6668
vn -0.0004 -0.0002 1.0000
vn -0.0001 -0.0005 1.0000
vn 0.0002 -0.0006 1.0000
vn -0.0002 -0.0005 1.0000
vn -0.0006 -0.0003 1.0000
vn -0.0005 -0.0001 1.0000
vn -0.0004 -0.0003 1.0000
vn -0.0712 0.0841 -0.9939
vn -0.7406 0.0836 -0.6667
vn 0.0012 0.2003 -0.9797
vn -0.7202 -0.4554 -0.5234
vn -0.7604 -0.6494 -0.0000
vn -0.7406 0.0837 -0.6668
vn -0.0420 -0.7404 -0.6708
vn -0.5681 -0.6343 -0.5244
vn 0.0803 -0.0933 -0.9924
vn 0.1958 0.0842 -0.9770
vn -0.0420 -0.7405 -0.6707
vn 0.1322 0.1044 -0.9857
vn 0.2278 0.1128 -0.9671
vn 0.1757 0.0615 -0.9825
vn 0.2279 0.1127 -0.9672
vn -0.0005 -0.0002 1.0000
vn -0.0003 -0.0003 1.0000
vn -0.0005 0.0003 1.0000
vn -0.0005 -0.0003 1.0000
vn -0.0003 -0.0002 1.0000
vn 0.1756 0.0616 -0.9825
vn 0.0013 0.2003 -0.9797
vn -0.3800 -0.6663 0.6416
vn -0.9185 -0.3865 -0.0841
vn -0.3578 -0.9017 0.2429
vn -0.5464 -0.5770 0.6071
vn -0.9850 -0.1249 -0.1194
vn -0.9184 -0.3865 -0.0841
vn -0.2268 -0.2935 0.9287
vn -0.5464 -0.5769 0.6071
vn -0.3145 -0.4008 0.8605
vn -0.8979 -0.4175 -0.1394
vn -0.9850 -0.1249 -0.1193
vn -0.0579 0.7356 0.6749
vn -0.0941 0.6962 0.7116
vn -0.1469 -0.1341 0.9800
vn -0.5564 0.8100 -0.1853
vn -0.5465 0.7474 0.3777
vn -0.0000 1.0000 -0.0000
vn -0.0579 0.7356 0.6750
vn 0.9611 -0.1454 -0.2349
vn 0.6357 0.7292 -0.2532
vn 0.9842 0.1767 0.0061
vn 0.9611 -0.1454 -0.2350
vn 0.4890 0.1515 -0.8590
vn 0.6173 -0.4611 -0.6374
vn 0.4384 -0.5945 -0.6741
vn -0.2396 -0.5539 -0.7974
vn 0.4890 0.1514 -0.8590
vn -0.0000 -0.9993 0.0368
vn -0.2396 -0.5538 -0.7974
vn 0.4383 -0.5944 -0.6742
vn 0.1702 -0.9769 -0.1296
vn -0.0367 -0.6190 -0.7845
vn -0.2395 -0.5539 -0.7974
vn -0.3520 -0.9237 -0.1514
vn -0.5034 0.1213 -0.8555
vn -0.4149 -0.4308 -0.8014
vn -0.5034 0.1212 -0.8555
vn -0.4592 0.6897 -0.5598
vn -0.4592 0.6897 -0.5599
vn -0.9850 -0.1248 -0.1193
vn 0.2427 0.6948 -0.6770
vn -0.4593 0.6897 -0.5598
vn 0.2426 0.6948 -0.6770
vn -0.0000 1.0000 -0.0001
vn -0.0001 -0.9993 0.0368
vn -0.0402 -0.8052 0.5917
vn 0.1777 -0.9580 0.2252
vn 0.1889 -0.6917 0.6971
vn -0.3799 -0.6663 0.6417
vn -0.1777 -0.9580 0.2252
vn 0.1889 -0.6917 0.6970
vn 0.3577 -0.9017 0.2429
vn 0.8886 -0.4355 0.1438
vn 0.1888 -0.6917 0.6970
vn -0.3799 -0.6664 0.6416
vn 0.3486 -0.1674 0.9222
vn 0.1888 -0.6918 0.6970
vn 0.8887 -0.4354 0.1438
vn 0.8979 -0.4175 -0.1394
vn 0.4429 -0.2410 0.8635
vn 0.9610 -0.1455 -0.2350
vn 0.0941 0.6962 0.7116
vn 0.0692 0.8162 0.5736
vn 0.2896 -0.0160 0.9570
vn 0.5465 0.7474 0.3778
vn 0.6357 0.7292 -0.2533
vn 0.0450 -0.7739 -0.6317
vn -0.1702 -0.9769 -0.1295
vn 0.4383 -0.5945 -0.6741
vn 0.8886 -0.4354 0.1439
vn 0.3520 -0.9237 -0.1513
vn 0.8886 -0.4355 0.1439
vn 0.6174 -0.4611 -0.6374
vn -0.0000 1.0000 0.0001
vn 0.0692 0.8163 0.5735
vn -0.2269 -0.2935 0.9287
vn 0.6358 0.7292 -0.2532
vn 0.2426 0.6949 -0.6770
vn -0.9843 0.1767 0.0061
vn -0.5563 0.8100 -0.1853
vt 0.370921 0.708289
vt 0.297744 0.751625
vt 0.296418 0.725930
vt 0.321653 0.755013
vt 0.338208 0.799346
vt 0.398944 0.710819
vt 0.395144 0.722697
vt 0.400462 0.716189
vt 0.387981 0.719253
vt 0.389307 0.712773
vt 0.386491 0.710889
vt 0.388131 0.708022
vt 0.391658 0.799599
vt 0.408677 0.770671
vt 0.258374 0.822061
vt 0.220070 0.822061
vt 0.258374 0.802186
vt 0.215450 0.853463
vt 0.256078 0.853463
vt 0.184719 0.895267
vt 0.265346 0.928159
vt 0.233960 0.928159
vt 0.296705 0.935103
vt 0.132801 0.853463
vt 0.114291 0.928159
vt 0.163531 0.895267
vt 0.092173 0.853463
vt 0.089877 0.822061
vt 0.559008 0.822061
vt 0.482346 0.822061
vt 0.561305 0.853463
vt 0.520677 0.811997
vt 0.482346 0.802186
vt 0.444042 0.822061
vt 0.480050 0.853463
vt 0.439422 0.853463
vt 0.489318 0.928159
vt 0.457931 0.928159
vt 0.520677 0.935103
vt 0.552036 0.928159
vt 0.296705 0.811997
vt 0.335036 0.822061
vt 0.335036 0.802186
vt 0.373340 0.822061
vt 0.337333 0.853463
vt 0.377960 0.853463
vt 0.408691 0.895267
vt 0.328065 0.928159
vt 0.359451 0.928159
vt 0.559008 0.802186
vt 0.128180 0.822061
vt 0.089877 0.802186
vt 0.583423 0.928159
vt 0.082905 0.928159
s 0
usemtl material_atlas_00001_1
f 1/1/1 2/2/2 3/3/3
f 1/1/4 4/4/5 2/2/6
f 5/5/7 4/4/5 1/1/8
f 6/6/9 7/7/10 8/8/11
f 6/6/12 5/9/13 7/7/14
f 4/10/15 5/9/16 6/6/12
f 6/6/12 2/11/17 4/10/18
f 6/6/19 3/12/20 2/11/17
f 1/6/21 3/12/22 6/6/23
f 7/13/24 1/1/25 8/14/26
f 7/13/27 5/5/25 1/1/27
f 6/6/28 8/8/29 1/6/21
f 9/1/30 10/13/31 11/14/32
f 9/1/33 12/5/30 10/13/33
f 13/4/34 12/5/35 9/1/36
f 14/6/37 11/8/38 10/7/39
f 14/6/40 9/6/41 11/8/42
f 15/12/43 9/6/41 14/6/44
f 14/6/45 16/11/46 15/12/47
f 14/6/48 13/10/49 16/11/46
f 12/9/50 13/10/51 14/6/48
f 16/2/52 9/1/53 15/3/54
f 16/2/55 13/4/34 9/1/56
f 12/9/57 14/6/48 10/7/58
f 17/15/59 18/16/60 19/17/61
f 17/15/62 20/18/63 18/16/64
f 21/19/65 20/18/63 17/15/66
f 21/19/67 22/20/68 20/18/69
f 23/21/70 22/20/71 21/19/72
f 23/21/70 24/22/73 22/20/74
f 25/23/75 24/22/73 23/21/76
f 26/24/77 27/25/78 28/26/79
f 26/24/80 29/27/81 27/25/78
f 30/28/82 29/27/81 26/24/80
f 30/29/83 31/30/84 29/31/85
f 32/32/86 31/30/87 30/29/88
f 32/32/86 19/33/89 31/30/90
f 18/34/64 31/30/91 19/33/92
f 18/34/60 33/35/93 31/30/94
f 20/36/69 33/35/95 18/34/64
f 20/36/63 34/37/96 33/35/95
f 24/38/73 34/37/97 20/36/98
f 24/38/73 25/39/75 34/37/97
f 33/35/95 29/31/81 31/30/84
f 33/35/93 35/40/99 29/31/85
f 34/37/100 35/40/101 33/35/95
f 34/37/97 25/39/102 35/40/99
f 32/41/103 17/15/104 19/17/105
f 32/41/86 36/42/106 17/15/107
f 37/43/108 36/42/109 32/41/86
f 37/43/110 38/44/111 36/42/109
f 36/42/112 21/19/65 17/15/113
f 36/42/109 39/45/114 21/19/65
f 38/44/111 39/45/114 36/42/115
f 38/44/116 26/46/80 39/45/114
f 28/47/117 39/45/118 26/46/119
f 28/47/120 40/48/121 39/45/122
f 27/49/78 40/48/121 28/47/123
f 27/49/124 25/23/75 40/48/121
f 30/29/125 37/50/126 32/32/86
f 30/28/127 38/51/128 37/52/129
f 26/24/80 38/51/130 30/28/131
f 23/21/70 40/48/121 25/23/132
f 23/21/70 39/45/114 40/48/133
f 21/19/134 39/45/114 23/21/70
f 27/53/78 35/40/99 25/39/75
f 27/25/135 29/27/81 35/54/136
f 20/36/69 22/47/137 24/38/138
o Pii_BARIYAADO_eye
v 0.493614 -0.798226 1.653269
v 0.921965 -0.711240 1.595744
v 1.169685 -0.214925 1.281544
v -0.182457 -0.214925 1.281544
v 0.065263 -0.711240 1.595744
v 0.493614 -0.214925 1.553393
vn -0.3803 0.1644 0.9101
vn -0.0000 0.4281 0.9037
vn -0.6689 0.4827 0.5653
vn -0.3803 0.1644 0.9102
vn -0.0000 -0.0435 0.9991
vn 0.3803 0.1643 0.9102
vn 0.3803 0.1644 0.9101
vn 0.6689 0.4827 0.5653
vt 0.266809 0.474089
vt 0.173011 0.570977
vt 0.319056 0.570977
vt 0.173477 0.447559
s 0
usemtl material_atlas_00001_1
f 45/55/139 46/56/140 44/57/141
f 45/55/142 41/58/143 46/56/140
f 42/55/144 46/56/140 41/58/143
f 42/55/145 43/57/146 46/56/140
o Pii_BARIYAADO_face2
v -0.107133 -0.214925 -0.109535
v -0.404467 -0.214925 0.601385
v -0.058399 0.194529 0.601385
v -0.543400 -0.698226 0.601385
v -0.196237 -0.656509 -0.172877
v -0.150031 -1.098088 -0.123339
v 0.493614 -0.999911 -0.362909
v 0.493614 -1.431770 -0.022039
v 1.137259 -1.098088 -0.123339
v 1.045627 -1.451886 0.601385
v 1.444442 -1.098088 0.601385
v 0.493614 -1.184393 1.519230
v 0.493614 -0.798226 1.653269
v 0.079248 -0.994975 1.591602
v 0.907980 -0.994975 1.591602
v 1.217966 -1.162735 1.296315
v 0.911450 -0.826882 1.605859
v 1.274278 -0.772055 1.312471
v 0.921965 -0.711240 1.595744
v 1.169685 -0.214925 1.281544
v 1.530628 -0.698226 0.601385
v 1.183465 -0.656509 -0.172877
v 0.493614 -0.333960 -0.323215
v -0.182457 -0.214925 1.281544
v 0.493614 0.222309 1.137247
v 0.493614 0.284652 0.601385
v 1.045627 0.194529 0.601385
v 0.493614 -1.399744 1.282144
v 0.493614 -1.581389 0.601385
v -0.058399 -1.451886 0.601385
v -0.457214 -1.098088 0.601385
v 0.075778 -0.826882 1.605859
v 0.065263 -0.711240 1.595744
v -0.230738 -1.162735 1.296315
v 0.493614 0.118015 0.018302
v 1.094361 -0.214925 -0.109535
v 1.391695 -0.214925 0.601385
v -0.287050 -0.772055 1.312471
v 0.493614 -0.214925 1.553393
v -0.303163 0.138788 0.883696
v -0.992629 0.215221 0.646891
v -0.425664 -0.070023 0.646891
v -0.932799 0.370424 0.766760
v -0.177801 0.320538 0.646891
v -0.902939 0.540730 0.726494
v -0.303163 0.138788 0.410086
v -0.932799 0.370424 0.599528
v 1.412892 -0.070023 0.646891
v 1.979857 0.215221 0.646891
v 1.290391 0.138788 0.883696
v 1.920027 0.370424 0.599528
v 1.290391 0.138788 0.410086
v 1.890167 0.540730 0.726494
v 1.165030 0.320538 0.646891
v 1.920027 0.370424 0.766760
v -1.228382 0.082600 0.512676
v 2.215610 0.082600 0.512676
vn -0.6188 0.5050 -0.6017
vn -0.8803 0.4731 -0.0366
vn -0.4728 0.8799 -0.0480
vn -0.6188 0.5050 -0.6018
vn -0.9985 0.0359 -0.0406
vn -0.8803 0.4730 -0.0366
vn -0.5883 0.0460 -0.8073
vn -0.9985 0.0358 -0.0406
vn -0.6317 -0.5004 -0.5921
vn -0.0000 -0.2495 -0.9684
vn -0.6317 -0.5004 -0.5920
vn -0.0001 -0.8699 -0.4933
vn -0.6317 -0.5005 -0.5921
vn 0.6317 -0.5005 -0.5921
vn -0.0000 -0.8698 -0.4933
vn 0.6317 -0.5005 -0.5920
vn 0.4269 -0.9038 -0.0288
vn -0.0000 -0.8699 -0.4933
vn 0.8588 -0.5087 -0.0608
vn 0.4270 -0.9038 -0.0288
vn -0.0000 -0.6209 0.7839
vn -0.0000 -0.0436 0.9991
vn -0.2661 -0.3323 0.9048
vn 0.2661 -0.3323 0.9048
vn 0.6514 -0.5208 0.5517
vn 0.2661 -0.3324 0.9048
vn 0.6515 -0.5207 0.5517
vn 0.4503 -0.0416 0.8919
vn 0.2662 -0.3323 0.9048
vn 0.7839 0.0193 0.6206
vn 0.4503 -0.0417 0.8919
vn 0.6515 -0.5208 0.5517
vn 0.3804 0.1643 0.9101
vn 0.6689 0.4827 0.5653
vn 0.3803 0.1644 0.9101
vn 0.7839 0.0194 0.6206
vn 0.9985 0.0358 -0.0406
vn 0.8588 -0.5086 -0.0608
vn 0.6317 -0.5004 -0.5921
vn 0.5883 0.0460 -0.8073
vn -0.0000 0.2998 -0.9540
vn 0.5883 0.0461 -0.8073
vn -0.0000 0.2999 -0.9540
vn -0.6689 0.4827 0.5653
vn -0.8803 0.4730 -0.0365
vn -0.9985 0.0359 -0.0405
vn -0.4728 0.8799 -0.0481
vn -0.8803 0.4731 -0.0365
vn -0.0000 0.8957 0.4446
vn -0.4727 0.8799 -0.0480
vn -0.6689 0.4828 0.5653
vn -0.0000 0.9967 -0.0812
vn 0.4727 0.8799 -0.0480
vn 0.4270 -0.9038 -0.0287
vn -0.0000 -0.9045 0.4265
vn -0.0000 -0.9045 0.4264
vn 0.0001 -0.9999 0.0127
vn 0.4269 -0.9038 -0.0287
vn -0.4269 -0.9038 -0.0287
vn -0.0000 -0.9999 0.0127
vn -0.8588 -0.5086 -0.0608
vn -0.4270 -0.9038 -0.0288
vn -0.8588 -0.5087 -0.0608
vn -0.4269 -0.9038 -0.0288
vn -0.6317 -0.5005 -0.5920
vn -0.0000 -0.8699 -0.4932
vn -0.0000 -0.9999 0.0126
vn -0.4503 -0.0416 0.8919
vn -0.0000 -0.0435 0.9991
vn -0.3802 0.1644 0.9102
vn -0.4502 -0.0417 0.8919
vn -0.6514 -0.5208 0.5518
vn -0.2662 -0.3323 0.9048
vn -0.6514 -0.5208 0.5517
vn -0.2662 -0.3324 0.9048
vn -0.0000 0.8434 -0.5373
vn -0.6188 0.5049 -0.6018
vn 0.6188 0.5050 -0.6017
vn 0.4728 0.8799 -0.0480
vn 0.8803 0.4731 -0.0366
vn 0.6689 0.4828 0.5653
vn 0.8803 0.4731 -0.0365
vn 0.4728 0.8799 -0.0481
vn 0.9985 0.0359 -0.0405
vn 0.8803 0.4730 -0.0365
vn -0.6515 -0.5207 0.5517
vn -0.4270 -0.9038 -0.0287
vn -0.7839 0.0194 0.6206
vn -0.3803 0.1643 0.9101
vn -0.7839 0.0193 0.6206
vn -0.6515 -0.5208 0.5517
vn -0.4503 -0.0417 0.8919
vn -0.9985 0.0358 -0.0405
vn -0.6515 -0.5208 0.5518
vn -0.7840 0.0194 0.6205
vn 0.6188 0.5049 -0.6017
vn 0.9985 0.0359 -0.0406
vn 0.8803 0.4730 -0.0366
vn -0.0000 0.4282 0.9037
vn -0.0000 0.8957 0.4447
vn -0.6515 -0.5207 0.5518
vn 0.4502 -0.0417 0.8919
vn 0.3803 0.1643 0.9102
vn 0.7839 0.0194 0.6205
vn 0.7840 0.0194 0.6205
vn 0.6515 -0.5207 0.5518
vn -0.7840 0.0193 0.6205
vn -0.3803 0.1644 0.9101
vn -0.0000 0.9967 -0.0813
vn 0.4158 -0.5052 0.7562
vn -0.1164 -0.9512 0.2857
vn 0.0016 -0.8961 -0.4438
vn -0.2337 0.0382 0.9716
vn -0.1164 -0.9512 0.2856
vn 0.6597 0.5687 0.4913
vn -0.2336 0.0381 0.9716
vn 0.6597 0.5688 0.4913
vn -0.3188 0.9184 -0.2343
vn -0.2336 0.0382 0.9716
vn 0.5394 -0.1128 -0.8345
vn -0.3188 0.9184 -0.2344
vn 0.6596 0.5687 0.4913
vn 0.5395 -0.1127 -0.8344
vn -0.0824 -0.0127 -0.9965
vn -0.0824 -0.0126 -0.9965
vn 0.5393 -0.1128 -0.8345
vn -0.1165 -0.9512 0.2856
vn -0.0016 -0.8961 -0.4438
vn 0.1164 -0.9512 0.2857
vn -0.4158 -0.5052 0.7562
vn -0.0015 -0.8961 -0.4438
vn 0.0824 -0.0127 -0.9965
vn 0.1164 -0.9512 0.2856
vn -0.5394 -0.1128 -0.8345
vn 0.0824 -0.0126 -0.9965
vn -0.5394 -0.1128 -0.8344
vn 0.3188 0.9184 -0.2344
vn -0.6597 0.5687 0.4913
vn -0.5393 -0.1128 -0.8345
vn -0.6596 0.5688 0.4913
vn 0.2337 0.0382 0.9716
vn 0.3187 0.9184 -0.2344
vn -0.4157 -0.5052 0.7563
vn -0.4158 -0.5052 0.7563
vn 0.2336 0.0382 0.9716
vn -0.9772 -0.2089 0.0392
vn -0.1165 -0.9512 0.2857
vn -0.9772 -0.2088 0.0392
vn -0.3187 0.9184 -0.2344
vn -0.0825 -0.0127 -0.9965
vn 0.9772 -0.2088 0.0393
vn 0.9771 -0.2089 0.0392
vn 0.9772 -0.2089 0.0391
vn 0.4157 -0.5052 0.7563
vn 0.4157 -0.5051 0.7563
vn -0.4157 -0.5051 0.7563
vn -0.5393 -0.1129 -0.8345
vn 0.1165 -0.9512 0.2857
vn 0.0825 -0.0127 -0.9965
vn 0.9772 -0.2088 0.0392
vt 0.717181 0.928552
vt 0.713812 0.928552
vt 0.717730 0.933511
vt 0.712236 0.922693
vt 0.716168 0.923200
vt 0.716696 0.917854
vt 0.723983 0.919043
vt 0.723983 0.913809
vt 0.731270 0.917854
vt 0.730229 0.913563
vt 0.734752 0.917854
vt 0.824847 0.708571
vt 0.824847 0.782397
vt 0.783433 0.752687
vt 0.865362 0.752687
vt 0.899574 0.740082
vt 0.864462 0.780597
vt 0.899574 0.793201
vt 0.864462 0.803105
vt 0.899574 0.872430
vt 0.735722 0.922693
vt 0.731790 0.923200
vt 0.723983 0.927110
vt 0.715620 0.905749
vt 0.714544 0.905749
vt 0.713868 0.902802
vt 0.716218 0.908246
vt 0.718891 0.908415
vt 0.718891 0.908794
vt 0.721563 0.908246
vt 0.722400 0.899974
vt 0.723498 0.900368
vt 0.723913 0.902802
vt 0.721563 0.898209
vt 0.718891 0.898525
vt 0.718891 0.897421
vt 0.716218 0.898209
vt 0.713214 0.917854
vt 0.717730 0.913563
vt 0.723983 0.911995
vt 0.784333 0.780597
vt 0.784333 0.803105
vt 0.749220 0.740082
vt 0.723983 0.932583
vt 0.730785 0.928552
vt 0.730229 0.933511
vt 0.734154 0.928552
vt 0.722168 0.905749
vt 0.723237 0.905749
vt 0.715388 0.899974
vt 0.718891 0.899840
vt 0.749220 0.793201
vt 0.710506 0.803105
vt 0.718891 0.905749
vt 0.714290 0.900368
vt 0.938288 0.803105
vt 0.749220 0.872430
vt 0.723983 0.934601
vt 0.761255 0.926681
vt 0.773015 0.927983
vt 0.763344 0.923136
vt 0.771995 0.930620
vt 0.759117 0.929769
vt 0.771482 0.933511
vt 0.777039 0.925732
s 0
usemtl material_atlas_00001_1
f 47/59/147 48/60/148 49/61/149
f 47/59/150 50/62/151 48/60/152
f 51/63/153 50/62/154 47/59/147
f 51/63/153 52/64/155 50/62/154
f 53/65/156 52/64/157 51/63/153
f 53/65/156 54/66/158 52/64/159
f 55/67/160 54/66/161 53/65/156
f 55/67/162 56/68/163 54/66/164
f 57/69/165 56/68/166 55/67/162
f 58/70/167 59/71/168 60/72/169
f 58/70/167 61/73/170 59/71/168
f 62/74/171 61/73/172 58/70/167
f 62/74/173 63/75/174 61/73/175
f 64/76/176 63/75/177 62/74/178
f 64/76/176 65/77/179 63/75/174
f 66/78/180 65/77/181 64/76/182
f 55/67/160 67/79/183 57/69/184
f 55/67/185 68/80/186 67/79/183
f 53/65/156 68/80/186 55/67/185
f 53/65/156 69/81/187 68/80/188
f 51/63/153 69/81/187 53/65/156
f 51/63/153 47/59/147 69/81/189
f 70/82/190 48/83/191 50/84/192
f 70/82/190 49/85/193 48/83/194
f 71/86/195 49/85/196 70/82/197
f 71/86/195 72/87/198 49/85/196
f 73/88/199 72/87/198 71/86/195
f 62/89/178 57/90/184 67/91/183
f 62/89/171 56/92/200 57/90/165
f 74/93/201 56/92/200 62/89/173
f 74/93/202 75/94/203 56/92/204
f 76/95/205 75/94/206 74/93/202
f 52/64/155 77/96/207 50/62/154
f 52/64/159 76/97/208 77/96/209
f 54/66/164 76/97/210 52/64/211
f 54/66/212 75/98/213 76/97/210
f 56/68/163 75/98/213 54/66/212
f 78/99/214 59/71/215 79/100/216
f 78/99/217 60/72/169 59/71/215
f 80/101/218 60/72/219 78/99/214
f 80/101/220 58/70/167 60/72/221
f 81/102/222 69/81/187 47/59/223
f 81/102/222 82/103/224 69/81/189
f 73/104/225 82/103/224 81/102/222
f 73/104/225 83/105/226 82/103/224
f 66/106/227 73/88/199 71/86/195
f 66/106/227 83/107/228 73/88/229
f 67/91/230 83/107/231 66/106/180
f 74/93/201 80/108/232 76/95/233
f 74/93/201 58/109/167 80/108/220
f 62/89/171 58/109/167 74/93/201
f 84/110/234 78/99/214 79/100/235
f 84/110/236 80/101/237 78/99/238
f 50/111/239 80/101/240 84/110/241
f 82/103/224 68/80/186 69/81/189
f 82/103/242 67/79/243 68/80/186
f 83/105/244 67/79/243 82/103/224
f 85/112/245 71/86/246 70/82/197
f 85/112/245 66/106/180 71/86/246
f 77/113/207 80/108/247 50/84/154
f 77/113/209 76/95/233 80/108/237
f 63/75/248 59/71/215 61/73/170
f 63/75/174 65/77/249 59/71/215
f 64/76/250 67/114/230 66/78/180
f 64/76/251 62/74/252 67/114/183
f 84/110/253 70/115/190 50/111/192
f 84/110/234 79/100/254 70/115/190
f 49/61/196 81/102/222 47/59/147
f 49/61/196 72/116/255 81/102/222
f 72/116/255 73/104/199 81/102/222
f 86/117/256 87/118/257 88/119/258
f 86/117/256 89/120/259 87/118/260
f 90/121/261 89/120/262 86/117/256
f 90/121/263 91/122/264 89/120/265
f 92/117/266 91/122/267 90/121/268
f 92/117/269 93/120/270 91/122/267
f 88/119/258 93/120/271 92/117/272
f 88/119/258 87/118/273 93/120/270
f 94/119/274 95/118/275 96/117/276
f 94/119/277 97/120/278 95/118/279
f 98/117/280 97/120/281 94/119/274
f 98/117/282 99/122/283 97/120/278
f 100/121/284 99/122/283 98/117/285
f 100/121/286 101/120/287 99/122/288
f 96/117/289 101/120/287 100/121/284
f 96/117/290 95/118/275 101/120/291
f 102/123/292 87/118/293 89/120/259
f 102/123/294 93/120/271 87/118/293
f 91/122/295 93/120/296 102/123/294
f 103/123/297 101/120/287 95/118/275
f 103/123/298 99/122/283 101/120/291
f 97/120/278 99/122/283 103/123/299
f 92/117/266 86/117/300 88/119/258
f 92/117/266 90/121/261 86/117/301
f 96/117/302 98/117/280 94/119/274
f 96/117/289 100/121/284 98/117/303
f 91/122/295 102/123/292 89/120/265
f 95/118/304 97/120/305 103/123/306
