# Blender 4.2.1 LTS
# www.blender.org
mtllib pinetree.mtl
o FP_pat_treeA_H.mo
v 0.459428 0.008612 -0.032729
v -0.022215 0.008612 0.245348
v 0.459428 9.600840 0.523424
v 0.941071 0.008612 0.245348
v 0.459428 0.008612 -0.032729
v 0.941071 0.008612 0.801501
v 0.941071 0.008612 0.245348
v 0.459428 0.008612 1.079577
v 0.941071 0.008612 0.801501
v -0.022215 0.008612 0.801501
v 0.459428 0.008612 1.079577
v -0.022215 0.008612 0.245348
v -0.022215 0.008612 0.801501
v 0.500000 9.126498 6.224300
v 0.500000 9.126498 -5.224299
v 0.500000 24.147293 0.500000
v 0.500000 4.620259 -6.344272
v 0.499999 4.620259 7.344272
v 0.468994 2.440700 -1.707252
v 0.468994 2.440700 2.956136
v 4.547690 9.126498 4.547692
v -3.547690 9.126498 -3.547690
v -4.339632 4.620259 -4.339630
v 5.339631 4.620259 5.339633
v -1.069842 2.391260 -1.069842
v 2.227668 2.391260 2.227670
v 6.224300 9.126498 0.500000
v -5.224299 9.126498 0.500000
v -6.344271 4.620259 0.500000
v 7.344272 4.620259 0.500001
v -1.707251 2.391260 0.468996
v 2.956135 2.391260 0.468997
v -4.339630 4.620259 5.339632
v 2.227670 2.391260 -1.289675
v -1.069842 2.391260 2.007833
v 5.339633 4.620259 -4.339630
v 4.547692 9.126498 -3.547690
v -3.547690 9.126498 4.547690
v 3.352392 12.561991 0.500000
v 3.265403 8.147086 -2.265271
v 2.515466 12.561991 -1.515572
v 4.413625 8.147086 0.500000
v 2.515465 12.561991 2.515572
v 3.265401 8.147086 3.265272
v 0.499893 12.561991 3.350449
v 0.500129 8.147086 4.410685
v -1.515678 12.561991 2.515571
v -2.265142 8.147086 3.265271
v -2.350556 12.561991 0.500000
v -3.410556 8.147086 0.500000
v -1.515679 12.561991 -1.515573
v -2.265143 8.147086 -2.265271
v 0.499893 12.561991 -2.350449
v 0.500129 8.147086 -3.410685
v 6.866327 4.388589 0.500000
v 4.998372 4.388589 4.998603
v 0.499771 4.388589 6.861983
v -3.998830 4.388589 4.998601
v -5.862211 4.388589 0.500000
v 0.499769 4.388589 -5.861982
v 4.998374 4.388589 -3.998601
v -3.998830 4.388589 -3.998601
v 4.452350 9.388394 -3.452956
v 3.352391 12.561980 0.500000
v 6.093734 9.388394 0.500000
v 2.515465 12.561980 -1.515571
v 0.499893 12.561980 -2.350448
v 0.500000 21.304422 0.499998
v -1.515678 12.561980 -1.515572
v -2.350554 12.561980 0.500000
v -3.453563 9.388394 -3.452956
v -5.090931 9.388394 0.500000
v 2.515464 12.561980 2.515571
v 0.499893 12.561980 3.350448
v 4.452348 9.388394 4.452956
v 0.499391 9.388394 6.090324
v 0.499392 9.388394 -5.090323
v -1.515677 12.561980 2.515570
v -3.453563 9.388394 4.452956
vn 0.0001 1.0000 -0.0000
vn -0.4994 0.0501 -0.8649
vn 0.0001 1.0000 0.0001
vn 0.4994 0.0501 -0.8649
vn -0.0001 1.0000 -0.0001
vn 0.9987 0.0501 -0.0000
vn 0.0001 1.0000 -0.0001
vn 0.4994 0.0501 0.8649
vn -0.4994 0.0501 0.8649
vn -0.9987 0.0501 -0.0000
vn 0.3827 -0.0000 -0.9239
vn 1.0000 -0.0000 -0.0000
vn 1.0000 -0.0033 -0.0000
vn 1.0000 -0.0035 -0.0000
vn 1.0000 -0.0034 -0.0000
vn 0.9999 -0.0142 -0.0000
vn 0.7071 -0.0000 -0.7071
vn -0.0000 -0.0000 -1.0000
vn -0.0000 0.0033 -1.0000
vn -0.0000 0.0034 -1.0000
vn -0.0000 0.0139 -0.9999
vn -0.7070 0.0197 -0.7070
vn -0.7071 0.0046 -0.7071
vn -0.7071 0.0049 -0.7071
vn -0.7071 -0.0000 -0.7071
vn 0.3826 -0.0001 -0.9239
vn 0.6872 0.2335 -0.6879
vn 0.9723 0.2337 -0.0000
vn 0.6444 0.4108 -0.6450
vn 0.9116 0.4111 -0.0000
vn 0.6872 0.2335 0.6879
vn 0.6444 0.4108 0.6450
vn -0.0000 0.2335 0.9724
vn -0.0000 0.4108 0.9117
vn -0.6876 0.2335 0.6876
vn -0.6447 0.4108 0.6447
vn -0.9724 0.2335 -0.0000
vn -0.9117 0.4108 -0.0000
vn -0.6876 0.2335 -0.6876
vn -0.6447 0.4108 -0.6447
vn -0.0000 0.2335 -0.9724
vn -0.0000 0.4108 -0.9117
vn 0.8375 0.5465 -0.0000
vn 0.5921 0.5462 0.5925
vn -0.0000 0.5463 0.8376
vn -0.5923 0.5463 0.5922
vn -0.8376 0.5463 -0.0000
vn 0.5921 0.5462 -0.5925
vn -0.0000 0.5463 -0.8376
vn -0.5923 0.5463 -0.5922
vn 0.7568 0.6537 -0.0000
vn 0.5351 0.6534 -0.5355
vn 0.8591 0.5119 -0.0000
vn 0.6073 0.5115 -0.6079
vn -0.0000 0.5116 -0.8592
vn -0.0000 1.0000 -0.0000
vn -0.6075 0.5116 -0.6076
vn -0.8592 0.5117 -0.0000
vn -0.5352 0.6535 -0.5352
vn -0.7569 0.6536 -0.0000
vn 0.6073 0.5115 0.6079
vn -0.0000 0.5116 0.8592
vn 0.5350 0.6534 0.5355
vn -0.0000 0.6535 0.7569
vn -0.0000 0.6535 -0.7569
vn -0.6075 0.5116 0.6076
vn -0.5352 0.6535 0.5352
vt 0.500000 0.139266
vt 0.473267 0.002914
vt 0.526733 0.002914
vt 0.500977 0.562881
vt 1.000000 0.211318
vt 0.000000 0.211318
vt -0.042664 0.100295
vt 1.043030 0.105575
vt 0.304504 0.058425
vt 0.718445 0.058425
vt 0.308594 0.258926
vt 0.431274 0.247970
vt 0.226685 0.166000
vt 0.399170 0.147567
vt 0.380554 0.060409
vt 0.109009 0.075515
vt 0.370361 0.053634
vt -0.036194 0.085128
vt 0.425537 0.169601
vt 0.271240 0.196548
vt 0.477539 0.451705
s 1
usemtl jog_treeA
f 3/1/1 1/2/2 2/3/2
f 3/1/3 4/2/4 5/3/4
f 3/1/5 6/2/6 7/3/6
f 3/1/7 8/2/8 9/3/8
f 3/1/5 10/2/9 11/3/9
f 3/1/7 12/2/10 13/3/10
f 16/4/11 14/5/12 15/6/12
s 0
f 15/6/12 14/5/12 17/7/13
f 14/5/12 18/8/14 17/7/13
s 1
f 17/7/13 18/8/15 19/9/16
f 18/8/15 20/10/16 19/9/16
f 16/4/11 21/5/17 22/6/17
s 0
f 22/6/17 21/5/17 23/7/17
f 21/5/17 24/8/17 23/7/17
f 23/7/17 24/8/17 25/9/17
f 24/8/17 26/10/17 25/9/17
s 1
f 16/4/11 27/5/18 28/6/18
s 0
f 28/6/18 27/5/18 29/7/19
f 27/5/18 30/8/20 29/7/19
s 1
f 29/7/19 30/8/20 31/9/21
f 30/8/20 32/10/21 31/9/21
f 35/9/22 33/7/23 34/10/22
f 34/10/22 33/7/23 36/8/24
f 33/7/23 37/5/25 36/8/24
f 16/4/26 37/5/25 38/6/25
f 38/6/25 37/5/25 33/7/23
f 41/11/27 39/12/28 40/13/29
f 40/13/29 39/12/28 42/14/30
f 39/12/28 43/11/31 42/14/30
f 42/14/30 43/11/31 44/13/32
f 43/11/31 45/12/33 44/13/32
f 44/13/32 45/12/33 46/14/34
f 45/12/33 47/11/35 46/14/34
f 46/14/34 47/11/35 48/13/36
f 47/11/35 49/12/37 48/13/36
f 48/13/36 49/12/37 50/14/38
f 49/12/37 51/11/39 50/14/38
f 50/14/38 51/11/39 52/13/40
f 51/11/39 53/12/41 52/13/40
f 52/13/40 53/12/41 54/14/42
f 42/14/30 44/13/32 55/15/43
f 55/15/43 44/13/32 56/16/44
f 44/13/32 46/14/34 56/16/44
f 56/16/44 46/14/34 57/15/45
f 46/14/34 48/13/36 57/15/45
f 57/15/45 48/13/36 58/16/46
f 48/13/36 59/15/47 58/16/46
f 61/16/48 60/15/49 54/14/42
f 54/14/42 60/15/49 52/13/40
f 60/15/49 62/16/50 52/13/40
f 52/13/40 62/16/50 50/14/38
f 62/16/50 59/15/47 50/14/38
f 50/14/38 59/15/47 48/13/36
f 55/15/43 61/16/48 42/14/30
f 42/14/30 61/16/48 40/13/29
f 61/16/48 54/14/42 40/13/29
f 40/13/29 54/14/42 41/11/27
f 54/14/42 53/12/41 41/11/27
f 65/17/51 63/18/52 64/19/53
f 64/19/53 63/18/52 66/20/54
f 63/18/52 67/19/55 66/20/54
f 66/20/54 67/19/55 68/21/56
f 67/19/55 69/20/57 68/21/56
f 68/21/56 69/20/57 70/19/58
f 69/20/57 71/18/59 70/19/58
f 70/19/58 71/18/59 72/17/60
f 66/20/54 68/21/56 64/19/53
f 64/19/53 68/21/56 73/20/61
f 68/21/56 74/19/62 73/20/61
f 73/20/61 74/19/62 75/18/63
f 74/19/62 76/17/64 75/18/63
f 63/18/52 77/17/65 67/19/55
f 67/19/55 77/17/65 69/20/57
f 77/17/65 71/18/59 69/20/57
f 68/21/56 78/20/66 74/19/62
f 74/19/62 78/20/66 76/17/64
f 78/20/66 79/18/67 76/17/64
f 64/19/53 73/20/61 65/17/51
f 65/17/51 73/20/61 75/18/63
f 68/21/56 70/19/58 78/20/66
f 78/20/66 70/19/58 72/17/60
f 72/17/60 79/18/67 78/20/66
o FP_pat_treeA_H.mo.001
v 0.459428 0.008612 -0.032729
v -0.022215 0.008612 0.245348
v 0.459428 9.600840 0.523424
v 0.941071 0.008612 0.245348
v 0.459428 0.008612 -0.032729
v 0.941071 0.008612 0.801501
v 0.941071 0.008612 0.245348
v 0.459428 0.008612 1.079577
v 0.941071 0.008612 0.801501
v -0.022215 0.008612 0.801501
v 0.459428 0.008612 1.079577
v -0.022215 0.008612 0.245348
v -0.022215 0.008612 0.801501
v 0.500000 9.126498 6.224300
v 0.500000 9.126498 -5.224299
v 0.500000 24.147293 0.500000
v 0.500000 4.620259 -6.344272
v 0.499999 4.620259 7.344272
v 0.468994 2.440700 -1.707252
v 0.468994 2.440700 2.956136
v 4.547690 9.126498 4.547692
v -3.547690 9.126498 -3.547690
v -4.339632 4.620259 -4.339630
v 5.339631 4.620259 5.339633
v -1.069842 2.391260 -1.069842
v 2.227668 2.391260 2.227670
v 6.224300 9.126498 0.500000
v -5.224299 9.126498 0.500000
v -6.344271 4.620259 0.500000
v 7.344272 4.620259 0.500001
v -1.707251 2.391260 0.468996
v 2.956135 2.391260 0.468997
v -4.339630 4.620259 5.339632
v 2.227670 2.391260 -1.289675
v -1.069842 2.391260 2.007833
v 5.339633 4.620259 -4.339630
v 4.547692 9.126498 -3.547690
v -3.547690 9.126498 4.547690
v 3.352392 12.561991 0.500000
v 3.265403 8.147086 -2.265271
v 2.515466 12.561991 -1.515572
v 4.413625 8.147086 0.500000
v 2.515465 12.561991 2.515572
v 3.265401 8.147086 3.265272
v 0.499893 12.561991 3.350449
v 0.500129 8.147086 4.410685
v -1.515678 12.561991 2.515571
v -2.265142 8.147086 3.265271
v -2.350556 12.561991 0.500000
v -3.410556 8.147086 0.500000
v -1.515679 12.561991 -1.515573
v -2.265143 8.147086 -2.265271
v 0.499893 12.561991 -2.350449
v 0.500129 8.147086 -3.410685
v 6.866327 4.388589 0.500000
v 4.998372 4.388589 4.998603
v 0.499771 4.388589 6.861983
v -3.998830 4.388589 4.998601
v -5.862211 4.388589 0.500000
v 0.499769 4.388589 -5.861982
v 4.998374 4.388589 -3.998601
v -3.998830 4.388589 -3.998601
v 4.452350 9.388394 -3.452956
v 3.352391 12.561980 0.500000
v 6.093734 9.388394 0.500000
v 2.515465 12.561980 -1.515571
v 0.499893 12.561980 -2.350448
v 0.500000 21.304422 0.499998
v -1.515678 12.561980 -1.515572
v -2.350554 12.561980 0.500000
v -3.453563 9.388394 -3.452956
v -5.090931 9.388394 0.500000
v 2.515464 12.561980 2.515571
v 0.499893 12.561980 3.350448
v 4.452348 9.388394 4.452956
v 0.499391 9.388394 6.090324
v 0.499392 9.388394 -5.090323
v -1.515677 12.561980 2.515570
v -3.453563 9.388394 4.452956
vn -0.0002 -1.0000 -0.0000
vn 0.4994 -0.0501 0.8649
vn -0.0000 -1.0000 -0.0002
vn -0.4994 -0.0501 0.8649
vn 0.0001 -1.0000 0.0001
vn -0.9987 -0.0501 -0.0000
vn -0.0000 -1.0000 0.0001
vn -0.4994 -0.0501 -0.8649
vn -0.0000 -1.0000 0.0002
vn 0.4994 -0.0501 -0.8649
vn -0.0001 -1.0000 0.0001
vn 0.9987 -0.0501 -0.0000
vn -0.3828 0.0001 0.9238
vn -1.0000 -0.0000 -0.0000
vn -1.0000 0.0033 -0.0000
vn -1.0000 0.0035 -0.0000
vn -0.9999 0.0142 -0.0000
vn -1.0000 0.0034 -0.0000
vn -0.3828 -0.0000 0.9238
vn -0.7071 -0.0000 0.7071
vn -0.3826 -0.0000 0.9239
vn -0.0000 -0.0000 1.0000
vn -0.0000 -0.0033 1.0000
vn -0.0000 -0.0034 1.0000
vn -0.0000 -0.0139 0.9999
vn 0.7070 -0.0197 0.7070
vn 0.7071 -0.0046 0.7071
vn 0.7071 -0.0049 0.7071
vn 0.7071 -0.0000 0.7071
vn -0.3826 0.0001 0.9239
vn -0.6872 -0.2335 0.6879
vn -0.6444 -0.4108 0.6450
vn -0.9723 -0.2337 -0.0000
vn -0.9116 -0.4111 -0.0000
vn -0.6872 -0.2335 -0.6879
vn -0.6444 -0.4108 -0.6450
vn -0.0000 -0.2335 -0.9724
vn -0.0000 -0.4108 -0.9117
vn 0.6876 -0.2335 -0.6876
vn 0.6447 -0.4108 -0.6447
vn 0.9724 -0.2335 -0.0000
vn 0.9117 -0.4108 -0.0000
vn 0.6876 -0.2335 0.6876
vn 0.6447 -0.4108 0.6447
vn -0.0000 -0.2335 0.9724
vn -0.0000 -0.4108 0.9117
vn -0.8375 -0.5465 -0.0000
vn -0.5921 -0.5462 -0.5925
vn -0.0000 -0.5463 -0.8376
vn 0.5923 -0.5463 -0.5922
vn 0.8376 -0.5463 -0.0000
vn -0.5921 -0.5462 0.5925
vn -0.0000 -0.5463 0.8376
vn 0.5923 -0.5463 0.5922
vn -0.7568 -0.6537 -0.0000
vn -0.8591 -0.5119 -0.0000
vn -0.5351 -0.6534 0.5355
vn -0.6073 -0.5115 0.6079
vn -0.0000 -0.5116 0.8592
vn -0.0000 -1.0000 -0.0000
vn 0.6075 -0.5116 0.6076
vn 0.8592 -0.5117 -0.0000
vn 0.5352 -0.6535 0.5352
vn 0.7569 -0.6536 -0.0000
vn -0.6073 -0.5115 -0.6079
vn -0.0000 -0.5116 -0.8592
vn -0.5350 -0.6534 -0.5355
vn -0.0000 -0.6535 -0.7569
vn -0.0000 -0.6535 0.7569
vn 0.6075 -0.5116 -0.6076
vn 0.5352 -0.6535 -0.5352
vt 0.500000 0.139266
vt 0.526733 0.002914
vt 0.473267 0.002914
vt 0.500977 0.562881
vt 0.000000 0.211318
vt 1.000000 0.211318
vt -0.042664 0.100295
vt 1.043030 0.105575
vt 0.304504 0.058425
vt 0.718445 0.058425
vt 0.308594 0.258926
vt 0.226685 0.166000
vt 0.431274 0.247970
vt 0.399170 0.147567
vt 0.380554 0.060409
vt 0.109009 0.075515
vt 0.370361 0.053634
vt 0.425537 0.169601
vt -0.036194 0.085128
vt 0.271240 0.196548
vt 0.477539 0.451705
s 1
usemtl jog_treeA
f 82/22/68 81/23/69 80/24/69
f 82/22/70 84/23/71 83/24/71
f 82/22/72 86/23/73 85/24/73
f 82/22/74 88/23/75 87/24/75
f 82/22/76 90/23/77 89/24/77
f 82/22/78 92/23/79 91/24/79
f 95/25/80 94/26/81 93/27/81
s 0
f 94/26/81 96/28/82 93/27/81
f 93/27/81 96/28/82 97/29/83
s 1
f 96/28/82 98/30/84 97/29/85
f 97/29/85 98/30/84 99/31/84
f 95/25/86 101/26/87 100/27/87
s 0
f 101/26/87 102/28/87 100/27/87
f 100/27/87 102/28/87 103/29/87
f 102/28/87 104/30/87 103/29/87
f 103/29/87 104/30/87 105/31/87
s 1
f 95/25/88 107/26/89 106/27/89
s 0
f 107/26/89 108/28/90 106/27/89
f 106/27/89 108/28/90 109/29/91
s 1
f 108/28/90 110/30/92 109/29/91
f 109/29/91 110/30/92 111/31/92
f 114/30/93 113/31/93 112/28/94
f 113/31/93 115/29/95 112/28/94
f 112/28/94 115/29/95 116/27/96
f 95/25/97 117/26/96 116/27/96
f 117/26/96 112/28/94 116/27/96
f 120/32/98 119/33/99 118/34/100
f 119/33/99 121/35/101 118/34/100
f 118/34/100 121/35/101 122/32/102
f 121/35/101 123/33/103 122/32/102
f 122/32/102 123/33/103 124/34/104
f 123/33/103 125/35/105 124/34/104
f 124/34/104 125/35/105 126/32/106
f 125/35/105 127/33/107 126/32/106
f 126/32/106 127/33/107 128/34/108
f 127/33/107 129/35/109 128/34/108
f 128/34/108 129/35/109 130/32/110
f 129/35/109 131/33/111 130/32/110
f 130/32/110 131/33/111 132/34/112
f 131/33/111 133/35/113 132/34/112
f 121/35/101 134/36/114 123/33/103
f 134/36/114 135/37/115 123/33/103
f 123/33/103 135/37/115 125/35/105
f 135/37/115 136/36/116 125/35/105
f 125/35/105 136/36/116 127/33/107
f 136/36/116 137/37/117 127/33/107
f 127/33/107 137/37/117 138/36/118
f 140/37/119 133/35/113 139/36/120
f 133/35/113 131/33/111 139/36/120
f 139/36/120 131/33/111 141/37/121
f 131/33/111 129/35/109 141/37/121
f 141/37/121 129/35/109 138/36/118
f 129/35/109 127/33/107 138/36/118
f 134/36/114 121/35/101 140/37/119
f 121/35/101 119/33/99 140/37/119
f 140/37/119 119/33/99 133/35/113
f 119/33/99 120/32/98 133/35/113
f 133/35/113 120/32/98 132/34/112
f 144/38/122 143/39/123 142/40/124
f 143/39/123 145/41/125 142/40/124
f 142/40/124 145/41/125 146/39/126
f 145/41/125 147/42/127 146/39/126
f 146/39/126 147/42/127 148/41/128
f 147/42/127 149/39/129 148/41/128
f 148/41/128 149/39/129 150/40/130
f 149/39/129 151/38/131 150/40/130
f 145/41/125 143/39/123 147/42/127
f 143/39/123 152/41/132 147/42/127
f 147/42/127 152/41/132 153/39/133
f 152/41/132 154/40/134 153/39/133
f 153/39/133 154/40/134 155/38/135
f 142/40/124 146/39/126 156/38/136
f 146/39/126 148/41/128 156/38/136
f 156/38/136 148/41/128 150/40/130
f 147/42/127 153/39/133 157/41/137
f 153/39/133 155/38/135 157/41/137
f 157/41/137 155/38/135 158/40/138
f 143/39/123 144/38/122 152/41/132
f 144/38/122 154/40/134 152/41/132
f 147/42/127 157/41/137 149/39/129
f 157/41/137 151/38/131 149/39/129
f 151/38/131 157/41/137 158/40/138
