# Blender 4.2.1 LTS
# www.blender.org
mtllib rattata.mtl
o Pii_KORATTA_01
v -0.159400 -2.970526 1.300123
v -0.139195 -2.211805 1.290402
v -0.212727 -2.670975 0.848030
v 0.500000 -2.663588 1.579680
v 0.500000 -2.760083 0.566740
v 1.159400 -2.970526 1.300123
v 1.212727 -2.670975 0.848030
v 1.139195 -2.211805 1.290402
v 0.500000 -1.649987 1.164635
v -0.057979 -1.728835 -0.014588
v -0.074872 -1.806684 1.247518
v 0.500000 -1.601334 -0.324765
v 1.057979 -1.728835 -0.014588
v 1.283378 -2.211805 -0.173936
v 0.500000 -2.211805 1.586817
v 0.500000 -1.743602 1.627948
v 1.074872 -1.806684 1.247518
v -0.283378 -2.211805 -0.173936
v 0.500000 -2.211805 -0.547613
v 0.500000 -2.661463 -0.529824
v -0.159400 -2.970520 -0.284828
v -0.212727 -2.702944 0.329387
v 1.159400 -2.970520 -0.284828
v 1.212727 -2.702944 0.329387
v 0.500000 -0.838687 -1.438673
v 0.500000 -1.575915 -0.819783
v 0.360492 -1.529421 -0.744693
v 0.639508 -1.529421 -0.744693
v 0.706618 -0.925002 -1.164385
v 0.500000 -0.989623 -0.959035
v 0.500000 -0.618509 -0.508648
v 0.293382 -0.925002 -1.164385
v 0.204300 -0.428290 -0.968702
v 0.500000 -0.226347 -1.466305
v 0.500000 -0.059511 -0.818724
v 0.795700 -0.428290 -0.968702
v 0.500000 -1.691091 -0.379327
v 0.500000 -1.492595 -0.685206
v 0.500000 -0.149064 2.412493
v 0.500000 -0.618373 2.735467
v 1.108629 -0.663120 2.457287
v -0.108636 -0.663120 2.457287
v 0.032836 -0.170483 2.153256
v -0.153848 -0.244035 1.700036
v 0.500000 -0.010946 1.753559
v 0.006108 -0.243502 1.284621
v 0.500000 -0.164284 1.104832
v 0.500000 -0.652900 0.714121
v 0.993892 -0.243502 1.284621
v 1.285207 -0.652900 1.023015
v 1.153848 -0.244035 1.700036
v 1.481159 -0.816782 1.892056
v 0.030967 -1.910317 2.522096
v -0.423926 -1.958996 1.818038
v 0.500000 -2.228231 1.717623
v -0.233707 -1.565823 2.510473
v 0.261669 -1.516111 2.911957
v 0.267295 -1.323835 2.954680
v 0.500000 -1.540262 2.975323
v 0.500000 -1.317217 3.032529
v 0.732705 -1.323835 2.954680
v 0.674743 -1.213544 2.857793
v -0.420384 -1.348351 0.912731
v -0.601455 -1.417430 1.899112
v -0.223130 -1.924524 1.173007
v 0.500000 -1.354901 0.554266
v 0.500000 -1.986433 0.908724
v 1.223130 -1.924524 1.173007
v 1.423926 -1.958996 1.818038
v 0.500000 -2.007838 2.585523
v 0.738331 -1.516111 2.911957
v 1.233707 -1.565823 2.510473
v -0.481159 -0.816782 1.892056
v -0.285207 -0.652900 1.023015
v 0.967164 -0.170483 2.153256
v 1.420384 -1.348351 0.912731
v 1.601455 -1.417430 1.899112
v 0.325891 -1.213011 2.857604
v 0.500000 -1.186857 2.912457
v 0.969033 -1.910317 2.522096
v -0.198999 -1.247531 2.496502
v 1.198999 -1.247531 2.496502
v 1.661380 -1.334784 2.225877
v 1.356884 -1.406677 2.313346
v 1.632912 -1.410900 2.166060
v 1.588179 -1.268228 2.142746
v 2.133205 -1.370019 1.644469
v -0.661380 -1.334784 2.225877
v -0.632912 -1.410900 2.166060
v -0.356884 -1.406677 2.313346
v -1.133206 -1.370019 1.644469
v -0.588179 -1.268228 2.142746
v 0.342534 -1.931776 2.875859
v 0.182005 -1.453980 2.857045
v 0.195591 -1.448617 2.789807
v 0.500000 -1.453980 2.953837
v 0.500000 -1.931911 2.943232
v 0.657466 -1.931776 2.875859
v 0.500000 -1.448617 2.886592
v 0.804409 -1.448617 2.789807
v 0.817995 -1.453980 2.857045
v 1.694503 0.070546 1.511915
v 2.152992 -0.891090 1.572603
v 2.186574 -0.291946 1.332012
v 1.501310 -0.958658 2.022700
v 1.257501 -0.401360 1.990426
v -0.606892 -0.594486 1.507524
v -0.257501 -0.401360 1.990426
v -0.501310 -0.958658 2.022700
v -0.694503 0.070546 1.511915
v -1.186574 -0.291946 1.332012
v 1.606892 -0.594486 1.507524
v -1.152992 -0.891090 1.572603
vn -0.5865 -0.7572 0.2876
vn -0.8613 0.1045 0.4973
vn -0.8231 -0.5573 -0.1094
vn -0.5865 -0.7572 0.2877
vn -0.0000 -0.4294 0.9031
vn -0.0000 -0.9999 -0.0129
vn -0.0001 -0.4295 0.9031
vn 0.5864 -0.7572 0.2877
vn 0.8231 -0.5572 -0.1094
vn 0.5865 -0.7571 0.2877
vn -0.0001 -0.9999 -0.0129
vn 0.8231 -0.5573 -0.1094
vn 0.8613 0.1045 0.4973
vn 0.5865 -0.7572 0.2876
vn -0.0000 0.9953 0.0964
vn -0.6888 0.7130 -0.1307
vn -0.6328 0.7008 0.3294
vn -0.0000 0.9953 0.0965
vn -0.0000 0.7526 -0.6584
vn -0.6889 0.7130 -0.1307
vn 0.6889 0.7130 -0.1307
vn 0.6888 0.7131 -0.1306
vn 0.8064 0.1780 -0.5639
vn -0.0000 0.7527 -0.6584
vn 0.6889 0.7130 -0.1306
vn -0.0000 -0.0517 0.9987
vn -0.8613 0.1046 0.4973
vn -0.0000 -0.4295 0.9031
vn -0.0000 0.4813 0.8765
vn -0.8613 0.1045 0.4972
vn 0.8613 0.1046 0.4973
vn 0.6329 0.7007 0.3293
vn -0.6329 0.7007 0.3293
vn -0.0000 0.4813 0.8766
vn 0.6328 0.7008 0.3294
vn -0.6888 0.7131 -0.1307
vn -0.8064 0.1780 -0.5639
vn -0.6888 0.7130 -0.1306
vn -0.0000 0.1557 -0.9878
vn -0.8065 0.1781 -0.5639
vn -0.0000 -0.4175 -0.9087
vn -0.8065 0.1780 -0.5639
vn 0.8065 0.1780 -0.5639
vn -0.0000 -0.4174 -0.9087
vn -0.0000 0.1556 -0.9878
vn -0.5013 -0.8195 -0.2776
vn -0.0000 -0.9999 -0.0130
vn -0.8530 -0.5046 0.1330
vn -0.5013 -0.8195 -0.2775
vn 0.0001 -0.4174 -0.9087
vn -0.5014 -0.8195 -0.2776
vn 0.5013 -0.8195 -0.2776
vn 0.8530 -0.5046 0.1330
vn 0.8064 0.1781 -0.5639
vn 0.5013 -0.8196 -0.2775
vn -0.8530 -0.5047 0.1331
vn -0.8231 -0.5573 -0.1095
vn 0.8530 -0.5047 0.1331
vn 0.6888 0.7130 -0.1307
vn -0.8231 -0.5572 -0.1095
vn -0.8530 -0.5046 0.1331
vn -0.5865 -0.7571 0.2877
vn -0.8231 -0.5572 -0.1094
vn -0.8064 0.1781 -0.5639
vn -0.5013 -0.8196 -0.2775
vn 0.5012 -0.8196 -0.2776
vn -0.0000 -0.4955 -0.8686
vn -0.0000 -0.3781 -0.9258
vn -0.9835 0.1803 -0.0119
vn 0.9835 0.1803 -0.0119
vn 0.9764 -0.2142 -0.0272
vn -0.0001 -0.4956 -0.8686
vn 0.9764 -0.2143 -0.0272
vn -0.0000 0.1372 0.9906
vn 0.9835 0.1804 -0.0120
vn -0.0000 -0.3518 0.9361
vn -0.0000 0.1371 0.9906
vn 0.9764 -0.2143 -0.0273
vn -0.9764 -0.2143 -0.0273
vn -0.0001 0.1372 0.9905
vn -0.9698 0.2188 0.1077
vn -0.9698 0.2187 0.1077
vn -0.0000 0.4659 -0.8848
vn -0.9764 -0.2142 -0.0272
vn -0.0000 0.9162 0.4008
vn -0.0001 0.4659 -0.8848
vn -0.9698 0.2187 0.1078
vn -0.0000 0.9162 0.4007
vn 0.9698 0.2187 0.1077
vn -0.0000 -0.3519 0.9360
vn 0.9698 0.2188 0.1077
vn -0.0000 -0.3984 0.9172
vn -0.0000 0.9380 0.3467
vn -0.9835 0.1804 -0.0119
vn 0.9835 0.1804 -0.0119
vn -0.0001 -0.3984 0.9172
vn -0.0000 -0.3781 -0.9257
vn -0.0001 0.9380 0.3467
vn -0.0000 0.4658 -0.8849
vn -0.0000 0.4660 -0.8848
vn -0.9835 0.1804 -0.0120
vn -0.9764 -0.2143 -0.0272
vn -0.0000 0.1372 0.9905
vn -0.0000 -0.3782 -0.9257
vn -0.0000 0.9161 0.4008
vn -0.0000 -0.3517 0.9361
vn 0.9835 0.1805 -0.0119
vn -0.0000 0.7744 0.6327
vn -0.0002 0.4005 0.9163
vn 0.6441 0.4034 0.6499
vn -0.6440 0.4034 0.6500
vn -0.0003 0.4004 0.9163
vn -0.4932 0.8049 0.3300
vn -0.6948 0.7189 0.0215
vn -0.6441 0.4034 0.6500
vn -0.0000 0.9991 -0.0421
vn -0.4932 0.8049 0.3299
vn -0.4022 0.8049 -0.4363
vn -0.0000 0.8488 -0.5287
vn -0.4023 0.8049 -0.4363
vn -0.0000 0.8488 -0.5288
vn -0.0000 0.5231 -0.8523
vn 0.4023 0.8049 -0.4363
vn -0.0000 0.5230 -0.8523
vn 0.6690 0.4586 -0.5850
vn 0.0001 0.5231 -0.8523
vn 0.6948 0.7189 0.0215
vn 0.6690 0.4586 -0.5849
vn 0.6948 0.7188 0.0215
vn 0.9350 0.3138 0.1650
vn 0.6690 0.4585 -0.5850
vn -0.4228 -0.7375 0.5266
vn -0.7434 -0.6615 0.0987
vn -0.0000 -0.9999 0.0115
vn -0.4229 -0.7375 0.5266
vn -0.7391 -0.2084 0.6406
vn -0.3996 -0.4123 0.8187
vn -0.7391 -0.2083 0.6406
vn -0.3996 -0.4123 0.8188
vn -0.4784 0.1759 0.8603
vn -0.0000 -0.3756 0.9268
vn 0.0001 0.4386 0.8987
vn 0.4784 0.1760 0.8603
vn -0.0000 0.4387 0.8986
vn 0.0001 -0.3756 0.9268
vn 0.4784 0.1760 0.8604
vn 0.3984 0.4838 0.7792
vn -0.0000 0.4386 0.8987
vn -0.8600 -0.1101 -0.4982
vn -0.7435 -0.6615 0.0987
vn -0.9693 -0.0301 0.2441
vn -0.4449 -0.7259 -0.5245
vn -0.7434 -0.6615 0.0986
vn -0.0000 -0.1484 -0.9889
vn -0.0000 -0.7863 -0.6179
vn 0.4450 -0.7259 -0.5245
vn 0.4449 -0.7260 -0.5244
vn -0.0000 -0.7863 -0.6178
vn 0.7435 -0.6615 0.0986
vn 0.4449 -0.7259 -0.5245
vn -0.0001 -0.7814 0.6241
vn -0.0000 -0.7814 0.6241
vn -0.3996 -0.4124 0.8187
vn 0.3996 -0.4124 0.8187
vn -0.0000 -0.3757 0.9268
vn -0.0000 -0.7813 0.6241
vn 0.3996 -0.4123 0.8188
vn 0.7391 -0.2083 0.6406
vn -0.9350 0.3138 0.1650
vn -0.6948 0.7189 0.0214
vn -0.6690 0.4586 -0.5850
vn -0.6690 0.4586 -0.5849
vn -0.4023 0.8048 -0.4363
vn -0.6690 0.4585 -0.5850
vn 0.4932 0.8049 0.3300
vn -0.0000 0.9991 -0.0420
vn 0.6441 0.4035 0.6499
vn 0.8600 -0.1102 -0.4982
vn 0.9351 0.3138 0.1650
vn 0.8600 -0.1100 -0.4983
vn 0.9693 -0.0301 0.2441
vn 0.8600 -0.1101 -0.4983
vn -0.3985 0.4836 0.7793
vn -0.0003 0.4999 0.8661
vn 0.3985 0.4838 0.7792
vn -0.0002 0.4999 0.8661
vn 0.4228 -0.7375 0.5266
vn 0.3996 -0.4123 0.8187
vn 0.4229 -0.7375 0.5266
vn 0.7391 -0.2084 0.6406
vn 0.7434 -0.6615 0.0987
vn -0.3986 0.4835 0.7793
vn 0.3985 0.4837 0.7793
vn 0.3984 0.4837 0.7793
vn -0.0002 0.4004 0.9163
vn 0.4932 0.8049 0.3299
vn -0.7435 -0.6615 0.0986
vn -0.4449 -0.7260 -0.5244
vn -0.9351 0.3138 0.1650
vn -0.8600 -0.1101 -0.4983
vn 0.7435 -0.6615 0.0987
vn 0.8600 -0.1101 -0.4982
vn 0.7434 -0.6615 0.0986
vn -0.4784 0.1759 0.8604
vn -0.3986 0.4836 0.7793
vn -0.7325 0.2465 0.6346
vn 0.4783 0.1760 0.8604
vn 0.7326 0.2465 0.6345
vn 0.0001 -0.9999 0.0115
vn 0.7325 0.2465 0.6345
vn 0.8600 -0.1100 -0.4982
vn -0.9693 -0.0301 0.2442
vn -0.9693 -0.0302 0.2442
vn -0.7391 -0.2083 0.6405
vn 0.7391 -0.2084 0.6405
vn 0.9693 -0.0302 0.2441
vn 0.5375 0.1374 0.8320
vn -0.2271 -0.3216 0.9192
vn -0.0997 -0.9801 -0.1715
vn 0.5375 0.1373 0.8320
vn -0.5073 0.7484 -0.4271
vn 0.8960 -0.2405 0.3734
vn -0.5375 0.1374 0.8320
vn 0.0996 -0.9801 -0.1716
vn 0.2271 -0.3216 0.9192
vn -0.8959 -0.2405 0.3735
vn 0.0997 -0.9801 -0.1716
vn 0.5073 0.7484 -0.4272
vn -0.8960 -0.2405 0.3733
vn -0.5376 0.1374 0.8320
vn -0.5074 0.7484 -0.4272
vn -0.0997 -0.9801 -0.1716
vn -0.2272 -0.3216 0.9192
vn -0.5074 0.7484 -0.4271
vn 0.8959 -0.2406 0.3734
vn 0.5074 0.7484 -0.4272
vn 0.2271 -0.3217 0.9192
vn -0.8959 -0.2406 0.3735
vn 0.5074 0.7484 -0.4271
vn 0.8959 -0.2405 0.3735
vn 0.5073 0.7485 -0.4271
vn -0.5376 0.1374 0.8319
vn 0.2271 -0.3216 0.9193
vn -0.8287 -0.5288 -0.1832
vn -0.8244 -0.2571 0.5043
vn -0.4517 -0.2878 -0.8445
vn -0.8288 -0.5287 -0.1833
vn -0.0000 -0.0429 0.9991
vn -0.8244 -0.2571 0.5042
vn -0.0000 -0.9992 0.0396
vn -0.8287 -0.5289 -0.1832
vn 0.8287 -0.5288 -0.1833
vn -0.0000 -0.0985 -0.9951
vn 0.8287 -0.5288 -0.1832
vn 0.0001 -0.9992 0.0397
vn 0.4518 -0.2878 -0.8445
vn 0.8288 -0.5288 -0.1832
vn 0.8244 -0.2572 0.5043
vn 0.4517 -0.2878 -0.8445
vn 0.8244 -0.2571 0.5042
vn -0.4518 -0.2877 -0.8445
vn -0.0001 -0.9992 0.0397
vn -0.8288 -0.5287 -0.1832
vn 0.3444 0.7321 0.5878
vn 0.7643 -0.6349 0.1131
vn 0.1037 -0.0226 -0.9944
vn -0.0949 -0.6882 0.7192
vn 0.7642 -0.6350 0.1131
vn -0.9700 0.0109 -0.2430
vn -0.0950 -0.6882 0.7193
vn 0.3444 0.7320 0.5878
vn 0.5273 -0.3012 -0.7945
vn 0.9700 0.0109 -0.2430
vn 0.0950 -0.6883 0.7192
vn -0.3445 0.7320 0.5877
vn -0.1036 -0.0227 -0.9944
vn -0.3444 0.7320 0.5878
vn -0.5273 -0.3012 -0.7945
vn -0.0950 -0.6883 0.7192
vn 0.1036 -0.0227 -0.9944
vn -0.7642 -0.6350 0.1132
vn -0.3445 0.7321 0.5877
vn -0.1037 -0.0226 -0.9943
vn -0.7643 -0.6349 0.1130
vn 0.0949 -0.6883 0.7192
vn -0.3444 0.7321 0.5878
vn -0.7642 -0.6350 0.1131
vn 0.0950 -0.6882 0.7193
vn -0.7642 -0.6349 0.1130
vn 0.3445 0.7321 0.5877
vn 0.9700 0.0110 -0.2430
vt 0.608959 0.815843
vt 0.668230 0.838438
vt 0.647648 0.755846
vt 0.549149 0.890580
vt 0.549149 0.755846
vt 0.704488 0.871329
vt 0.814075 0.811058
vt 0.889736 0.811058
vt 0.814075 0.765681
vt 0.814075 0.863541
vt 0.872212 0.856292
vt 0.814075 0.896279
vt 0.795286 0.853674
vt 0.713640 0.853674
vt 0.795286 0.897456
vt 0.795286 0.813499
vt 0.549149 0.880614
vt 0.844843 0.681779
vt 0.724926 0.752931
vt 0.905126 0.752931
vt 0.775507 0.686411
vt 0.600125 0.569178
vt 0.703948 0.819000
vt 0.762966 0.801333
vt 0.762471 0.793754
vt 0.721131 0.800662
vt 0.734761 0.785855
vt 0.724145 0.738476
vt 0.691958 0.767089
vt 0.657438 0.798176
vt 0.670496 0.741611
vt 0.788817 0.771434
vt 0.762075 0.787758
vt 0.899164 0.895640
vt 0.616098 0.575338
vt 0.720163 0.649878
vt 0.664951 0.545648
vt 0.642786 0.676345
vt 0.594097 0.634081
vt 0.594471 0.713307
vt 0.552416 0.633080
vt 0.552614 0.713164
vt 0.571469 0.738872
vt 0.552966 0.575481
vt 0.552614 0.740500
vt 0.587739 0.557826
vt 0.899703 0.894749
vt 0.611808 0.737486
vt 0.564836 0.553832
vt 0.730327 0.732525
vt 0.565562 0.560103
vt 0.740580 0.547254
vt 0.753704 0.568672
vt 0.724475 0.568672
vt 0.724475 0.547254
vt 0.833930 0.674046
vt 0.869077 0.551346
vt 0.891067 0.624049
vt 0.779214 0.545846
vt 0.754870 0.631969
vt 0.889098 0.883727
s 0
usemtl material_atlas_00001_1
f 1/1/1 2/2/2 3/3/3
f 1/1/4 4/4/5 2/2/2
f 5/5/6 4/4/7 1/1/1
f 5/5/6 6/1/8 4/4/5
f 7/3/9 6/1/10 5/5/11
f 7/3/12 8/2/13 6/1/14
f 9/6/15 10/6/16 11/6/17
f 9/6/18 12/6/19 10/6/20
f 13/6/21 12/6/19 9/6/15
f 13/6/22 14/6/23 12/6/24
f 8/6/13 14/6/23 13/6/25
f 15/7/26 2/8/27 4/9/28
f 15/7/26 16/10/29 2/8/30
f 8/8/31 16/10/29 15/7/26
f 8/8/31 17/11/32 16/10/29
f 16/10/29 11/11/33 2/8/27
f 16/10/34 9/12/18 11/11/17
f 17/11/35 9/12/18 16/10/34
f 10/6/36 2/6/27 11/6/17
f 10/6/20 18/6/37 2/6/2
f 12/6/24 18/6/37 10/6/38
f 19/13/39 18/14/40 12/15/24
f 19/13/39 20/16/41 18/14/42
f 14/14/43 20/16/44 19/13/45
f 21/1/46 5/5/47 22/3/48
f 21/1/49 20/17/50 5/5/47
f 18/2/37 20/17/41 21/1/51
f 23/1/52 5/5/47 20/17/41
f 23/1/52 24/3/53 5/5/47
f 14/2/54 24/3/53 23/1/55
f 22/18/48 2/19/2 18/20/37
f 22/18/56 3/21/57 2/19/27
f 8/19/13 24/18/53 14/20/54
f 8/19/13 7/21/12 24/18/58
f 17/6/35 13/6/25 9/6/15
f 17/6/35 8/6/13 13/6/59
f 5/22/6 3/22/60 22/22/61
f 5/22/6 24/22/53 7/22/9
f 5/5/6 1/1/62 3/3/63
f 6/1/8 8/2/31 4/4/5
f 4/9/5 8/8/13 15/7/26
f 19/13/39 12/15/24 14/14/54
f 18/2/64 21/1/65 22/3/48
f 23/1/66 20/17/41 14/2/23
f 25/23/67 26/24/68 27/25/69
f 25/23/67 28/25/70 26/24/68
f 29/26/71 28/25/70 25/23/72
f 29/26/73 30/27/74 28/25/75
f 31/28/76 30/27/77 29/26/78
f 31/28/76 32/26/79 30/27/80
f 33/29/81 32/26/79 31/28/76
f 33/29/82 34/30/83 32/26/84
f 35/31/85 34/30/86 33/29/87
f 35/31/88 36/29/89 34/30/83
f 31/28/76 36/29/89 35/31/85
f 31/28/90 29/26/78 36/29/91
f 37/32/92 27/25/69 26/24/68
f 37/32/92 38/33/93 27/25/94
f 28/25/95 38/33/93 37/32/96
f 38/33/93 26/24/97 27/25/94
f 38/33/98 28/25/95 26/24/97
f 29/26/73 34/30/99 36/29/89
f 29/26/71 25/23/67 34/30/100
f 25/23/67 32/26/84 34/30/99
f 25/23/67 27/25/101 32/26/102
f 27/25/101 30/27/103 32/26/84
f 27/25/94 38/33/93 30/27/77
f 37/32/92 26/24/104 28/25/75
f 35/31/105 33/29/82 31/28/106
f 38/33/93 28/25/107 30/27/103
f 39/34/108 40/34/109 41/34/110
f 39/34/108 42/34/111 40/34/112
f 43/34/113 42/34/111 39/34/108
f 43/34/113 44/34/114 42/34/115
f 45/34/116 44/34/114 43/34/117
f 45/34/116 46/34/118 44/34/114
f 47/34/119 46/34/120 45/34/116
f 47/34/121 48/34/122 46/34/120
f 49/34/123 48/34/124 47/34/119
f 49/34/123 50/34/125 48/34/126
f 51/34/127 50/34/128 49/34/123
f 51/34/129 52/34/130 50/34/131
f 41/34/110 52/34/130 51/34/127
f 53/35/132 54/36/133 55/37/134
f 53/35/135 56/38/136 54/36/133
f 57/39/137 56/38/138 53/35/132
f 57/39/139 58/40/140 56/38/138
f 59/41/141 58/40/140 57/39/139
f 59/41/141 60/42/142 58/40/140
f 61/40/143 60/42/144 59/41/145
f 61/40/146 62/43/147 60/42/148
f 63/34/149 54/34/150 64/34/151
f 63/34/149 65/34/152 54/34/153
f 66/34/154 65/34/152 63/34/149
f 66/34/154 67/34/155 65/34/152
f 68/34/156 67/34/155 66/34/154
f 68/34/157 55/34/134 67/34/158
f 69/34/159 55/34/134 68/34/160
f 70/44/161 57/39/137 53/35/132
f 70/44/162 59/41/141 57/39/163
f 71/39/164 59/41/165 70/44/166
f 71/39/167 61/40/143 59/41/145
f 72/38/168 61/40/143 71/39/167
f 44/34/114 73/34/169 42/34/115
f 44/34/170 74/34/171 73/34/169
f 46/34/120 74/34/172 44/34/114
f 46/34/173 48/34/122 74/34/174
f 39/34/108 45/34/116 43/34/113
f 39/34/108 75/34/175 45/34/176
f 41/34/177 75/34/175 39/34/108
f 41/34/177 51/34/129 75/34/175
f 50/34/125 66/34/154 48/34/122
f 50/34/125 76/34/178 66/34/154
f 52/34/179 76/34/180 50/34/125
f 52/34/179 77/34/181 76/34/182
f 60/42/148 78/43/183 58/40/140
f 60/42/148 79/45/184 78/43/183
f 62/43/185 79/45/186 60/42/148
f 80/35/187 71/39/188 70/44/162
f 80/35/189 72/38/190 71/39/188
f 69/36/191 72/38/190 80/35/189
f 55/46/134 70/46/162 53/46/132
f 55/46/134 80/46/187 70/46/162
f 78/47/192 40/47/109 42/47/111
f 78/47/192 79/47/184 40/47/109
f 62/47/193 40/47/109 79/47/186
f 62/47/194 41/47/110 40/47/195
f 51/34/127 45/34/116 75/34/196
f 51/34/127 49/34/123 45/34/116
f 65/34/152 55/34/134 54/34/197
f 65/34/198 67/34/155 55/34/134
f 73/34/199 63/34/149 64/34/151
f 73/34/199 74/34/171 63/34/200
f 74/34/171 66/34/154 63/34/149
f 74/34/171 48/34/124 66/34/154
f 69/34/201 76/34/202 77/34/181
f 69/34/203 68/34/160 76/34/178
f 58/40/204 78/43/205 81/48/206
f 58/49/140 81/49/206 56/49/138
f 61/40/207 82/48/208 62/43/147
f 69/36/203 80/35/187 55/37/209
f 61/49/143 72/49/168 82/49/210
f 49/34/123 47/34/119 45/34/116
f 68/34/160 66/34/154 76/34/211
f 64/50/212 56/38/138 81/48/206
f 64/50/213 54/36/197 56/38/214
f 72/38/168 77/50/181 82/48/208
f 72/38/215 69/36/159 77/50/216
f 83/46/217 84/46/218 85/46/219
f 83/46/220 86/46/221 84/46/218
f 87/46/222 86/46/221 83/46/217
f 88/46/223 89/46/224 90/46/225
f 88/46/223 91/46/226 89/46/227
f 92/46/228 91/46/229 88/46/230
f 86/51/231 85/51/232 84/51/233
f 86/51/234 87/51/235 85/51/232
f 89/51/227 92/51/236 90/51/237
f 89/51/227 91/51/238 92/51/239
f 85/46/232 87/46/240 83/46/217
f 92/46/241 88/46/242 90/46/243
f 93/52/244 94/53/245 95/53/246
f 93/52/247 96/54/248 94/53/249
f 97/55/250 96/54/248 93/52/251
f 97/55/250 98/52/252 96/54/248
f 99/54/253 98/52/254 97/55/255
f 99/54/253 100/53/256 98/52/257
f 101/53/258 98/52/254 100/53/259
f 101/53/260 96/54/248 98/52/252
f 99/54/253 93/52/251 95/53/261
f 99/54/253 97/55/262 93/52/263
f 102/56/264 103/57/265 104/58/266
f 102/56/264 105/59/267 103/57/268
f 106/60/269 105/59/270 102/56/271
f 107/61/272 108/61/273 109/61/274
f 107/61/272 110/61/275 108/61/273
f 111/61/276 110/61/277 107/61/272
f 112/61/278 105/61/279 106/61/269
f 112/61/278 103/61/268 105/61/270
f 104/61/280 103/61/268 112/61/278
f 113/57/281 110/56/282 111/58/283
f 113/57/284 109/59/285 110/56/286
f 107/61/272 113/61/287 111/61/276
f 107/61/272 109/61/288 113/61/289
f 112/61/278 102/61/271 104/61/280
f 112/61/278 106/61/269 102/61/290
f 108/60/291 110/56/277 109/59/288
o Pii_KORATTA_eye2
v 1.108629 -0.663120 2.457287
v -0.108636 -0.663120 2.457287
v 1.481159 -0.816782 1.892056
v 0.674743 -1.213544 2.857793
v -0.601455 -1.417430 1.899112
v -0.481159 -0.816782 1.892056
v 1.601455 -1.417430 1.899112
v 0.325891 -1.213011 2.857604
v -0.198999 -1.247531 2.496502
v 1.198999 -1.247531 2.496502
vn -0.7325 0.2465 0.6346
vn -0.9350 0.3138 0.1650
vn -0.9693 -0.0301 0.2441
vn -0.6441 0.4034 0.6500
vn -0.3986 0.4835 0.7793
vn -0.6440 0.4034 0.6500
vn 0.9350 0.3138 0.1650
vn 0.7326 0.2465 0.6345
vn 0.9693 -0.0301 0.2442
vn 0.9350 0.3138 0.1651
vn 0.6441 0.4034 0.6499
vn 0.7325 0.2465 0.6345
vn 0.3985 0.4837 0.7792
vt 0.170631 0.759427
vt 0.295436 0.876750
vt 0.302348 0.744761
vt 0.167419 0.892533
vt 0.248153 0.765865
vt 0.345183 0.892533
vt 0.348394 0.759427
s 0
usemtl material_atlas_00001_1
f 122/62/292 119/63/293 118/64/294
f 122/62/292 115/65/295 119/63/293
f 121/66/296 115/67/297 122/68/292
f 116/63/298 123/62/299 120/64/300
f 116/63/301 114/65/302 123/62/299
f 123/68/303 114/67/302 117/66/304
