# Blender 4.2.1 LTS
# www.blender.org
mtllib venusaur.mtl
o polygon0
v 2.242285 -1.498256 -0.023332
v 1.499168 -1.142301 0.573360
v 1.518030 -1.468027 -0.737128
v 0.508900 -1.288928 -0.100303
v 0.484148 -0.906954 1.634864
v -0.127604 -0.939387 0.831415
v 1.117389 -0.938180 0.849027
v -1.225560 -1.501626 -0.072395
v -0.481459 -1.469972 -0.765417
v -0.500317 -1.144242 0.545072
v 0.532577 -1.918188 -1.730595
v 1.145316 -1.546685 -1.057448
v -0.099680 -1.547896 -1.075059
v 0.902718 -1.470258 -0.028678
v 0.916574 -0.342178 -0.284149
v 0.705674 -1.545637 -0.361541
v 0.712604 -0.420209 -0.628713
v 0.705674 -1.394874 0.304180
v 0.712604 -0.264148 0.060418
v 0.311586 -1.394874 0.304180
v 0.304656 -0.264148 0.060418
v 0.114543 -1.470258 -0.028678
v 0.100686 -0.342178 -0.284149
v 0.311586 -1.545637 -0.361541
v 0.304656 -0.420209 -0.628713
v 0.508630 -0.444175 -0.261048
v 0.884630 -0.375091 1.145773
v 1.743355 -0.525512 0.500787
v 0.613775 -0.410675 0.442606
v 1.155617 -0.503753 0.040882
v 0.508849 -0.858470 -0.165466
v 1.763212 -0.853152 -0.884434
v 0.913264 -1.006145 -1.540343
v 1.156446 -0.631431 -0.494887
v 0.625508 -0.727708 -0.910190
v 0.507769 -0.858280 -0.164672
v 0.151766 -1.011742 -1.557919
v -0.716000 -0.861284 -0.925162
v 0.413055 -0.728986 -0.909190
v -0.134419 -0.634757 -0.515447
v 0.508400 -0.858089 -0.163850
v -0.820351 -0.817750 -0.734080
v -0.817148 -0.567805 0.321172
v -0.105888 -0.647276 -0.562181
v -0.108257 -0.489774 0.100258
v 0.509158 -0.858121 -0.163997
v -0.732905 -0.527275 0.499497
v 0.129260 -0.375119 1.139462
v -0.134133 -0.505202 0.041180
v 0.404537 -0.408302 0.446250
v 0.509492 -0.858280 -0.164660
v 1.838286 -0.568305 0.325241
v 1.833737 -0.815483 -0.730654
v 1.123565 -0.492243 0.096205
v 1.125089 -0.646875 -0.566916
v 0.508102 -0.858434 -0.165319
v 2.242285 -1.498256 -0.023332
v 1.499168 -1.142301 0.573360
v 1.518030 -1.468027 -0.737128
v 0.508900 -1.288928 -0.100303
v 0.484148 -0.906954 1.634864
v -0.127604 -0.939387 0.831415
v 1.117389 -0.938180 0.849027
v -1.225560 -1.501626 -0.072395
v -0.481459 -1.469972 -0.765417
v -0.500317 -1.144242 0.545072
v 0.532577 -1.918188 -1.730595
v 1.145316 -1.546685 -1.057448
v -0.099680 -1.547896 -1.075059
v 0.884630 -0.375091 1.145773
v 1.743355 -0.525512 0.500787
v 0.613775 -0.410675 0.442606
v 1.155617 -0.503753 0.040882
v 0.508849 -0.858470 -0.165466
v 1.763212 -0.853152 -0.884434
v 0.913264 -1.006145 -1.540343
v 1.156446 -0.631431 -0.494887
v 0.625508 -0.727708 -0.910190
v 0.507769 -0.858280 -0.164672
v 0.151766 -1.011742 -1.557919
v -0.716000 -0.861284 -0.925162
v 0.413055 -0.728986 -0.909190
v -0.134419 -0.634757 -0.515447
v 0.508400 -0.858089 -0.163850
v -0.820351 -0.817750 -0.734080
v -0.817148 -0.567805 0.321172
v -0.105888 -0.647276 -0.562181
v -0.108257 -0.489774 0.100258
v 0.509158 -0.858121 -0.163997
v -0.732905 -0.527275 0.499497
v 0.129260 -0.375119 1.139462
v -0.134133 -0.505202 0.041180
v 0.404537 -0.408302 0.446250
v 0.509492 -0.858280 -0.164660
v 1.838286 -0.568305 0.325241
v 1.833737 -0.815483 -0.730654
v 1.123565 -0.492243 0.096205
v 1.125089 -0.646875 -0.566916
v 0.508102 -0.858434 -0.165319
vn 0.1436 0.9609 -0.2368
vn 0.2648 0.9367 -0.2290
vn 0.0202 0.9703 -0.2409
vn 0.0018 0.9804 -0.1969
vn -0.0004 0.9992 -0.0400
vn 0.0040 0.9372 -0.3488
vn 0.0018 0.9804 -0.1970
vn -0.1388 0.9606 -0.2408
vn -0.2600 0.9362 -0.2364
vn -0.0153 0.9703 -0.2414
vn -0.1387 0.9606 -0.2408
vn 0.0044 0.9267 -0.3758
vn 0.0060 0.8732 -0.4874
vn 0.0027 0.9660 -0.2583
vn 0.0044 0.9267 -0.3757
vn 0.4307 -0.6600 -0.6155
vn 0.5473 0.8163 -0.1848
vn 0.8615 -0.4952 0.1121
vn 0.2737 0.7116 -0.6471
vn 0.2736 0.9210 0.2774
vn 0.4307 -0.3304 0.8398
vn -0.2737 0.9210 0.2774
vn -0.4307 -0.3304 0.8398
vn -0.5473 0.8162 -0.1849
vn -0.8615 -0.4952 0.1121
vn -0.2736 0.7116 -0.6472
vn -0.4307 -0.6600 -0.6155
vn -0.0000 0.9753 -0.2209
vn 0.0188 -0.9679 0.2508
vn -0.1053 -0.9904 0.0892
vn 0.0838 -0.9400 0.3308
vn 0.0188 -0.9678 0.2508
vn 0.2647 -0.7977 0.5418
vn 0.0189 -0.9678 0.2509
vn 0.0171 -0.9784 0.2061
vn -0.1106 -0.9271 0.3580
vn 0.0832 -0.9889 0.1230
vn -0.1107 -0.9271 0.3580
vn 0.2705 -0.9546 -0.1245
vn 0.0832 -0.9889 0.1229
vn 0.0171 -0.9784 0.2060
vn -0.0185 -0.9781 0.2072
vn 0.1033 -0.9258 0.3636
vn -0.0823 -0.9891 0.1223
vn -0.2599 -0.9565 -0.1324
vn -0.0824 -0.9891 0.1222
vn -0.0186 -0.9781 0.2071
vn -0.0291 -0.9726 0.2305
vn 0.1753 -0.9579 0.2274
vn -0.1355 -0.9640 0.2287
vn 0.1754 -0.9579 0.2274
vn -0.4344 -0.8766 0.2069
vn -0.1356 -0.9640 0.2287
vn -0.0292 -0.9726 0.2305
vn -0.0166 -0.9675 0.2524
vn 0.1081 -0.9899 0.0913
vn -0.0812 -0.9395 0.3327
vn 0.1082 -0.9899 0.0913
vn -0.2642 -0.7977 0.5422
vn -0.0813 -0.9395 0.3328
vn -0.0167 -0.9675 0.2525
vn 0.0291 -0.9733 0.2277
vn -0.1753 -0.9586 0.2242
vn 0.4345 -0.8769 0.2055
vn 0.1356 -0.9648 0.2253
vn 0.0292 -0.9733 0.2277
vn -0.1355 0.9648 -0.2253
vn -0.0291 0.9733 -0.2277
vn 0.1754 0.9586 -0.2241
vn -0.1437 -0.9609 0.2367
vn -0.2648 -0.9367 0.2290
vn -0.1437 -0.9609 0.2368
vn -0.0202 -0.9703 0.2409
vn -0.1436 -0.9609 0.2368
vn -0.0018 -0.9804 0.1968
vn 0.0004 -0.9992 0.0400
vn -0.0040 -0.9372 0.3488
vn -0.0018 -0.9804 0.1970
vn 0.1388 -0.9606 0.2408
vn 0.2600 -0.9362 0.2364
vn 0.0153 -0.9703 0.2414
vn 0.1387 -0.9606 0.2408
vn -0.0044 -0.9267 0.3758
vn -0.0060 -0.8732 0.4874
vn -0.0027 -0.9660 0.2583
vn -0.0044 -0.9267 0.3757
vn -0.0188 0.9679 -0.2508
vn 0.1053 0.9904 -0.0890
vn -0.0838 0.9400 -0.3307
vn 0.1053 0.9904 -0.0891
vn -0.2647 0.7977 -0.5418
vn -0.0189 0.9678 -0.2509
vn -0.0838 0.9399 -0.3309
vn -0.0171 0.9784 -0.2061
vn 0.1105 0.9272 -0.3580
vn -0.0831 0.9889 -0.1230
vn 0.1107 0.9271 -0.3580
vn -0.2705 0.9546 0.1245
vn -0.0171 0.9784 -0.2060
vn -0.0832 0.9889 -0.1228
vn 0.0185 0.9781 -0.2072
vn -0.1033 0.9258 -0.3636
vn 0.0823 0.9891 -0.1224
vn -0.1033 0.9259 -0.3635
vn 0.2599 0.9565 0.1324
vn 0.0186 0.9781 -0.2071
vn 0.0824 0.9891 -0.1222
vn 0.0291 0.9727 -0.2304
vn -0.1753 0.9579 -0.2274
vn 0.1355 0.9640 -0.2287
vn 0.0291 0.9726 -0.2305
vn -0.1754 0.9579 -0.2274
vn 0.4344 0.8766 -0.2069
vn 0.0292 0.9726 -0.2305
vn 0.1356 0.9640 -0.2287
vn 0.0166 0.9675 -0.2523
vn -0.1080 0.9899 -0.0913
vn 0.0812 0.9395 -0.3327
vn -0.1081 0.9899 -0.0913
vn 0.2642 0.7977 -0.5422
vn 0.0167 0.9675 -0.2525
vn 0.0813 0.9395 -0.3328
vn 0.1753 0.9586 -0.2242
vn -0.4345 0.8769 -0.2055
vn -0.0292 0.9733 -0.2277
vn -0.1356 0.9648 -0.2253
vn 0.1355 -0.9648 0.2253
vn -0.1755 -0.9586 0.2241
vt 0.819202 0.782974
vt 0.898788 0.782974
vt 0.859930 0.810426
vt 0.859930 0.729174
vt 0.770018 0.550918
vt 0.729279 0.655512
vt 0.729279 0.550918
vt 0.770018 0.655512
vt 0.752416 0.551545
vt 0.731452 0.653945
vt 0.746805 0.653945
vt 0.738501 0.680726
vt 0.902886 0.824773
vt 0.822932 0.891526
vt 0.820780 0.817540
vt 0.892453 0.900835
vt 0.902886 0.851976
s 1
usemtl material_atlas_00015_1
f 3/1/1 2/2/1 1/3/2
f 4/4/3 2/2/1 3/1/1
f 7/1/4 6/2/4 5/3/5
f 4/4/6 6/2/7 7/1/7
f 10/1/8 9/2/8 8/3/9
f 4/4/10 9/2/11 10/1/11
f 13/1/12 12/2/12 11/3/13
f 4/4/14 12/2/15 13/1/15
f 16/5/16 15/6/17 14/7/18
f 17/8/19 15/6/17 16/5/16
f 14/5/18 19/6/20 18/7/21
f 15/8/17 19/6/20 14/5/18
f 18/5/21 21/6/22 20/7/23
f 19/8/20 21/6/22 18/5/21
f 20/5/23 23/6/24 22/7/25
f 21/8/22 23/6/24 20/5/23
f 22/5/25 25/6/26 24/7/27
f 23/8/24 25/6/26 22/5/25
f 24/5/27 17/6/19 16/7/16
f 25/8/26 17/6/19 24/5/27
f 20/9/23 14/9/18 18/9/21
f 22/9/25 14/9/18 20/9/23
f 24/9/27 14/9/18 22/9/25
f 16/9/16 14/9/18 24/9/27
f 15/10/17 17/11/19 26/12/28
f 19/10/20 15/11/17 26/12/28
f 21/10/22 19/11/20 26/12/28
f 23/10/24 21/11/22 26/12/28
f 25/10/26 23/11/24 26/12/28
f 17/10/19 25/11/26 26/12/28
f 29/13/29 28/14/30 27/15/30
f 30/16/31 28/14/30 29/13/32
f 31/17/33 30/16/31 29/13/34
f 34/13/35 33/14/36 32/15/36
f 35/16/37 33/14/38 34/13/35
f 36/17/39 35/16/40 34/13/41
f 39/13/42 38/14/43 37/15/43
f 40/16/44 38/14/43 39/13/42
f 41/17/45 40/16/46 39/13/47
f 44/13/48 43/14/49 42/15/49
f 45/16/50 43/14/51 44/13/48
f 46/17/52 45/16/53 44/13/54
f 49/13/55 48/14/56 47/15/56
f 50/16/57 48/14/58 49/13/55
f 51/17/59 50/16/60 49/13/61
f 54/13/62 53/14/63 52/15/63
f 56/17/64 55/16/65 54/13/66
f 55/16/67 54/13/68 53/14/69
f 59/1/70 57/3/71 58/2/72
f 60/4/73 59/1/74 58/2/74
f 63/1/75 61/3/76 62/2/75
f 60/4/77 63/1/78 62/2/78
f 66/1/79 64/3/80 65/2/79
f 60/4/81 66/1/82 65/2/82
f 69/1/83 67/3/84 68/2/83
f 60/4/85 69/1/86 68/2/86
f 72/13/87 70/15/88 71/14/88
f 73/16/89 72/13/87 71/14/90
f 74/17/91 72/13/92 73/16/93
f 77/13/94 75/15/95 76/14/95
f 78/16/96 77/13/94 76/14/97
f 79/17/98 77/13/99 78/16/100
f 82/13/101 80/15/102 81/14/102
f 83/16/103 82/13/101 81/14/104
f 84/17/105 82/13/106 83/16/107
f 87/13/108 85/15/109 86/14/109
f 88/16/110 87/13/111 86/14/112
f 89/17/113 87/13/114 88/16/115
f 92/13/116 90/15/117 91/14/117
f 93/16/118 92/13/116 91/14/119
f 94/17/120 92/13/121 93/16/122
f 97/13/68 95/15/123 96/14/123
f 99/17/124 97/13/125 98/16/126
f 98/16/127 96/14/128 97/13/62
o polygon5
v 1.691088 -2.953243 -0.465353
v 0.508630 -2.609826 -0.737629
v 1.454018 -2.655911 0.217184
v 0.508630 -2.719991 0.184350
v 0.508630 -2.719405 0.810919
v -0.436758 -2.655911 0.217184
v -0.436758 -2.620377 0.793517
v 0.508630 -1.589834 -0.553842
v 1.406630 -1.589834 -0.165053
v 0.508630 -1.295747 0.079229
v 1.211948 -1.589834 1.154902
v 0.508630 -1.368955 1.021287
v 0.508630 -1.589834 1.557810
v -0.194687 -1.589834 1.154902
v -0.673827 -2.953243 -0.465353
v -0.709395 -2.110125 -0.283884
v -0.501448 -2.110125 1.213997
v -0.378819 -2.953241 1.295914
v 0.508630 -2.110125 -0.757382
v 1.726656 -2.110125 -0.283884
v 1.454018 -2.620377 0.793521
v 1.518708 -2.110125 1.213997
v 1.396080 -2.953241 1.295914
v 0.508630 -2.612188 1.606575
v 0.508630 -2.110125 1.620441
v -0.389369 -1.589834 -0.165053
vn 0.3799 -0.9131 0.1478
vn -0.0000 -0.9214 -0.3886
vn 0.6079 -0.4585 -0.6483
vn -0.0000 -0.9983 -0.0589
vn -0.0000 -0.9956 -0.0940
vn -0.3799 -0.9131 0.1478
vn -0.6790 -0.7249 -0.1161
vn -0.0000 0.9946 -0.1042
vn 0.5015 0.8055 -0.3156
vn -0.0000 0.6127 -0.7903
vn 0.4782 0.8088 0.3423
vn -0.0000 0.9724 0.2334
vn -0.0000 0.6695 0.7428
vn -0.4782 0.8088 0.3423
vn -0.8564 0.2333 -0.4605
vn -0.6079 -0.4585 -0.6483
vn -0.8636 0.0750 0.4985
vn -0.4883 -0.8399 0.2370
vn -0.0000 0.1730 -0.9849
vn 0.8564 0.2333 -0.4605
vn 0.6790 -0.7249 -0.1161
vn 0.8636 0.0750 0.4985
vn 0.4883 -0.8399 0.2370
vn -0.0000 -0.6571 0.7538
vn -0.0000 0.1313 0.9913
vn -0.5015 0.8055 -0.3156
vt 0.573652 0.561124
vt 0.601633 0.825854
vt 0.565035 0.862680
vt 0.552795 0.805798
vt 0.668894 0.862680
vt 0.640523 0.828255
vt 0.674419 0.805798
vt 0.733820 0.783018
vt 0.674419 0.726136
vt 0.733820 0.750117
vt 0.662180 0.783018
vt 0.733820 0.818124
vt 0.679414 0.818124
vt 0.628371 0.746192
vt 0.589480 0.748592
vt 0.561110 0.783018
vt 0.555585 0.726136
vt 0.734933 0.834180
vt 0.678819 0.866421
vt 0.694226 0.809539
vt 0.734933 0.866421
vt 0.775640 0.809539
vt 0.791047 0.866421
vt 0.734933 0.873654
vt 0.773997 0.873654
vt 0.695859 0.873654
vt 0.752103 0.726136
vt 0.791934 0.783018
vt 0.791934 0.750117
vt 0.736696 0.783018
vt 0.791934 0.818124
vt 0.753735 0.818124
vt 0.565099 0.818124
vt 0.654157 0.818124
vt 0.573057 0.897786
vt 0.664904 0.897786
s 1
usemtl material_atlas_00015_1
f 102/18/129 101/18/130 100/18/131
f 103/18/132 101/18/130 102/18/129
f 104/18/133 103/18/132 102/18/129
f 105/18/134 103/18/132 104/18/133
f 106/18/135 105/18/134 104/18/133
f 109/18/136 108/18/137 107/18/138
f 110/18/139 108/18/137 109/18/136
f 111/18/140 110/18/139 109/18/136
f 112/18/141 110/18/139 111/18/140
f 113/18/142 112/18/141 111/18/140
f 105/19/134 115/20/143 114/21/144
f 116/22/145 115/20/143 105/19/134
f 106/23/135 116/22/145 105/19/134
f 117/24/146 116/22/145 106/23/135
f 118/25/147 100/26/131 101/27/130
f 119/28/148 100/26/131 118/25/147
f 107/29/138 119/28/148 118/25/147
f 108/30/137 119/28/148 107/29/138
f 119/28/148 102/31/129 100/26/131
f 120/32/149 102/31/129 119/28/148
f 121/33/150 120/32/149 119/28/148
f 122/34/151 120/32/149 121/33/150
f 123/35/152 116/36/145 117/37/146
f 124/38/153 116/36/145 123/35/152
f 122/39/151 124/38/153 123/35/152
f 121/40/150 124/38/153 122/39/151
f 112/41/141 121/40/150 110/42/139
f 124/38/153 121/40/150 112/41/141
f 113/43/142 124/38/153 112/41/141
f 116/36/145 124/38/153 113/43/142
f 104/18/133 117/18/146 106/18/135
f 123/18/152 117/18/146 104/18/133
f 122/18/151 123/18/152 104/18/133
f 109/18/136 113/18/142 111/18/140
f 125/18/154 113/18/142 109/18/136
f 107/18/138 125/18/154 109/18/136
f 114/44/144 118/45/147 101/46/130
f 115/47/143 118/45/147 114/44/144
f 105/18/134 101/18/130 103/18/132
f 114/18/144 101/18/130 105/18/134
f 104/18/133 120/18/149 122/18/151
f 102/18/129 120/18/149 104/18/133
f 115/47/143 107/48/138 118/45/147
f 125/49/154 107/48/138 115/47/143
f 119/28/148 110/50/139 121/33/150
f 108/51/137 110/50/139 119/28/148
f 116/22/145 125/52/154 115/20/143
f 113/53/142 125/52/154 116/22/145
o polygon6
v 1.296008 -1.454734 1.902532
v 1.120235 -1.521246 2.477743
v 1.025974 -1.216835 2.041157
v 0.508630 -1.203859 2.446489
v 0.508630 -1.001493 1.954938
v -0.008590 -1.216815 2.041161
v 0.201171 -1.103418 1.520705
v -0.358080 -1.080849 1.852508
v -0.102851 -1.382486 1.277666
v -0.278747 -1.454734 1.902532
v -0.489918 -1.914790 1.849341
v 0.816090 -1.103418 1.520705
v 0.508630 -1.305551 1.132560
v 0.508630 -1.796809 0.828938
v -0.178275 -1.932366 1.116131
v -0.107956 -2.414800 1.158129
v -0.491116 -2.374846 1.796149
v -0.027162 -2.711344 1.754734
v 1.120112 -1.382486 1.277666
v 1.195535 -1.932366 1.116131
v 0.510154 -2.272385 0.909978
v 1.125371 -2.414820 1.158308
v 0.510154 -2.652354 1.244531
v 1.044415 -2.711348 1.754758
v 0.510154 -2.785497 1.746161
v 0.508630 -1.551174 2.736603
v -0.102851 -1.521246 2.477775
v 1.120112 -2.464939 2.575346
v 0.508630 -2.495085 2.836068
v 0.861668 -2.013790 2.705556
v 0.508630 -2.027595 2.824974
v 0.155592 -2.013790 2.705556
v 1.375340 -1.080849 1.852508
v 1.507178 -1.914790 1.849341
v 1.508377 -2.374846 1.796149
v 0.861668 -2.694539 2.277937
v 0.155592 -2.694539 2.277937
v -0.102851 -2.464939 2.575346
v -0.240552 -2.621390 2.259353
v -0.298065 -2.419642 2.183934
v -0.192179 -2.444220 2.395648
v 1.315326 -2.419642 2.183934
v 1.257812 -2.621390 2.259353
v 1.209439 -2.444220 2.395648
vn 0.3917 0.8031 0.4491
vn 0.6219 0.4677 0.6281
vn 0.9264 0.2912 0.2388
vn -0.0000 0.8249 0.5652
vn -0.0000 0.9917 0.1289
vn -0.3916 0.8031 0.4491
vn -0.1258 0.9550 -0.2686
vn -0.6918 0.7044 0.1588
vn -0.6451 0.4631 -0.6078
vn -0.9264 0.2912 0.2389
vn -0.9746 0.2215 0.0318
vn 0.1258 0.9550 -0.2686
vn -0.0000 0.7239 -0.6899
vn -0.0546 0.1895 -0.9804
vn -0.7462 0.0632 -0.6627
vn -0.4786 -0.5153 -0.7110
vn -0.8926 -0.4507 0.0083
vn -0.3566 -0.9241 -0.1372
vn 0.6451 0.4631 -0.6078
vn 0.6881 0.0249 -0.7252
vn 0.0787 -0.3791 -0.9220
vn 0.4955 -0.5817 -0.6450
vn 0.0006 -0.8723 -0.4889
vn 0.3571 -0.9240 -0.1370
vn 0.0003 -0.9993 -0.0372
vn -0.0000 0.3658 0.9307
vn -0.6219 0.4678 0.6280
vn 0.3898 0.0937 0.9161
vn -0.0000 -0.4754 0.8797
vn 0.5990 -0.4276 0.6770
vn -0.0000 0.1035 0.9946
vn -0.0000 0.3657 0.9307
vn -0.3899 0.0937 0.9161
vn 0.6918 0.7044 0.1588
vn 0.9746 0.2215 0.0318
vn 0.2543 -0.9347 0.2482
vn 0.8926 -0.4507 0.0083
vn -0.2542 -0.9348 0.2482
vn -0.5992 -0.4274 0.6770
vn -0.8948 -0.0918 0.4369
vn 0.8948 -0.0918 0.4369
vt 0.567943 0.664259
vt 0.865931 0.632623
vt 0.815547 0.568379
vt 0.902810 0.568379
vt 0.815547 0.632623
vt 0.815547 0.696879
vt 0.798291 0.632623
vt 0.669737 0.562043
vt 0.725322 0.636537
vt 0.596757 0.636537
vt 0.713050 0.588878
vt 0.713050 0.594101
vt 0.697254 0.639597
vt 0.640934 0.699203
vt 0.722867 0.723152
vt 0.642859 0.636537
vt 0.552114 0.636537
vt 0.611688 0.562043
vt 0.558656 0.636537
vt 0.558656 0.562043
vt 0.717472 0.559719
s 1
usemtl material_atlas_00015_1
f 128/54/155 127/54/156 126/54/157
f 129/54/158 127/54/156 128/54/155
f 130/54/159 129/54/158 128/54/155
f 131/54/160 129/54/158 130/54/159
f 132/54/161 131/54/160 130/54/159
f 133/54/162 131/54/160 132/54/161
f 134/54/163 133/54/162 132/54/161
f 135/54/164 133/54/162 134/54/163
f 136/54/165 135/54/164 134/54/163
f 137/54/166 130/54/159 128/54/155
f 132/54/161 130/54/159 137/54/166
f 138/54/167 132/54/161 137/54/166
f 134/54/163 132/54/161 138/54/167
f 139/54/168 134/54/163 138/54/167
f 140/54/169 134/54/163 139/54/168
f 141/54/170 140/54/169 139/54/168
f 142/54/171 140/54/169 141/54/170
f 143/54/172 142/54/171 141/54/170
f 144/54/173 138/54/167 137/54/166
f 139/54/168 138/54/167 144/54/173
f 145/54/174 139/54/168 144/54/173
f 146/54/175 139/54/168 145/54/174
f 147/54/176 146/54/175 145/54/174
f 148/54/177 146/54/175 147/54/176
f 149/54/178 148/54/177 147/54/176
f 150/54/179 148/54/177 149/54/178
f 129/54/158 151/54/180 127/54/156
f 152/54/181 151/54/180 129/54/158
f 131/54/160 152/54/181 129/54/158
f 135/54/164 152/54/181 131/54/160
f 155/55/182 154/56/183 153/57/184
f 156/58/185 154/56/183 155/55/182
f 151/59/186 156/58/185 155/55/182
f 157/60/187 156/58/185 151/59/186
f 158/54/188 137/54/166 128/54/155
f 144/54/173 137/54/166 158/54/188
f 126/54/157 144/54/173 158/54/188
f 159/54/189 144/54/173 126/54/157
f 161/61/190 160/62/191 153/63/184
f 149/64/178 160/62/191 161/61/190
f 150/65/179 149/64/178 161/61/190
f 162/61/192 150/65/179 161/61/190
f 143/64/172 150/65/179 162/61/192
f 142/62/171 143/64/172 162/61/192
f 159/54/189 145/54/174 144/54/173
f 160/54/191 145/54/174 159/54/189
f 140/54/169 136/54/165 134/54/163
f 142/54/171 136/54/165 140/54/169
f 160/54/191 147/54/176 145/54/174
f 149/54/178 147/54/176 160/54/191
f 146/54/175 141/54/170 139/54/168
f 148/54/177 141/54/170 146/54/175
f 148/54/177 143/54/172 141/54/170
f 150/54/179 143/54/172 148/54/177
f 135/66/164 131/67/160 133/68/162
f 128/67/155 126/66/157 158/68/188
f 163/57/193 154/56/183 157/55/187
f 156/58/185 157/60/187 154/56/183
f 153/69/184 154/70/183 161/71/190
f 154/72/183 162/73/192 161/73/190
f 163/69/193 162/71/192 154/70/183
f 163/63/193 142/62/171 162/61/192
s 0
f 166/74/194 165/74/194 164/74/194
f 169/74/195 168/74/195 167/74/195
o polygon7
v 1.296008 -1.454734 1.902532
v 1.507178 -1.914790 1.849341
v 1.120235 -1.521246 2.477743
v 1.196499 -1.993059 2.526259
v 0.861668 -2.013790 2.705556
v 1.120112 -2.464939 2.575346
v 0.508630 -1.551174 2.736603
v 0.155592 -2.013790 2.705556
v -0.102851 -1.521246 2.477775
v -0.179195 -1.993039 2.526108
v -0.489918 -1.914790 1.849341
v -0.491116 -2.374846 1.796149
v 1.508377 -2.374846 1.796149
v -0.102851 -2.464939 2.575346
v -0.278747 -1.454734 1.902532
vn 0.6219 0.4677 0.6281
vn 0.9746 0.2215 0.0318
vn 0.9264 0.2912 0.2389
vn 0.7659 0.0468 0.6413
vn 0.3898 0.0937 0.9161
vn 0.5991 -0.4275 0.6770
vn -0.6220 0.4677 0.6281
vn -0.3899 0.0937 0.9161
vn -0.0000 0.3657 0.9307
vn -0.7659 0.0469 0.6412
vn -0.9746 0.2215 0.0319
vn -0.8926 -0.4507 0.0084
vn 0.8926 -0.4507 0.0084
vn -0.5992 -0.4274 0.6770
vn -0.9263 0.2912 0.2390
vt 0.180781 0.901971
vt 0.298783 0.799271
vt 0.298783 0.902857
vt 0.177703 0.798385
vt 0.265467 0.798385
vt 0.352826 0.798385
vt 0.355904 0.901971
vt 0.323646 0.694755
vt 0.203527 0.901971
vt 0.298783 0.695641
vt 0.148523 0.694755
s 1
usemtl material_atlas_00015_1
f 172/75/196 171/76/197 170/77/198
f 173/78/199 171/76/197 172/75/196
f 174/79/200 173/80/199 172/81/196
f 175/82/201 173/80/199 174/79/200
f 178/81/202 177/79/203 176/83/204
f 179/80/205 177/79/203 178/81/202
f 180/76/206 179/78/205 178/75/202
f 181/84/207 179/78/205 180/76/206
f 173/78/199 182/84/208 171/76/197
f 175/85/201 182/84/208 173/78/199
f 179/80/205 183/82/209 177/79/203
f 181/84/207 183/85/209 179/78/205
f 172/81/196 176/83/204 174/79/200
f 184/77/210 180/76/206 178/75/202
