# Blender 4.2.1 LTS
# www.blender.org
mtllib wartortle.mtl
o Pii_KAMEERU_body2
v 0.850915 -1.372215 1.719001
v 1.001049 -1.883443 1.977354
v 1.201835 -1.372215 1.143245
v 1.502099 -2.064213 1.192962
v -0.201835 -1.372215 1.143245
v -0.502099 -2.064213 1.192962
v 0.149085 -1.372215 1.719001
v -0.001049 -1.883443 1.977354
v 0.500000 -1.284273 1.143245
v 0.702463 -1.321721 0.969544
v 0.297537 -1.321721 0.969544
v 1.107384 -1.386981 0.969544
v 1.378039 -2.110591 1.027133
v 1.347523 -2.453173 0.866504
v 1.422686 -2.595881 1.001123
v 0.975838 -2.715207 0.401606
v -0.107384 -1.386981 0.969544
v -0.378039 -2.110591 1.027133
v -0.422686 -2.595881 1.001123
v 0.500000 -2.842584 1.192962
v 0.975838 -2.715207 1.976773
v 0.024162 -2.715207 1.976773
v 0.024168 -2.715207 0.401606
v -0.347523 -2.453173 0.866504
v 0.011556 -2.551625 0.353332
v 0.988444 -2.551625 0.353332
v 1.001049 -2.317789 0.305059
v 0.850915 -1.409006 0.541501
v -0.001049 -2.317789 0.305059
v 0.149085 -1.409006 0.541501
vn 0.3013 -0.6316 0.7143
vn -0.4733 -0.6670 0.5754
vn -0.0000 -0.9999 -0.0108
vn 0.3012 -0.6317 0.7143
vn -0.1583 -0.0288 0.9870
vn 0.3040 -0.0003 0.9527
vn 0.2989 0.1919 0.9348
vn -0.0543 0.8012 0.5960
vn -0.1469 0.1847 0.9718
vn 0.0651 0.8576 0.5103
vn -0.0542 0.8012 0.5960
vn 0.2990 0.1920 0.9348
vn 0.0001 0.9994 -0.0334
vn 0.0651 0.8575 0.5103
vn 0.6038 0.7540 -0.2587
vn -0.0000 0.9994 -0.0334
vn 0.0651 0.8576 0.5102
vn -0.6038 0.7540 -0.2586
vn -0.0001 0.9994 -0.0334
vn 0.9138 -0.4055 -0.0222
vn 0.4215 -0.4910 0.7624
vn 0.9138 -0.4056 -0.0222
vn 0.9553 -0.0905 -0.2813
vn -0.9885 -0.1220 -0.0896
vn -0.8963 -0.3263 -0.3004
vn -0.6094 -0.5310 0.5888
vn -0.9885 -0.1221 -0.0896
vn -0.2135 -0.7205 -0.6598
vn 0.3938 -0.7036 -0.5915
vn -0.0000 -0.9999 -0.0109
vn 0.4882 0.0218 -0.8725
vn 0.8055 0.2444 -0.5399
vn 0.8371 -0.0141 -0.5469
vn 0.3748 0.6240 -0.6857
vn -0.4863 0.1100 -0.8668
vn -0.3714 0.7686 -0.5209
vn 0.3749 0.6239 -0.6857
vn -0.8284 0.2079 -0.5201
vn -0.3714 0.7686 -0.5208
vn -0.4905 0.8162 -0.3055
vn -0.8636 0.0024 -0.5041
vn -0.4863 0.1099 -0.8668
vn -0.4605 -0.2186 -0.8603
vn -0.8636 0.0023 -0.5041
vn 0.3689 -0.2573 -0.8931
vn 0.8370 -0.0142 -0.5469
vn 0.4882 0.0218 -0.8724
vn -0.0796 0.9860 -0.1465
vn 0.0636 0.9855 -0.1573
vn 0.0637 0.9855 -0.1573
vn 0.4904 0.8162 -0.3055
vn 0.4904 0.8162 -0.3056
vn 0.3748 0.6239 -0.6857
vt 0.240539 0.684879
vt 0.138924 0.684879
vt 0.189731 0.634630
vt 0.136226 0.769223
vt 0.243230 0.769223
vt 0.152260 0.831134
vt 0.134280 0.831134
vt 0.059345 0.831134
vt 0.150314 0.769223
vt 0.096816 0.949102
vt 0.171751 0.831134
vt 0.114789 0.831134
vt 0.189731 0.949102
vt 0.082424 0.805798
vt 0.077783 0.812822
vt 0.077504 0.804112
vt 0.083298 0.810247
vt 0.067040 0.804112
vt 0.061253 0.810247
vt 0.062126 0.805798
vt 0.066761 0.812822
vt 0.129691 0.528392
vt 0.154277 0.544550
vt 0.152289 0.517832
vt 0.119903 0.599249
vt 0.064346 0.528392
vt 0.074135 0.599249
vt 0.132675 0.544550
vt 0.167050 0.599249
vt 0.157261 0.528392
vt 0.150324 0.600981
vt 0.134664 0.517832
vt 0.158083 0.510152
vt 0.065167 0.510152
vt 0.128870 0.510152
vt 0.083815 0.606062
vt 0.057409 0.600981
vt 0.110222 0.606062
vt 0.136629 0.600981
s 0
usemtl material_atlas_00001_1
f 21/1/1 22/2/2 20/3/3
f 21/1/4 8/4/5 22/2/2
f 2/5/6 8/4/5 21/1/4
f 2/5/7 7/6/8 8/4/9
f 1/7/10 7/8/11 2/9/12
f 9/10/13 1/7/14 3/11/15
f 9/10/16 7/8/8 1/7/17
f 5/12/18 7/6/11 9/13/19
f 15/14/20 2/15/6 21/16/21
f 15/14/22 4/17/23 2/15/6
f 22/18/2 6/19/24 19/20/25
f 22/18/26 8/21/5 6/19/27
f 23/2/28 16/1/29 20/3/30
f 27/22/31 13/23/32 14/24/33
f 27/22/31 28/25/34 13/23/32
f 29/26/35 28/25/34 27/22/31
f 29/26/35 30/27/36 28/25/37
f 18/28/38 30/29/39 29/30/35
f 18/28/38 17/31/40 30/29/36
f 29/30/35 24/32/41 18/28/38
f 29/30/42 25/33/43 24/32/44
f 27/22/31 25/34/43 29/26/35
f 27/22/31 26/35/45 25/34/43
f 14/24/46 26/35/45 27/22/47
f 11/36/48 30/27/36 17/37/40
f 11/36/48 10/38/49 30/27/36
f 10/38/49 28/25/37 30/27/36
f 10/38/50 12/39/51 28/25/37
f 12/39/52 13/23/32 28/25/53
o Pii_KAMEERU_ear2
v 2.017361 -0.400290 0.826803
v 1.874458 -0.404155 0.723644
v 2.128663 0.739599 0.479276
v 1.500519 -0.541070 1.246778
v 1.643417 -0.537205 1.349937
v 1.491686 0.020826 1.237956
v 1.634590 0.024691 1.341115
v -0.887802 -0.377429 0.725490
v -1.029554 -0.381609 0.830207
v -1.203994 0.752856 0.490991
v -0.643200 -0.501771 1.348412
v -0.501447 -0.497585 1.243700
v -0.663781 0.059859 1.342988
v -0.522023 0.064044 1.238271
vn 0.7581 -0.6520 0.0148
vn -0.3391 -0.4753 -0.8118
vn 0.3219 0.8180 -0.4767
vn -0.4923 -0.8696 -0.0384
vn -0.3391 -0.4753 -0.8119
vn -0.0972 -0.4180 0.9032
vn -0.4923 -0.8696 -0.0383
vn 0.7581 -0.6520 0.0149
vn -0.9318 0.2495 0.2635
vn 0.2616 0.3444 0.9017
vn -0.9319 0.2495 0.2635
vn 0.2615 0.3443 0.9017
vn 0.3219 0.8181 -0.4766
vn -0.9318 0.2494 0.2636
vn 0.2615 0.3444 0.9017
vn -0.0973 -0.4179 0.9033
vn 0.3219 0.8181 -0.4765
vn -0.3390 -0.4753 -0.8119
vn -0.4922 -0.8696 -0.0384
vn -0.9318 0.2496 0.2635
vn 0.2564 -0.6619 -0.7044
vn -0.8685 -0.4884 0.0849
vn -0.3695 0.8028 -0.4680
vn 0.2564 -0.6618 -0.7044
vn -0.1720 -0.8634 0.4743
vn -0.8685 -0.4884 0.0850
vn 0.8374 -0.3965 0.3761
vn -0.0376 0.2681 0.9627
vn 0.9325 0.3606 0.0189
vn -0.0376 0.2680 0.9627
vn -0.0375 0.2680 0.9627
vn -0.3694 0.8029 -0.4680
vn -0.1721 -0.8634 0.4742
vn -0.0376 0.2681 0.9626
vn 0.8375 -0.3965 0.3761
vn 0.2563 -0.6618 -0.7045
vn 0.9325 0.3606 0.0190
vt 0.140181 0.145685
vt 0.139998 0.190456
vt 0.052003 0.152419
vt 0.052003 0.107345
vt 0.080273 0.153186
vt 0.139998 0.145383
vt 0.080273 0.198260
s 0
usemtl material_atlas_00001_1
f 31/40/54 32/40/55 33/41/56
f 31/40/54 34/42/57 32/40/58
f 35/42/59 34/42/60 31/40/61
f 35/43/59 36/44/62 34/43/57
f 37/44/63 36/44/64 35/43/59
f 37/44/65 33/45/66 36/44/67
f 31/40/54 33/41/56 37/46/68
f 35/42/69 31/40/54 37/46/68
f 32/40/58 36/46/62 33/41/70
f 32/40/71 34/42/72 36/46/73
f 38/40/74 39/40/75 40/41/76
f 38/40/77 41/42/78 39/40/79
f 42/42/80 41/42/78 38/40/77
f 42/43/80 43/44/81 41/43/78
f 44/44/82 43/44/83 42/43/80
f 44/44/82 40/45/76 43/44/84
f 39/40/75 43/46/81 40/41/85
f 39/40/75 41/42/86 43/46/87
f 38/40/74 44/46/82 42/42/88
f 38/40/89 40/41/76 44/46/90
o Pii_KAMEERU_eye
v 0.500000 -0.076796 2.215674
v 1.266634 -0.076796 1.898125
v -0.266634 -0.076796 1.898120
v 1.325662 -0.741280 1.934248
v -0.325662 -0.741280 1.934248
v 0.500000 -0.741280 2.300923
v 0.912831 -0.741280 2.117586
v 0.087169 -0.741280 2.117586
vn -0.4236 0.0464 0.9047
vn -0.7093 0.4026 0.5786
vn -0.7787 -0.0663 0.6239
vn -0.0000 0.3341 0.9425
vn -0.7093 0.4026 0.5787
vn -0.0000 0.2473 0.9689
vn -0.4236 0.0465 0.9047
vn 0.4236 0.0465 0.9047
vn -0.0000 0.3342 0.9425
vn 0.4236 0.0464 0.9047
vn 0.7093 0.4026 0.5787
vn 0.7787 -0.0663 0.6239
vt 0.911264 0.860766
vt 0.862157 0.937394
vt 0.857758 0.861825
vt 0.948912 0.931407
vt 0.951397 0.859695
s 0
usemtl material_atlas_00001_1
f 52/47/91 47/48/92 49/49/93
f 52/47/91 45/50/94 47/48/95
f 50/51/96 45/50/94 52/47/97
f 50/51/96 51/47/98 45/50/99
f 51/47/100 46/48/101 45/50/94
f 51/47/100 48/49/102 46/48/101
o Pii_KAMEERU_kao2
v 1.730278 -1.788303 2.085236
v 0.850915 -1.372215 1.719001
v 1.001049 -1.883443 1.977354
v 1.201835 -1.372215 1.143245
v 1.502099 -2.064213 1.192962
v -0.730278 -1.788303 2.085236
v -0.201835 -1.372215 1.143245
v -0.502099 -2.064213 1.192962
v 0.149085 -1.372215 1.719001
v -0.001049 -1.883443 1.977354
v 0.500000 -1.284273 1.143245
v 0.702463 -1.321721 0.969544
v 0.297537 -1.321721 0.969544
v 1.107384 -1.386981 0.969544
v 1.378039 -2.110591 1.027133
v 1.347523 -2.453173 0.866504
v 1.422686 -2.595881 1.001123
v 0.975838 -2.715207 0.401606
v -0.107384 -1.386981 0.969544
v -0.378039 -2.110591 1.027133
v -0.422686 -2.595881 1.001123
v 0.920985 -2.966839 1.143245
v 0.500000 -2.842584 1.192962
v 0.975838 -2.715207 1.976773
v 0.079015 -2.966839 1.143245
v 0.024162 -2.715207 1.976773
v 0.024168 -2.715207 0.401606
v -0.347523 -2.453173 0.866504
v 0.011556 -2.551625 0.353332
v 0.988444 -2.551625 0.353332
v 0.500000 0.417131 1.729565
v 0.500000 -0.076796 2.215674
v 1.266634 -0.076796 1.898125
v -0.266634 -0.076796 1.898120
v -0.125951 0.385752 1.103609
v -0.428120 -0.076796 1.103609
v -0.181216 -0.076796 0.273170
v -0.499585 -0.657872 1.103609
v -0.282258 -0.610744 0.199175
v -0.229864 -1.104666 0.257046
v 0.500000 -1.047635 -0.022805
v 0.500000 -1.285820 0.375373
v 1.229864 -1.104666 0.257046
v 1.125951 -1.297509 1.103609
v 1.371709 -1.104665 1.103609
v 1.279630 -1.142217 1.836720
v 1.499585 -0.657872 1.103609
v 1.325662 -0.741280 1.934248
v 1.181216 -0.076796 0.273170
v 1.282258 -0.610744 0.199175
v 0.500000 -0.211268 0.023563
v 1.428120 -0.076796 1.103609
v 1.125951 0.385752 1.103609
v 0.500000 0.487565 1.103609
v 0.500000 0.299320 0.422501
v 0.500000 -1.372731 1.103609
v -0.125951 -1.297509 1.103609
v 0.500000 -1.267216 1.898820
v -0.279630 -1.142217 1.836720
v 0.500000 -1.154795 2.236380
v -0.371709 -1.104665 1.103609
v -0.325662 -0.741280 1.934248
v 0.500000 -0.741280 2.300923
v 0.500000 -0.890232 2.358876
v 0.912831 -0.741280 2.117586
v 0.087169 -0.741280 2.117586
vn 0.0928 0.7611 0.6419
vn 0.0651 0.8576 0.5103
vn 0.2990 0.1919 0.9348
vn 0.4897 0.7908 0.3672
vn 0.6038 0.7540 -0.2586
vn 0.0651 0.8575 0.5103
vn 0.9299 0.1324 -0.3433
vn 0.6908 0.7197 -0.0696
vn -0.6908 0.7197 -0.0696
vn -0.6038 0.7540 -0.2586
vn -0.9821 0.1049 -0.1564
vn -0.4897 0.7908 0.3672
vn -0.0543 0.8012 0.5959
vn -0.1468 0.1847 0.9718
vn -0.0543 0.8012 0.5960
vn -0.0928 0.7611 0.6419
vn 0.5604 -0.4151 0.7167
vn 0.4866 -0.7305 0.4791
vn 0.0843 -0.9578 0.2746
vn -0.7238 -0.4997 0.4758
vn -0.2958 -0.3153 0.9017
vn -0.0843 -0.9578 0.2746
vn -0.0000 0.9994 -0.0335
vn 0.0636 0.9855 -0.1573
vn -0.0796 0.9860 -0.1465
vn 0.0001 0.9994 -0.0335
vn 0.4905 0.8161 -0.3055
vn 0.0637 0.9855 -0.1573
vn 0.6038 0.7541 -0.2586
vn 0.8055 0.2444 -0.5399
vn 0.4905 0.8162 -0.3055
vn 0.9298 0.1323 -0.3433
vn 0.9298 0.1324 -0.3433
vn 0.8370 -0.0141 -0.5470
vn 0.9138 -0.4055 -0.0221
vn 0.8371 -0.0141 -0.5469
vn 0.9299 0.1323 -0.3433
vn 0.9138 -0.4056 -0.0221
vn 0.3937 -0.7036 -0.5915
vn -0.4905 0.8161 -0.3055
vn -0.0001 0.9994 -0.0335
vn -0.6038 0.7540 -0.2585
vn -0.8284 0.2079 -0.5201
vn -0.6038 0.7541 -0.2586
vn -0.4904 0.8162 -0.3056
vn -0.8963 -0.3263 -0.3004
vn 0.1769 -0.9840 -0.0225
vn -0.0000 -0.9999 -0.0109
vn 0.3938 -0.7036 -0.5915
vn 0.1768 -0.9840 -0.0225
vn 0.1003 -0.7077 0.6994
vn -0.0000 -0.9999 -0.0108
vn 0.3012 -0.6317 0.7143
vn -0.1769 -0.9840 -0.0224
vn -0.3347 -0.7771 0.5330
vn -0.2135 -0.7204 -0.6598
vn -0.8963 -0.3262 -0.3003
vn -0.2134 -0.7205 -0.6598
vn -0.1769 -0.9840 -0.0225
vn -0.8637 0.0024 -0.5041
vn -0.8636 0.0023 -0.5041
vn -0.4605 -0.2185 -0.8603
vn -0.8963 -0.3262 -0.3004
vn -0.4605 -0.2186 -0.8603
vn 0.3689 -0.2573 -0.8931
vn -0.2135 -0.7205 -0.6598
vn 0.3689 -0.2574 -0.8931
vn 0.8371 -0.0142 -0.5469
vn -0.4733 -0.6670 0.5753
vn -0.0000 0.9007 0.4345
vn -0.0000 0.3341 0.9425
vn 0.7093 0.4026 0.5787
vn -0.7093 0.4026 0.5787
vn -0.5090 0.8593 -0.0496
vn -0.0000 0.9007 0.4344
vn -0.9380 0.3441 -0.0419
vn -0.6818 0.4762 -0.5553
vn -0.5090 0.8593 -0.0497
vn -0.9990 -0.0372 -0.0252
vn -0.9380 0.3440 -0.0419
vn -0.6494 0.0408 -0.7594
vn -0.9990 -0.0373 -0.0252
vn -0.6454 -0.6321 -0.4288
vn -0.0001 -0.3649 -0.9310
vn -0.6494 0.0407 -0.7594
vn -0.0000 -0.3649 -0.9311
vn -0.0000 -0.9596 -0.2814
vn 0.6454 -0.6321 -0.4288
vn -0.0000 -0.3649 -0.9310
vn 0.3194 -0.9475 -0.0132
vn 0.0001 -0.9596 -0.2814
vn 0.8288 -0.5587 -0.0314
vn 0.3195 -0.9475 -0.0131
vn 0.6454 -0.6322 -0.4288
vn 0.6374 -0.5819 0.5052
vn 0.9990 -0.0373 -0.0251
vn 0.6373 -0.5819 0.5052
vn 0.8288 -0.5587 -0.0313
vn 0.7787 -0.0663 0.6239
vn 0.6818 0.4763 -0.5553
vn 0.6494 0.0407 -0.7594
vn -0.0000 0.3018 -0.9534
vn 0.6818 0.4762 -0.5553
vn 0.9990 -0.0373 -0.0252
vn 0.9380 0.3440 -0.0419
vn 0.9990 -0.0372 -0.0252
vn 0.9380 0.3440 -0.0418
vn 0.7093 0.4025 0.5787
vn 0.9990 -0.0372 -0.0251
vn 0.5090 0.8593 -0.0496
vn 0.9380 0.3441 -0.0419
vn -0.0000 0.9969 -0.0788
vn -0.0000 0.8503 -0.5263
vn 0.8288 -0.5586 -0.0314
vn -0.0000 0.3017 -0.9534
vn -0.0000 -1.0000 0.0065
vn -0.0000 -0.9596 -0.2813
vn 0.3194 -0.9475 -0.0131
vn -0.0000 -1.0000 0.0066
vn -0.3194 -0.9475 -0.0131
vn -0.0000 -0.9783 0.2072
vn -0.6374 -0.5818 0.5052
vn -0.0000 -0.7577 0.6526
vn -0.8288 -0.5587 -0.0314
vn -0.6373 -0.5819 0.5052
vn -0.9990 -0.0373 -0.0251
vn -0.8288 -0.5587 -0.0313
vn -0.3195 -0.9475 -0.0131
vn -0.6374 -0.5819 0.5052
vn -0.6454 -0.6322 -0.4288
vn -0.3195 -0.9475 -0.0132
vn -0.0001 -0.9596 -0.2814
vn -0.3194 -0.9475 -0.0132
vn -0.7093 0.4025 0.5787
vn -0.7787 -0.0664 0.6239
vn -0.6373 -0.5819 0.5053
vn -0.7787 -0.0663 0.6239
vn 0.6818 0.4763 -0.5552
vn 0.5090 0.8593 -0.0497
vn 0.5090 0.8594 -0.0496
vn 0.6374 -0.5818 0.5052
vn -0.0000 -0.7577 0.6525
vn -0.8288 -0.5586 -0.0314
vn -0.0000 0.2473 0.9689
vn -0.0000 -0.0593 0.9982
vn 0.4236 0.0465 0.9047
vn -0.4236 0.0465 0.9046
vn -0.0000 -0.0592 0.9982
vn 0.4236 0.0464 0.9046
vn -0.0000 -0.7578 0.6525
vn -0.4236 0.0464 0.9046
vn -0.4236 0.0464 0.9047
vn 0.4236 0.0464 0.9047
vt 0.056713 0.387774
vt 0.056713 0.366571
vt 0.055815 0.387744
vt 0.073034 0.362029
vt 0.142870 0.369486
vt 0.142870 0.369413
vt 0.143364 0.369413
vt 0.142376 0.369413
vt 0.142466 0.369481
vt 0.142242 0.369325
vt 0.142399 0.369263
vt 0.142870 0.369279
vt 0.142870 0.369211
vt 0.143342 0.369263
vt 0.143274 0.369206
vt 0.143499 0.369325
vt 0.143274 0.369481
vt 0.142466 0.369206
vt 0.234840 0.386811
vt 0.234840 0.366142
vt 0.171036 0.386811
vt 0.107905 0.327024
vt 0.234840 0.323629
vt 0.100207 0.390859
vt 0.105795 0.332418
vt 0.150344 0.390859
s 0
usemtl material_atlas_00001_1
f 53/52/103 54/53/104 55/53/105
f 53/52/106 56/53/107 54/53/108
f 57/53/109 56/53/107 53/52/110
f 58/52/111 59/53/112 60/53/113
f 58/52/114 61/53/115 59/53/112
f 62/53/116 61/53/117 58/52/118
f 55/53/119 57/53/120 53/52/121
f 60/53/122 62/53/123 58/52/124
f 63/54/125 64/54/126 65/54/127
f 63/54/128 66/54/129 64/54/130
f 56/54/107 66/54/129 63/54/125
f 56/54/131 67/54/132 66/54/133
f 57/54/134 67/54/132 56/54/131
f 57/54/135 68/54/136 67/54/132
f 69/54/137 68/54/138 57/54/139
f 69/54/140 70/54/141 68/54/136
f 71/54/142 63/54/143 65/54/127
f 71/54/142 59/54/144 63/54/125
f 72/54/145 59/54/146 71/54/147
f 72/54/145 60/54/113 59/54/146
f 73/54/148 60/54/113 72/54/145
f 74/55/149 75/55/150 70/55/151
f 74/55/152 76/55/153 75/55/154
f 69/55/137 76/55/155 74/55/149
f 77/55/156 75/55/154 78/55/157
f 77/55/156 79/55/158 75/55/150
f 73/55/159 79/55/160 77/55/161
f 80/54/162 73/54/148 72/54/145
f 80/54/163 81/54/164 73/54/165
f 81/54/166 79/54/160 73/54/165
f 81/54/166 82/54/167 79/54/168
f 82/54/167 70/54/151 79/54/168
f 82/54/169 68/54/170 70/54/151
f 70/55/151 69/55/137 74/55/149
f 78/55/171 73/55/165 77/55/161
f 83/56/172 84/57/173 85/58/174
f 83/56/172 86/59/175 84/57/173
f 87/60/176 86/59/175 83/56/177
f 87/60/176 88/59/178 86/59/175
f 89/59/179 88/59/178 87/60/180
f 89/59/179 90/61/181 88/59/182
f 91/61/183 90/61/184 89/59/179
f 91/61/183 92/62/185 90/61/184
f 93/63/186 92/62/185 91/61/187
f 93/63/188 94/64/189 92/62/185
f 95/65/190 94/64/189 93/63/191
f 95/65/190 96/66/192 94/64/193
f 97/65/194 96/66/195 95/65/196
f 97/65/194 98/65/197 96/66/195
f 99/67/198 98/65/199 97/65/200
f 99/67/198 100/67/201 98/65/199
f 85/58/174 100/67/201 99/67/198
f 101/58/202 102/67/203 103/57/204
f 101/58/205 99/67/206 102/67/203
f 104/58/207 99/67/208 101/58/202
f 104/58/209 85/58/210 99/67/211
f 105/68/212 85/58/174 104/58/213
f 105/68/212 83/56/177 85/58/210
f 106/56/214 83/56/177 105/68/212
f 106/56/214 87/60/176 83/56/177
f 107/56/215 87/60/180 106/56/214
f 107/56/215 89/59/179 87/60/180
f 103/57/204 89/59/179 107/56/215
f 95/65/190 99/67/206 97/65/216
f 95/65/190 102/67/203 99/67/206
f 93/63/188 102/67/203 95/65/196
f 93/63/191 103/57/217 102/67/203
f 91/61/187 103/57/204 93/63/191
f 91/61/187 89/59/179 103/57/204
f 108/64/218 94/64/219 96/66/220
f 108/64/221 109/69/222 94/64/219
f 110/64/223 109/69/222 108/64/221
f 110/64/223 111/62/224 109/69/222
f 112/63/225 111/62/224 110/64/223
f 113/62/226 111/62/227 90/61/228
f 113/62/229 109/69/230 111/62/231
f 92/62/232 109/69/233 113/62/226
f 92/62/185 94/64/234 109/69/235
f 90/61/228 86/59/236 88/59/182
f 90/61/228 114/61/237 86/59/175
f 111/62/238 114/61/239 90/61/228
f 107/56/215 101/58/240 103/57/204
f 107/56/215 105/68/241 101/58/205
f 106/56/214 105/68/242 107/56/215
f 110/64/223 98/65/243 112/63/244
f 110/64/223 96/66/220 98/65/243
f 108/64/221 96/66/220 110/64/223
f 104/58/213 101/58/205 105/68/241
f 113/62/245 90/61/184 92/62/232
f 115/70/246 116/71/247 117/72/248
f 115/70/246 118/72/249 116/71/247
f 116/71/250 98/73/199 117/72/251
f 116/71/247 112/74/252 98/73/197
f 111/73/231 112/74/252 116/71/247
f 118/72/253 111/73/231 116/71/247
f 114/75/239 111/76/227 118/77/254
f 117/77/255 98/76/197 100/75/201
o Pii_KAMEERU_sippo2
v -0.017510 -2.251655 -0.905610
v 0.269106 -2.054105 -1.393457
v 0.290848 -2.688638 -1.168399
v 0.374111 -1.829508 -0.752257
v 0.505309 -2.623704 0.194642
v 0.682463 -2.266492 -1.015039
v 0.304133 -1.168443 -0.905491
v 0.807180 -0.657693 -1.152617
v 0.691388 -1.597783 -1.428462
v 0.732382 -0.918885 -0.213639
v 0.480608 -2.643611 0.217481
v 1.119637 -1.348225 -0.736605
vn -0.9940 0.1091 -0.0120
vn -0.1298 0.4376 -0.8898
vn -0.1077 -0.8076 -0.5798
vn -0.9940 0.1090 -0.0120
vn 0.0405 0.9914 0.1246
vn -0.1298 0.4377 -0.8897
vn 0.1337 -0.3947 0.9090
vn -0.9940 0.1089 -0.0120
vn 0.9465 0.0679 -0.3154
vn -0.1077 -0.8077 -0.5797
vn 0.1338 -0.3947 0.9090
vn -0.1078 -0.8076 -0.5798
vn 0.9466 0.0679 -0.3153
vn 0.9465 0.0678 -0.3154
vn -0.9497 0.2787 -0.1426
vn 0.1999 0.8522 -0.4834
vn 0.0526 -0.3061 -0.9505
vn -0.9498 0.2786 -0.1426
vn 0.0602 0.7328 0.6777
vn 0.1999 0.8523 -0.4834
vn -0.1777 -0.8378 0.5162
vn 0.0601 0.7328 0.6778
vn -0.1777 -0.8379 0.5161
vn 1.0000 0.0023 -0.0063
vn 0.0602 0.7328 0.6778
vn 0.0527 -0.3061 -0.9505
vn 0.1999 0.8522 -0.4835
vt 0.533161 0.870989
vt 0.446726 0.877723
vt 0.517936 0.782820
vt 0.544252 0.949102
vt 0.746614 0.865202
vt 0.529026 0.860944
vt 0.524813 0.868692
vt 0.560747 0.942992
vt 0.600861 0.806244
vt 0.424212 0.904995
vt 0.361517 0.654111
vt 0.500259 0.842547
s 0
usemtl material_atlas_00001_1
f 119/78/256 120/79/257 121/80/258
f 119/78/259 122/81/260 120/79/261
f 123/82/262 122/81/260 119/78/263
f 123/82/262 124/83/264 122/81/260
f 121/80/265 124/83/264 123/82/266
f 121/80/267 120/79/257 124/83/268
f 124/83/269 120/79/257 122/81/260
f 119/78/256 121/80/265 123/82/262
f 125/84/270 126/85/271 127/86/272
f 125/84/273 128/87/274 126/85/275
f 129/88/276 128/87/277 125/84/273
f 129/88/278 130/89/279 128/87/280
f 127/86/281 130/89/279 129/88/276
f 127/86/272 126/85/282 130/89/279
f 130/89/279 126/85/275 128/87/277
f 125/84/273 127/86/272 129/88/278
