# Blender 4.2.1 LTS
# www.blender.org
mtllib weedle.mtl
o polygon0
v 0.267407 -2.712857 -0.645322
v 0.354158 -2.702082 -0.846908
v 0.500000 -2.552657 -0.645322
v 0.500000 -2.599548 -0.829255
v 0.732593 -2.712857 -0.645322
v 0.645842 -2.702082 -0.846908
v 0.616152 -2.914663 -0.645315
v 0.572921 -2.816133 -0.863513
v 0.383848 -2.914663 -0.645315
v 0.427079 -2.816133 -0.863513
v 0.678932 -2.541353 1.272184
v 0.687787 -2.226914 1.360701
v 0.956194 -2.231270 0.881185
v 0.948915 -1.862515 0.958509
v 0.500000 -2.037411 0.627748
v 0.500000 -1.826425 0.624042
v 0.043806 -2.231270 0.881185
v 0.051085 -1.862515 0.958509
v 0.312213 -2.226914 1.360701
v 0.303359 -1.920024 1.356893
v 0.696641 -1.920024 1.356893
v 0.955410 -2.543602 0.664083
v 0.727705 -2.917638 0.856752
v 0.699082 -2.773510 1.102945
v 0.272295 -2.917638 0.856752
v 0.300917 -2.773510 1.102945
v 0.044590 -2.543602 0.664083
v 0.500000 -2.391096 -0.114205
v 0.048130 -2.617539 0.279480
v 0.121753 -2.638217 -0.103185
v 0.274065 -3.012956 0.348773
v 0.310877 -2.988205 -0.077795
v 0.725935 -3.012956 0.348773
v 0.689123 -2.988205 -0.077795
v 0.878247 -2.638217 -0.103185
v 0.500000 -2.469087 -0.407312
v 0.202242 -2.669764 -0.401602
v 0.351121 -2.961108 -0.393155
v 0.648879 -2.961108 -0.393155
v 0.797758 -2.669764 -0.401602
v 0.951870 -2.617539 0.279480
v 0.500000 -2.313556 0.203440
v 0.500000 -2.237893 0.499535
v 0.321068 -2.541353 1.272184
v 0.500000 -1.632510 0.974531
vn -0.0000 0.9576 -0.2881
vn -0.6351 0.2351 -0.7358
vn -0.9144 0.2211 -0.3391
vn -0.0000 0.5256 -0.8507
vn 0.9144 0.2211 -0.3391
vn 0.6351 0.2351 -0.7358
vn 0.4809 -0.8135 -0.3271
vn 0.2589 -0.3484 -0.9009
vn -0.4809 -0.8135 -0.3271
vn -0.2589 -0.3484 -0.9009
vn 0.9975 -0.0383 0.0592
vn 0.5921 -0.1199 0.7969
vn 0.5046 -0.3664 0.7818
vn 0.8850 0.4637 0.0415
vn -0.0000 0.3549 -0.9349
vn -0.0000 0.5860 -0.8103
vn -0.9975 -0.0382 0.0592
vn -0.8850 0.4637 0.0416
vn -0.5921 -0.1199 0.7969
vn -0.3924 0.4940 0.7759
vn 0.3924 0.4940 0.7759
vn 0.6156 -0.5436 0.5706
vn 0.5140 -0.7950 0.3222
vn 0.9991 0.0361 -0.0210
vn -0.5140 -0.7950 0.3222
vn -0.6156 -0.5436 0.5706
vn -0.9991 0.0361 -0.0210
vn -0.9479 0.2215 -0.2291
vn -0.9687 0.2119 -0.1294
vn -0.0000 0.9714 -0.2373
vn -0.5048 -0.8628 0.0272
vn -0.5010 -0.8564 -0.1249
vn 0.5048 -0.8628 0.0272
vn 0.5011 -0.8564 -0.1249
vn 0.9479 0.2215 -0.2291
vn -0.9341 0.2209 -0.2806
vn -0.0000 0.9537 -0.3008
vn -0.5033 -0.8459 -0.1765
vn 0.5033 -0.8459 -0.1765
vn 0.9340 0.2209 -0.2806
vn 0.9687 0.2119 -0.1294
vn -0.0000 0.9771 -0.2130
vn -0.0000 0.8242 -0.5664
vn -0.5046 -0.3664 0.7818
vn -0.0000 0.9929 0.1189
vt 0.754171 0.714865
vt 0.740290 0.686758
vt 0.740290 0.714865
vt 0.754171 0.686758
vt 0.726376 0.714865
vt 0.726376 0.686758
vt 0.769299 0.821186
vt 0.655020 0.872915
vt 0.655020 0.821186
vt 0.769299 0.917068
vt 0.870794 0.821186
vt 0.870794 0.913867
vt 0.655020 0.635714
vt 0.769299 0.640325
vt 0.655020 0.596171
vt 0.655020 0.869655
vt 0.769299 0.924779
vt 0.870794 0.924779
vt 0.655020 0.924779
vt 0.655020 0.648036
vt 0.655020 0.592912
vt 0.769299 0.648036
vt 0.702373 0.693633
vt 0.704365 0.664817
vt 0.745916 0.669335
vt 0.654878 0.657604
s 1
usemtl material_atlas_00018_1
f 3/1/1 2/2/2 1/3/3
f 4/4/4 2/2/2 3/1/1
f 5/3/5 4/4/4 3/1/1
f 6/2/6 4/4/4 5/3/5
f 7/5/7 6/2/6 5/3/5
f 8/6/8 6/2/6 7/5/7
f 9/5/9 8/6/8 7/5/7
f 10/6/10 8/6/8 9/5/9
f 1/3/3 10/6/10 9/5/9
f 2/2/2 10/6/10 1/3/3
f 13/7/11 12/8/12 11/9/13
f 14/10/14 12/8/12 13/7/11
f 15/11/15 14/10/14 13/7/11
f 16/12/16 14/10/14 15/11/15
f 17/7/17 16/12/16 15/11/15
f 18/10/18 16/12/16 17/7/17
f 19/8/19 18/10/18 17/7/17
f 20/13/20 18/14/18 19/15/19
f 21/13/21 20/13/20 19/15/19
f 24/16/22 23/9/23 22/7/24
f 25/9/25 23/9/23 24/16/22
f 26/16/26 25/9/25 24/16/22
f 27/7/27 25/9/25 26/16/26
f 17/17/17 27/7/27 26/16/26
f 15/18/15 27/7/27 17/17/17
f 30/7/28 29/17/29 28/11/30
f 31/19/31 29/17/29 30/7/28
f 32/9/32 31/19/31 30/7/28
f 33/19/33 31/19/31 32/9/32
f 34/9/34 33/19/33 32/9/32
f 35/7/35 33/19/33 34/9/34
f 37/7/36 30/17/28 36/11/37
f 32/19/32 30/17/28 37/7/36
f 38/9/38 32/19/32 37/7/36
f 34/19/34 32/19/32 38/9/38
f 39/9/39 34/19/34 38/9/38
f 40/7/40 34/19/34 39/9/39
f 41/7/41 23/19/23 33/9/33
f 22/17/24 23/19/23 41/7/41
f 42/11/42 22/17/24 41/7/41
f 43/18/43 22/17/24 42/11/42
f 27/17/27 43/18/43 42/11/42
f 1/7/3 36/18/37 3/11/1
f 37/17/36 36/18/37 1/7/3
f 9/9/9 37/17/36 1/7/3
f 38/19/38 37/17/36 9/9/9
f 39/19/39 38/19/38 9/9/9
f 11/20/13 24/21/22 13/22/11
f 26/21/26 24/21/22 11/20/13
f 44/20/44 26/21/26 11/20/13
f 17/22/17 26/21/26 44/20/44
f 22/7/24 13/17/11 24/16/22
f 15/18/15 13/17/11 22/7/24
f 43/11/43 15/18/15 22/7/24
f 27/7/27 15/18/15 43/11/43
f 28/18/30 36/11/37 30/17/28
f 40/7/40 36/11/37 28/18/30
f 35/17/35 40/7/40 28/18/30
f 34/19/34 40/7/40 35/17/35
f 45/23/45 14/24/14 16/25/16
f 21/26/21 14/24/14 45/23/45
f 20/26/20 21/26/21 45/23/45
f 4/4/4 10/6/10 2/2/2
f 8/6/8 10/6/10 4/4/4
f 6/2/6 8/6/8 4/4/4
f 28/11/30 41/17/41 35/7/35
f 42/18/42 41/17/41 28/11/30
f 29/17/29 42/18/42 28/11/30
f 31/9/31 25/19/25 27/17/27
f 23/19/23 25/19/25 31/9/31
f 33/9/33 23/19/23 31/9/31
f 39/19/39 5/7/5 40/17/40
f 7/9/7 5/7/5 39/19/39
f 9/9/9 7/9/7 39/19/39
f 45/23/45 18/24/18 20/26/20
f 16/25/16 18/24/18 45/23/45
f 44/9/44 19/8/19 17/7/17
f 11/9/13 19/8/19 44/9/44
f 21/13/21 12/15/12 14/14/14
f 19/15/19 12/15/12 21/13/21
f 29/7/29 27/17/27 42/11/42
f 31/9/31 27/17/27 29/7/29
f 36/18/37 5/7/5 3/11/1
f 40/17/40 5/7/5 36/18/37
f 11/9/13 12/8/12 19/8/19
f 35/7/35 41/17/41 33/19/33
o polygon1
v 1.076011 -0.657135 1.968675
v 0.938905 -0.867470 2.071273
v 0.500000 -0.390899 1.995114
v 0.500000 -0.867470 2.197046
v 0.061095 -0.867470 2.071273
v 0.500000 -1.418279 2.023749
v -0.157624 -1.380187 1.867753
v 0.500000 -1.834091 1.506840
v -0.147740 -1.749127 1.057235
v 0.500000 -1.834091 0.607636
v -0.210162 -1.464874 0.329765
v 0.500000 -1.412362 -0.016370
v 0.061095 -0.867470 -0.119833
v 0.938905 -0.867470 -0.119833
v 0.500000 -0.322572 -0.016370
v 1.210162 -0.270059 0.329765
v 0.500000 0.099157 0.607636
v 1.147740 0.014194 1.057235
v 0.500000 0.099157 1.506840
v 1.190902 -0.376058 1.799288
v 1.157624 -1.380187 1.867753
v 1.147740 -1.749127 1.057235
v 1.210162 -1.464874 0.329765
v -0.190902 -0.376058 1.799288
v -0.147740 0.014194 1.057235
v -0.210162 -0.270059 0.329765
v -0.076011 -0.657135 1.968675
v -0.377729 -0.867470 1.720764
v -0.649067 -0.498247 1.057235
v -0.649067 -1.236687 1.057235
v -0.548064 -0.867470 0.393712
v 1.649067 -0.498247 1.057235
v 1.548064 -0.867470 0.393712
v 1.649067 -1.236687 1.057235
v 1.377729 -0.867470 1.720764
v 0.836584 -0.920435 2.031317
v 0.836584 -1.182598 2.184689
v 1.024446 -0.920435 2.184689
v 0.836584 -1.051516 2.404995
v 0.836584 -0.789353 2.404995
v 0.163416 -1.051516 2.404995
v 0.163416 -0.789353 2.404995
v -0.024446 -0.920435 2.184689
v 0.163416 -0.658271 2.184689
v 0.163416 -0.920435 2.031317
v 0.500000 -0.611218 2.184689
v 0.836584 -0.658271 2.184689
v 0.500000 -1.235431 2.184689
v 0.163416 -1.182598 2.184689
v 0.500000 0.247213 0.685088
v 0.871846 0.247213 1.056934
v 0.500000 1.028508 1.056934
v 0.500000 0.247213 1.428779
v 0.128154 0.247213 1.056934
vn -0.0000 0.4746 0.8802
vn 0.3871 0.0131 0.9219
vn 0.4556 0.2290 0.8602
vn -0.0000 0.0484 0.9988
vn -0.3871 0.0131 0.9219
vn -0.0000 -0.4726 0.8813
vn -0.5511 -0.5254 0.6483
vn -0.0000 -0.9340 0.3574
vn -0.4787 -0.8774 0.0325
vn -0.0000 -0.9519 -0.3064
vn -0.5510 -0.6369 -0.5392
vn -0.0000 -0.5891 -0.8080
vn -0.3622 -0.0000 -0.9321
vn 0.3622 -0.0000 -0.9321
vn -0.0000 0.5891 -0.8080
vn 0.5510 0.6369 -0.5392
vn -0.0000 0.9519 -0.3064
vn 0.4833 0.8744 0.0422
vn -0.0000 0.9149 0.4036
vn 0.5495 0.5457 0.6327
vn -0.0000 0.4747 0.8801
vn 0.5511 -0.5254 0.6483
vn 0.4787 -0.8774 0.0325
vn 0.5510 -0.6369 -0.5392
vn -0.5495 0.5457 0.6327
vn -0.4833 0.8744 0.0422
vn -0.5510 0.6369 -0.5392
vn -0.4556 0.2290 0.8602
vn -0.7838 0.0160 0.6208
vn -0.9229 0.3759 0.0831
vn -0.9242 -0.3735 0.0794
vn -0.8554 -0.0000 -0.5179
vn 0.9229 0.3759 0.0831
vn 0.8554 -0.0000 -0.5179
vn 0.9242 -0.3735 0.0794
vn 0.7838 0.0160 0.6208
vn 0.9995 -0.0000 -0.0312
vn 0.5393 -0.8031 -0.2535
vn 0.2554 0.0013 -0.9668
vn 0.4005 -0.5227 0.7526
vn 0.3978 0.5265 0.7514
vn -0.4005 -0.5227 0.7526
vn -0.3978 0.5265 0.7514
vn -0.9995 -0.0000 -0.0312
vn -0.5333 0.8068 -0.2543
vn -0.2554 0.0013 -0.9668
vn -0.0000 0.9707 -0.2402
vn 0.5333 0.8068 -0.2543
vn -0.0000 -0.9709 -0.2394
vn -0.5393 -0.8031 -0.2535
vn -0.0000 1.0000 -0.0000
vn 0.9029 0.4297 -0.0000
vn -0.0000 0.4297 -0.9029
vn -0.0000 0.4297 0.9029
vn -0.9029 0.4297 -0.0000
vn -0.0000 -1.0000 -0.0000
vt 0.761589 0.708700
vt 0.760835 0.701302
vt 0.762627 0.705355
vt 0.759270 0.701302
vt 0.761429 0.693819
vt 0.763380 0.694342
vt 0.767884 0.688177
vt 0.773494 0.689326
vt 0.779103 0.688177
vt 0.782577 0.693185
vt 0.786897 0.693903
vt 0.788187 0.701302
vt 0.786897 0.708700
vt 0.782577 0.709418
vt 0.779103 0.714434
vt 0.773494 0.713277
vt 0.767884 0.714434
vt 0.764418 0.709418
vt 0.765214 0.701302
vt 0.773494 0.706318
vt 0.773494 0.696285
vt 0.781774 0.701302
vt 0.841115 0.708590
vt 0.847637 0.702011
vt 0.850894 0.702011
vt 0.844380 0.702011
vt 0.841115 0.702011
vt 0.844380 0.695432
vt 0.841115 0.695432
vt 0.841115 0.688861
vt 0.837858 0.695432
vt 0.832969 0.695432
vt 0.837858 0.698726
vt 0.832969 0.702011
vt 0.837858 0.702011
vt 0.847637 0.698726
vt 0.850894 0.695432
vt 0.847637 0.695432
vt 0.877617 0.715355
vt 0.877617 0.685230
vt 0.892109 0.685230
vt 0.863133 0.685230
s 1
usemtl material_atlas_00018_1
f 48/27/46 47/28/47 46/29/48
f 49/30/49 47/28/47 48/27/46
f 50/28/50 49/30/49 48/27/46
f 51/31/51 49/30/49 50/28/50
f 52/32/52 51/31/51 50/28/50
f 53/33/53 51/31/51 52/32/52
f 54/34/54 53/33/53 52/32/52
f 55/35/55 53/33/53 54/34/54
f 56/36/56 55/35/55 54/34/54
f 57/37/57 55/35/55 56/36/56
f 58/38/58 57/37/57 56/36/56
f 59/38/59 57/37/57 58/38/58
f 60/39/60 59/38/59 58/38/58
f 61/40/61 59/38/59 60/39/60
f 62/41/62 61/40/61 60/39/60
f 63/42/63 61/40/61 62/41/62
f 64/43/64 63/42/63 62/41/62
f 65/44/65 63/42/63 64/43/64
f 48/27/66 65/44/65 64/43/64
f 51/31/51 47/28/47 49/30/49
f 66/32/67 47/28/47 51/31/51
f 53/33/53 66/32/67 51/31/51
f 67/34/68 66/32/67 53/33/53
f 55/35/55 67/34/68 53/33/53
f 68/36/69 67/34/68 55/35/55
f 57/37/57 68/36/69 55/35/55
f 59/38/59 68/36/69 57/37/57
f 64/43/64 69/44/70 48/27/66
f 70/42/71 69/44/70 64/43/64
f 62/41/62 70/42/71 64/43/64
f 71/40/72 70/42/71 62/41/62
f 60/39/60 71/40/72 62/41/62
f 58/38/58 71/40/72 60/39/60
f 72/29/73 50/28/50 48/27/46
f 73/45/74 50/28/50 72/29/73
f 69/44/70 73/45/74 72/29/73
f 74/46/75 73/45/74 69/44/70
f 70/42/71 74/46/75 69/44/70
f 71/40/72 74/46/75 70/42/71
f 73/45/74 52/32/52 50/28/50
f 75/47/76 52/32/52 73/45/74
f 74/46/75 75/47/76 73/45/74
f 76/48/77 75/47/76 74/46/75
f 71/40/72 76/48/77 74/46/75
f 58/38/58 76/48/77 71/40/72
f 77/46/78 63/42/63 65/44/65
f 61/40/61 63/42/63 77/46/78
f 78/48/79 61/40/61 77/46/78
f 59/38/59 61/40/61 78/48/79
f 68/36/69 59/38/59 78/48/79
f 79/47/80 67/34/68 68/36/69
f 66/32/67 67/34/68 79/47/80
f 80/45/81 66/32/67 79/47/80
f 47/28/47 66/32/67 80/45/81
f 46/29/48 47/28/47 80/45/81
f 80/45/81 65/44/65 46/29/48
f 77/46/78 65/44/65 80/45/81
f 79/47/80 77/46/78 80/45/81
f 78/48/79 77/46/78 79/47/80
f 68/36/69 78/48/79 79/47/80
f 75/47/76 54/34/54 52/32/52
f 56/36/56 54/34/54 75/47/76
f 76/48/77 56/36/56 75/47/76
f 58/38/58 56/36/56 76/48/77
f 83/49/82 82/50/83 81/51/84
f 84/52/85 82/50/83 83/49/82
f 85/53/86 84/52/85 83/49/82
f 86/54/87 84/52/85 85/53/86
f 87/55/88 86/54/87 85/53/86
f 88/56/89 86/54/87 87/55/88
f 89/57/90 88/56/89 87/55/88
f 90/58/91 88/56/89 89/57/90
f 91/59/92 90/58/91 89/57/90
f 81/60/84 90/58/91 91/59/92
f 92/61/93 81/60/84 91/59/92
f 83/49/82 81/60/84 92/61/93
f 85/53/86 83/49/82 92/61/93
f 93/62/94 81/51/84 82/50/83
f 90/63/91 81/51/84 93/62/94
f 94/64/95 90/63/91 93/62/94
f 88/56/89 90/63/91 94/64/95
f 86/54/87 88/56/89 94/64/95
f 91/59/92 85/53/86 92/61/93
f 87/55/88 85/53/86 91/59/92
f 89/57/90 87/55/88 91/59/92
f 84/52/85 93/62/94 82/50/83
f 86/54/87 93/62/94 84/52/85
f 94/64/95 93/62/94 86/54/87
f 97/65/96 96/66/97 95/67/98
f 98/68/99 96/66/97 97/65/96
f 99/66/100 98/68/99 97/65/96
s 0
f 96/66/101 99/66/101 95/67/101
f 98/68/101 99/66/101 96/66/101
s 1
f 95/67/98 99/66/100 97/65/96
o polygon2
v 1.076011 -0.657135 1.968675
v 0.500000 -0.390899 1.995114
v 1.190902 -0.376058 1.799288
v -0.190902 -0.376058 1.799288
v -0.076011 -0.657135 1.968675
vn 0.5495 0.5456 0.6327
vn 0.0001 0.4747 0.8802
vn 0.4555 0.2291 0.8602
vn -0.4555 0.2291 0.8603
vn -0.0001 0.4747 0.8802
vn -0.5495 0.5456 0.6327
vt 0.503967 0.924779
vt 0.195831 0.896633
vt 0.452722 0.764787
s 1
usemtl material_atlas_00018_1
f 102/69/102 101/70/103 100/71/104
f 104/71/105 101/70/106 103/69/107
o polygon5
v 0.500000 -2.696328 -1.019998
v 0.651960 -2.526163 -0.876101
v 0.500000 -2.250990 -1.160837
v 0.348040 -2.526163 -0.876101
vn -0.0000 0.5616 -0.8274
vn 0.8224 0.5597 0.1020
vn -0.0000 -0.3015 -0.9535
vn -0.8224 0.5597 0.1020
vn -0.0000 -0.6457 0.7636
vt 0.922048 0.712458
vt 0.898656 0.697155
vt 0.913090 0.685914
s 1
usemtl material_atlas_00018_1
f 107/72/108 106/73/109 105/74/110
f 108/73/111 106/73/109 107/72/108
f 105/74/110 108/73/111 107/72/108
s 0
f 105/74/112 106/73/112 108/73/112
