# Blender 4.2.1 LTS
# www.blender.org
mtllib armaldo_s.mtl
o polygon0
v 1.342720 -1.801679 1.376337
v 1.376508 -1.729397 1.976620
v 1.209560 -1.465575 1.562887
v 0.907291 -1.736080 1.593870
v 0.996064 -1.658182 1.193619
v 1.065287 -1.962985 1.424100
v 1.426374 -2.124085 2.195458
v -0.315731 -1.801679 1.376332
v -0.182572 -1.465571 1.562883
v -0.349523 -1.729397 1.976614
v 0.119697 -1.736080 1.593868
v -0.399390 -2.124085 2.195453
v -0.038298 -1.962985 1.424097
v 0.030926 -1.658182 1.193617
vn 0.1246 0.9910 -0.0496
vn 0.3945 0.7184 0.5729
vn 0.8396 -0.0906 -0.5357
vn -0.9223 0.1749 0.3446
vn -0.4183 0.1775 -0.8908
vn -0.3387 -0.8396 -0.4248
vn 0.0734 -0.9047 0.4198
vn -0.3945 0.7184 0.5729
vn -0.1245 0.9910 -0.0496
vn -0.8396 -0.0905 -0.5357
vn 0.9223 0.1749 0.3446
vn -0.0734 -0.9047 0.4198
vn 0.3387 -0.8396 -0.4248
vn 0.4183 0.1775 -0.8908
vt 0.551168 0.901790
vt 0.544061 0.832732
vt 0.507987 0.893723
vt 0.503292 0.942412
vt 0.479341 0.896178
vt 0.507987 0.783667
s 1
usemtl material_atlas_00012_1
f 3/1/1 2/2/2 1/3/3
f 4/3/4 2/2/2 3/1/1
f 5/4/5 4/3/4 3/1/1
f 6/5/6 4/3/4 5/4/5
f 1/3/3 6/5/6 5/4/5
f 7/6/7 6/5/6 1/3/3
f 2/2/2 7/6/7 1/3/3
f 4/3/4 7/6/7 2/2/2
f 7/6/7 4/3/4 6/5/6
f 5/4/5 3/1/1 1/3/3
f 10/2/8 9/1/9 8/3/10
f 11/3/11 9/1/9 10/2/8
f 12/6/12 11/3/11 10/2/8
f 13/5/13 11/3/11 12/6/12
f 8/3/10 13/5/13 12/6/12
f 14/4/14 13/5/13 8/3/10
f 9/1/9 14/4/14 8/3/10
f 11/3/11 14/4/14 9/1/9
f 12/6/12 10/2/8 8/3/10
f 13/5/13 14/4/14 11/3/11
o polygon2
v 1.107687 -0.182030 1.248636
v 1.637244 -0.269945 1.084120
v 1.419672 0.086637 0.828578
v 2.053832 0.259420 1.054265
v 1.467121 0.332218 1.232450
v -0.610253 -0.269945 1.084113
v -0.080697 -0.182030 1.248633
v -0.392680 0.086637 0.828573
v -0.440131 0.332218 1.232444
v -1.026841 0.259416 1.054256
vn -0.3177 0.1539 -0.9356
vn 0.4022 -0.8797 0.2539
vn -0.9486 -0.3129 0.0466
vn 0.7594 0.4144 -0.5015
vn -0.1931 0.6769 0.7103
vn 0.3177 0.1539 -0.9356
vn 0.9486 -0.3129 0.0466
vn -0.4022 -0.8797 0.2538
vn 0.1931 0.6769 0.7103
vn -0.7594 0.4144 -0.5015
vt 0.062733 0.563621
vt 0.233992 0.830889
vt 0.190523 0.942568
vt 0.131883 0.841725
vt 0.199077 0.935188
vt 0.086399 0.942568
vt 0.129869 0.830889
s 1
usemtl material_atlas_00012_1
f 17/7/15 16/7/16 15/7/17
f 18/7/18 16/7/16 17/7/15
f 19/7/19 18/7/18 17/7/15
f 22/7/20 21/7/21 20/7/22
f 23/7/23 21/7/21 22/7/20
f 24/7/24 23/7/23 22/7/20
f 16/8/16 19/9/19 15/10/17
f 18/11/18 19/12/19 16/13/16
f 23/9/23 20/8/22 21/10/21
f 24/11/24 20/13/22 23/12/23
f 17/7/15 15/7/17 19/7/19
f 20/7/22 24/7/24 22/7/20
o polygon3
v -0.276035 -0.663368 1.565047
v -0.352124 -0.802748 1.112188
v -0.352124 -0.299400 1.195925
v -0.276033 -0.517114 0.685913
v -0.021485 -0.004907 0.725465
v 0.182860 -0.457751 0.329088
v 0.513497 0.032713 0.484560
v 0.844135 -0.457751 0.329090
v 1.048478 -0.004907 0.725468
v 1.303025 -0.517114 0.685917
v 1.379114 -0.299400 1.195930
v 1.379114 -0.802748 1.112193
v 1.303023 -0.663368 1.565052
v 0.025539 0.157171 1.271882
v 0.513496 0.349442 0.982828
v 0.513494 0.241573 1.631214
v 1.001451 0.157171 1.271885
v 1.048475 -0.169907 1.717292
v -0.021485 -0.847785 0.585240
v 0.513497 -0.778061 0.349681
v 1.048478 -0.847785 0.585243
v 0.976120 -0.722166 1.918486
v 0.513492 -0.225768 2.038293
v -0.021488 -0.169907 1.717289
v 0.050866 -0.722166 1.918483
v -0.021488 -1.012789 1.577068
v 0.513493 -1.036543 1.903410
v 0.513494 -1.196709 1.391941
v 1.048476 -1.012789 1.577071
v 1.001451 -1.092733 1.063951
v 0.513492 -0.757332 2.129856
v 0.025539 -1.092733 1.063948
v 0.513496 -1.088841 0.743554
vn -0.9338 0.3515 0.0673
vn -0.8783 -0.4730 -0.0696
vn -0.8706 -0.1341 0.4734
vn -0.8422 0.0345 -0.5381
vn -0.5966 0.6464 -0.4757
vn -0.3480 0.0905 -0.9331
vn -0.0000 0.6384 -0.7697
vn 0.3480 0.0905 -0.9331
vn 0.5966 0.6464 -0.4757
vn 0.8422 0.0345 -0.5381
vn 0.9338 0.3515 0.0673
vn 0.8783 -0.4730 -0.0696
vn 0.8706 -0.1341 0.4734
vn -0.5841 0.8002 0.1362
vn -0.0000 0.9770 -0.2133
vn -0.0000 0.8620 0.5069
vn 0.5841 0.8002 0.1362
vn 0.6385 0.4579 0.6186
vn -0.4885 -0.6172 -0.6168
vn -0.0000 -0.5201 -0.8541
vn 0.4885 -0.6172 -0.6168
vn 0.5640 -0.2120 0.7981
vn -0.0000 0.3821 0.9241
vn -0.6385 0.4579 0.6186
vn -0.5291 -0.7729 0.3502
vn -0.5640 -0.2120 0.7981
vn -0.0000 -0.7948 0.6069
vn -0.0000 -0.9962 0.0871
vn 0.5291 -0.7729 0.3502
vn 0.3898 -0.9089 -0.1483
vn -0.0000 -0.2554 0.9668
vn -0.3898 -0.9089 -0.1483
vn -0.0000 -0.9104 -0.4136
vt 0.842874 0.903478
vt 0.809841 0.813667
vt 0.838657 0.881778
vt 0.857933 0.794977
vt 0.858912 0.861902
vt 0.943016 0.881778
vt 0.914200 0.813667
vt 0.858912 0.778529
vt 0.920621 0.739524
vt 0.816262 0.739524
vt 0.857813 0.726332
vt 0.829956 0.667675
vt 0.858912 0.700132
vt 0.934315 0.667675
vt 0.853663 0.877031
vt 0.850436 0.873622
vt 0.850447 0.882870
vt 0.853370 0.873176
vt 0.857145 0.879226
vt 0.855616 0.875446
vt 0.855812 0.878025
vt 0.856846 0.881932
vt 0.854999 0.882812
vt 0.850509 0.872512
vt 0.852448 0.884186
vt 0.931547 0.916861
vt 0.859757 0.917234
vt 0.889318 0.863841
vt 0.926292 0.879710
vt 0.858658 0.727599
vt 0.830300 0.942568
vt 0.819446 0.824340
vt 0.812656 0.885826
s 1
usemtl material_atlas_00012_1
f 27/14/25 26/14/26 25/14/27
f 28/14/28 26/14/26 27/14/25
f 29/14/29 28/14/28 27/14/25
f 30/14/30 28/14/28 29/14/29
f 31/14/31 30/14/30 29/14/29
f 32/14/32 30/14/30 31/14/31
f 33/14/33 32/14/32 31/14/31
f 34/14/34 32/14/32 33/14/33
f 35/14/35 34/14/34 33/14/33
f 36/14/36 34/14/34 35/14/35
f 37/14/37 36/14/36 35/14/35
f 38/15/38 29/16/29 27/17/25
f 39/18/39 29/19/29 38/20/38
f 40/21/40 39/18/39 38/20/38
f 41/20/41 39/18/39 40/21/40
f 42/22/42 41/20/41 40/21/40
f 35/17/35 41/15/41 42/23/42
f 37/24/37 35/17/35 42/23/42
f 30/14/30 43/14/43 28/14/28
f 44/14/44 43/14/43 30/14/30
f 32/14/32 44/14/44 30/14/30
f 45/14/45 44/14/44 32/14/32
f 34/14/34 45/14/45 32/14/32
f 36/14/36 45/14/45 34/14/34
f 42/23/42 46/25/46 37/24/37
f 47/26/47 46/27/46 42/22/42
f 40/21/40 47/26/47 42/22/42
f 48/22/48 47/26/47 40/21/40
f 38/20/38 48/22/48 40/21/40
f 27/17/25 48/23/48 38/15/38
f 50/28/49 49/29/50 25/30/27
f 51/31/51 49/29/50 50/28/49
f 52/32/52 51/33/51 50/34/49
f 53/34/53 51/33/51 52/32/52
f 54/35/54 53/34/53 52/32/52
f 36/36/36 53/34/53 54/35/54
f 51/31/51 55/37/55 49/29/50
f 46/29/46 55/37/55 51/31/51
f 53/28/53 46/29/46 51/31/51
f 37/30/37 46/29/46 53/28/53
f 36/38/36 37/30/37 53/28/53
f 33/16/33 41/15/41 35/17/35
f 39/18/39 41/20/41 33/19/33
f 31/39/31 39/18/39 33/19/33
f 29/19/29 39/18/39 31/39/31
f 43/14/43 26/14/26 28/14/28
f 56/14/56 26/14/26 43/14/43
f 57/14/57 56/14/56 43/14/43
f 47/40/47 55/41/55 46/42/46
f 49/42/50 55/41/55 47/40/47
f 48/22/48 49/27/50 47/26/47
f 44/14/44 57/14/57 43/14/43
f 45/14/45 57/14/57 44/14/44
f 54/14/54 45/14/45 36/14/36
f 57/14/57 45/14/45 54/14/54
f 25/43/27 48/23/48 27/17/25
f 49/25/50 48/23/48 25/43/27
f 26/38/26 50/28/49 25/30/27
f 56/35/56 50/34/49 26/36/26
f 56/35/56 52/32/52 50/34/49
f 57/44/57 52/45/52 56/46/56
f 57/44/57 54/46/54 52/45/52
o polygon4
v -0.386805 -2.312850 0.075930
v 0.302046 -2.049945 0.171185
v -0.175358 -1.642736 0.318722
v 0.513497 -1.379835 0.413976
v 1.413802 -2.312850 0.075936
v 1.202353 -1.642736 0.318726
v 0.724950 -2.049945 0.171186
v 0.814914 -1.855033 0.282809
v 0.797877 -1.384553 0.426131
v 0.718504 -1.727711 0.021158
v 0.697602 -1.271282 0.191239
v 0.308493 -1.727711 0.021157
v 0.329394 -1.271282 0.191237
v 0.212081 -1.855033 0.282808
v 0.229117 -1.384553 0.426129
v 0.697777 -1.153962 0.527198
v 0.638835 -1.068168 0.347792
v 0.388160 -1.068168 0.347792
v 0.329217 -1.153962 0.527197
v 0.245802 -1.809268 0.293287
v 0.513498 -2.091530 0.101866
v 0.379651 -1.735556 0.083170
v 0.647346 -1.735556 0.083171
v 0.781193 -1.809268 0.293289
v 0.951149 -1.339955 0.896844
v 1.231672 -1.112965 0.912318
v 0.870533 -1.106990 0.912726
v 1.004178 -1.513790 0.884993
v 1.284700 -1.286796 0.900466
v 0.923561 -1.280824 0.900874
v 1.072361 -1.680066 0.873657
v 1.352880 -1.453073 0.889130
v 0.991741 -1.447097 0.889538
v -0.201992 -1.112965 0.912314
v 0.078530 -1.339955 0.896842
v 0.159147 -1.106990 0.912724
v 0.025502 -1.513790 0.884990
v -0.255021 -1.286796 0.900461
v 0.106118 -1.280824 0.900872
v -0.042678 -1.680066 0.873654
v -0.323200 -1.453073 0.889125
v 0.037939 -1.447097 0.889536
vn -0.0000 0.3406 -0.9402
vn 0.4786 -0.2075 -0.8532
vn 0.9319 0.2820 -0.2280
vn 0.9419 0.1415 -0.3045
vn 0.5696 0.4695 -0.6746
vn -0.4786 -0.2075 -0.8532
vn -0.5696 0.4695 -0.6746
vn -0.9419 0.1415 -0.3045
vn -0.9319 0.2820 -0.2280
vn 0.5543 0.8134 0.1765
vn 0.4107 0.8819 -0.2315
vn -0.4107 0.8819 -0.2315
vn -0.5544 0.8133 0.1765
vn -0.0000 -0.8992 -0.4376
vn -0.4179 -0.2036 -0.8854
vn -0.0000 -0.2975 -0.9547
vn -0.7479 -0.3120 -0.5859
vn 0.4179 -0.2036 -0.8854
vn -0.0000 -0.5613 0.8276
vn 0.7479 -0.3120 -0.5859
vn -0.0000 0.0680 -0.9977
vn -0.0000 -0.0680 0.9977
vt 0.523193 0.599031
vt 0.604327 0.595653
vt 0.560170 0.522608
vt 0.528894 0.687653
vt 0.516847 0.761791
vt 0.514262 0.687484
vt 0.532067 0.761791
vt 0.529469 0.687231
vt 0.532631 0.761791
vt 0.515524 0.687062
vt 0.533329 0.761368
vt 0.530156 0.687231
vt 0.518110 0.761368
vt 0.532041 0.800243
vt 0.540985 0.800152
vt 0.541026 0.799307
vt 0.542248 0.799729
vt 0.533303 0.799820
vt 0.490833 0.679846
vt 0.523851 0.663218
vt 0.523851 0.679846
vt 0.490833 0.663218
vt 0.556727 0.799820
vt 0.358369 0.650474
vt 0.425784 0.938008
vt 0.489208 0.936956
vt 0.439946 0.896802
s 0
usemtl material_atlas_00012_1
f 60/47/58 59/48/58 58/49/58
f 61/49/58 59/48/58 60/47/58
f 64/48/58 63/47/58 62/49/58
f 61/49/58 63/47/58 64/48/58
s 1
f 67/50/59 66/51/60 65/52/61
f 68/53/62 66/51/60 67/50/59
f 69/54/63 68/53/62 67/50/59
f 70/55/64 68/53/62 69/54/63
f 71/56/65 70/57/64 69/58/63
f 72/59/66 70/57/64 71/56/65
f 68/53/62 73/60/67 66/51/60
f 74/61/68 73/60/67 68/53/62
f 70/55/64 74/61/68 68/53/62
f 75/62/69 74/61/68 70/55/64
f 72/59/66 75/63/69 70/57/64
f 76/64/70 75/63/69 72/59/66
f 67/65/59 71/66/71 69/67/63
f 65/68/71 71/66/71 67/65/59
f 73/60/67 75/62/69 76/69/70
f 74/61/68 75/62/69 73/60/67
f 79/70/72 78/70/73 77/70/74
f 80/70/75 78/70/73 79/70/72
s 0
f 78/70/76 81/70/76 77/70/76
s 1
f 78/70/73 80/70/75 81/70/77
s 0
f 84/71/78 83/72/78 82/73/78
f 87/71/78 86/72/78 85/73/78
f 90/71/78 89/72/78 88/73/78
f 93/71/78 92/73/78 91/72/78
f 96/71/79 95/72/79 94/73/79
f 99/71/79 98/72/79 97/73/79
o polygon8
v 0.916268 -2.578435 0.253772
v 1.325708 -2.258881 0.834194
v 0.919602 -2.211037 0.132430
v 1.082252 -1.416289 0.891638
v 0.797877 -1.384553 0.426131
v 0.797876 -0.736239 0.938001
v 0.513496 -0.720369 0.705245
v 0.513495 -0.752105 1.170755
v 0.229116 -0.736239 0.937999
v 0.513498 -2.793094 0.183492
v 0.513500 -2.616694 -0.418763
v 0.110727 -2.578435 0.253770
v 0.270250 -2.416490 -0.442330
v 0.107394 -2.211037 0.132428
v 0.345507 -2.173742 -0.435532
v 0.681493 -2.173742 -0.435531
v 0.756749 -2.416490 -0.442329
v 0.229114 -1.448026 1.357145
v 0.797874 -1.448026 1.357146
v 0.919598 -2.306721 1.535960
v -0.298716 -2.258881 0.834189
v 0.229117 -1.384553 0.426129
v -0.055260 -1.416289 0.891634
v 0.513496 -2.748902 0.800784
v 1.051628 -2.948474 0.840215
v 1.312885 -2.616342 0.834902
v 0.916265 -2.652334 1.337740
v -0.024636 -2.948474 0.840212
v 0.110724 -2.652334 1.337738
v -0.285893 -2.616342 0.834897
v 0.107390 -2.306721 1.535957
v 0.513502 -1.984641 -1.180524
vn 0.7054 0.5257 -0.4754
vn 0.9999 -0.0020 0.0105
vn 0.6763 -0.6129 -0.4085
vn 0.9418 0.3354 0.0229
vn 0.4877 0.4183 -0.7663
vn 0.7233 0.6890 0.0470
vn -0.0000 0.8530 -0.5219
vn -0.0000 0.7743 0.6329
vn -0.7233 0.6890 0.0470
vn -0.6763 -0.6129 -0.4085
vn -0.0000 -0.8974 -0.4412
vn -0.0000 -0.9945 -0.1050
vn -0.9033 -0.2147 -0.3715
vn -0.7683 0.3559 -0.5320
vn -0.4593 0.8878 -0.0288
vn 0.5832 0.8103 -0.0574
vn 0.9033 -0.2147 -0.3715
vn -0.4877 0.3104 0.8159
vn 0.4877 0.3104 0.8159
vn 0.5072 -0.1074 0.8551
vn -0.9999 -0.0019 0.0105
vn -0.4877 0.4183 -0.7663
vn -0.9418 0.3354 0.0229
vn 0.2595 -0.9656 -0.0185
vn -0.0000 -0.9995 0.0311
vn 0.9347 -0.3549 0.0178
vn 0.4091 -0.6575 0.6327
vn -0.4091 -0.6575 0.6327
vn -0.2595 -0.9656 -0.0185
vn -0.9347 -0.3549 0.0178
vn -0.5073 -0.1074 0.8551
vn -0.0000 0.1952 -0.9808
vt 0.356621 0.649110
vt 0.486035 0.650877
vt 0.486035 0.750930
vt 0.486035 0.754438
vt 0.486035 0.753425
vt 0.520446 0.841397
vt 0.560106 0.939164
vt 0.520446 0.941372
vt 0.599753 0.841397
vt 0.598571 0.842241
vt 0.616739 0.720792
vt 0.599838 0.840975
vt 0.460898 0.865040
vt 0.388440 0.841397
vt 0.405426 0.720792
vt 0.510025 0.755815
vt 0.520459 0.629988
vt 0.428744 0.581117
vt 0.499616 0.530064
vt 0.428293 0.640328
vt 0.427493 0.687744
vt 0.560041 0.613646
vt 0.639606 0.640328
vt 0.638806 0.687744
vt 0.640058 0.581117
vt 0.584998 0.517957
vt 0.616274 0.672259
vt 0.616690 0.671837
vt 0.560106 0.628429
vt 0.617071 0.720792
vt 0.616226 0.720792
vt 0.599753 0.941372
vt 0.388440 0.941372
vt 0.404961 0.672259
s 1
usemtl material_atlas_00012_1
f 102/74/80 101/74/81 100/74/82
f 103/74/83 101/74/81 102/74/80
f 104/74/84 103/74/83 102/74/80
f 105/74/85 103/74/83 104/74/84
f 106/74/86 105/74/85 104/74/84
f 107/74/87 105/74/85 106/74/86
f 108/74/88 107/74/87 106/74/86
f 111/75/89 110/76/90 109/75/91
f 112/77/92 110/76/90 111/75/89
f 113/75/93 112/77/92 111/75/89
f 114/78/94 112/77/92 113/75/93
f 102/75/80 114/78/94 113/75/93
f 115/78/95 114/78/94 102/75/80
f 116/77/96 115/78/95 102/75/80
f 117/79/97 107/80/87 108/81/88
f 118/82/98 107/80/87 117/83/97
f 119/84/99 118/82/98 117/85/97
f 103/86/83 118/87/98 119/88/99
f 101/89/81 103/86/83 119/88/99
f 120/74/100 113/74/93 111/74/89
f 121/74/101 113/74/93 120/74/100
f 122/74/102 121/74/101 120/74/100
f 108/74/88 121/74/101 122/74/102
f 100/90/82 124/91/103 123/92/104
f 125/93/105 124/91/103 100/90/82
f 101/94/81 125/93/105 100/90/82
f 126/95/106 125/96/105 101/97/81
f 128/95/107 127/98/108 123/99/104
f 129/96/109 127/98/108 128/95/107
f 120/97/100 129/96/109 128/95/107
f 111/90/89 129/93/109 120/94/100
f 126/100/106 128/101/107 123/102/104
f 130/103/110 128/101/107 126/100/106
f 119/84/99 130/103/110 126/100/106
f 117/85/97 130/104/110 119/84/99
f 131/74/111 110/74/90 112/74/92
f 116/74/96 110/74/90 131/74/111
f 115/74/95 116/74/96 131/74/111
f 118/82/98 105/105/85 107/80/87
f 103/86/83 105/106/85 118/87/98
f 122/86/102 117/87/97 108/106/88
f 120/89/100 117/87/97 122/86/102
f 106/74/86 121/74/101 108/74/88
f 104/74/84 121/74/101 106/74/86
f 124/98/103 126/95/106 123/99/104
f 125/96/105 126/95/106 124/98/103
f 127/91/108 111/90/89 123/92/104
f 129/93/109 111/90/89 127/91/108
f 109/74/91 123/74/104 111/74/89
f 100/74/82 123/74/104 109/74/91
f 130/88/110 120/89/100 128/107/107
f 117/87/97 120/89/100 130/88/110
f 113/74/93 104/74/84 102/74/80
f 121/74/101 104/74/84 113/74/93
f 131/74/111 114/74/94 115/74/95
f 112/74/92 114/74/94 131/74/111
f 110/76/90 100/75/82 109/75/91
f 116/77/96 100/75/82 110/76/90
f 126/107/106 101/89/81 119/88/99
f 100/75/82 116/77/96 102/75/80
o polygon10
v 0.512664 -2.102090 -0.991526
v 0.896624 -1.789506 -0.833430
v 0.512663 -2.240419 -0.744017
v 0.514342 -2.102087 -0.991526
v 0.129759 -1.790103 -0.833765
v 0.514342 -2.240415 -0.744017
vn -0.6737 0.6451 0.3605
vn -0.6723 -0.6462 -0.3611
vt 0.552722 0.615361
s 0
usemtl material_atlas_00012_1
f 134/108/112 133/108/112 132/108/112
f 137/108/113 136/108/113 135/108/113
