# Blender 4.2.1 LTS
# www.blender.org
mtllib charmeleon_s.mtl
o Pii_RIZAADO_body2
v 0.876304 -2.814806 0.043942
v 1.320612 -2.440571 0.785525
v 1.272731 -2.814806 0.785525
v 0.900247 -2.241033 0.057431
v 0.491854 -2.033497 -1.289800
v 0.059517 -2.241033 0.057431
v 0.083460 -2.814806 0.043942
v -0.312967 -2.814806 0.785525
v 1.128905 -1.550153 0.785524
v 0.804394 -1.550153 0.351244
v 0.155371 -1.550153 0.351244
v -0.360848 -2.440571 0.785525
v -0.169140 -1.550153 0.785524
v 0.876304 -2.814806 1.326788
v 0.083460 -2.814806 1.326788
v 0.479882 -2.934755 0.785525
v 0.059517 -2.440571 1.513618
v 0.900247 -2.440571 1.513618
v 0.155371 -1.550153 1.317957
v 0.804394 -1.550153 1.317957
v 0.479882 -1.467342 0.785524
vn 0.6635 -0.5923 -0.4572
vn 0.9665 -0.1339 -0.2189
vn 0.8357 -0.5247 0.1621
vn 0.6635 -0.5923 -0.4571
vn 0.7684 0.1931 -0.6102
vn 0.9665 -0.1340 -0.2189
vn 0.6224 -0.5838 -0.5214
vn 0.7684 0.1932 -0.6102
vn 0.6634 -0.5923 -0.4572
vn -0.0000 0.9883 0.1523
vn -0.2800 0.6729 -0.6847
vn 0.5280 0.6211 -0.5792
vn -0.5848 -0.6878 -0.4301
vn -0.6941 0.1788 -0.6973
vn -0.6173 -0.5816 -0.5297
vn -0.5849 -0.6878 -0.4300
vn -0.8798 -0.4687 -0.0791
vn 0.7347 0.3956 -0.5510
vn 0.6299 0.7316 -0.2607
vn 0.7347 0.3957 -0.5510
vn 0.2095 0.7388 -0.6405
vn 0.6300 0.7316 -0.2606
vn -0.6722 0.3609 -0.6464
vn 0.2096 0.7388 -0.6405
vn 0.7348 0.3956 -0.5510
vn -0.4437 0.7065 -0.5514
vn -0.9868 -0.1166 -0.1127
vn -0.4436 0.7064 -0.5515
vn -0.5601 0.8008 -0.2121
vn -0.4436 0.7065 -0.5514
vn 0.1890 -0.7481 0.6360
vn -0.3760 -0.7123 0.5926
vn -0.0000 -0.9990 0.0440
vn 0.1890 -0.7481 0.6361
vn -0.2348 -0.3216 0.9173
vn -0.3760 -0.7124 0.5926
vn 0.3465 -0.1893 0.9187
vn -0.0600 0.7198 0.6916
vn 0.0718 0.8069 0.5863
vn -0.0601 0.7198 0.6916
vn -0.0000 0.9999 -0.0115
vn 0.6300 0.7315 -0.2606
vn -0.0601 0.7197 0.6916
vn -0.5601 0.8008 -0.2122
vn -0.0601 0.7197 0.6917
vn 0.5430 -0.7003 -0.4634
vn -0.4425 -0.7863 -0.4313
vn 0.0033 -0.6415 -0.7671
vn -0.0000 -0.9990 0.0439
vn -0.4425 -0.7862 -0.4313
vn 0.0001 0.9999 -0.0115
vn -0.4437 0.7064 -0.5515
vn 0.8357 -0.5246 0.1622
vn 0.3465 -0.1893 0.9188
vn 0.8358 -0.5246 0.1621
vn -0.3760 -0.7124 0.5925
vn -0.9868 -0.1165 -0.1127
vn -0.0001 0.9999 -0.0115
vn -0.8798 -0.4687 -0.0792
vt 0.256304 0.329978
vt 0.245904 0.335283
vt 0.245904 0.329978
vt 0.256111 0.338110
vt 0.275004 0.339069
vt 0.245904 0.347903
vt 0.253369 0.347903
vt 0.218950 0.300997
vt 0.112314 0.300997
vt 0.165639 0.292785
vt 0.109097 0.326639
vt 0.222167 0.326639
vt 0.121992 0.387658
vt 0.209272 0.387658
vt 0.165639 0.386536
vt 0.252918 0.387658
vt 0.078345 0.387658
vt 0.202034 0.303820
vt 0.128180 0.303820
vt 0.166225 0.315702
vt 0.165107 0.299892
vt 0.245904 0.349079
vt 0.272261 0.300997
vt 0.278708 0.326639
vt 0.326753 0.300997
vt 0.267008 0.326639
vt 0.273442 0.300997
vt 0.323536 0.326639
s 0
usemtl material_atlas_00014_1
f 1/1/1 2/2/2 3/3/3
f 1/1/4 4/4/5 2/2/6
f 5/5/7 4/4/8 1/1/9
f 5/5/10 6/4/11 4/4/12
f 7/1/13 6/4/14 5/5/15
f 7/1/16 8/3/17 6/4/14
f 4/4/18 9/6/19 2/2/2
f 4/4/20 10/7/21 9/6/22
f 6/4/23 10/7/24 4/4/25
f 6/4/23 11/7/26 10/7/24
f 12/2/27 11/7/28 6/4/23
f 12/2/27 13/6/29 11/7/30
f 14/8/31 15/9/32 16/10/33
f 14/8/34 17/11/35 15/9/36
f 18/12/37 17/11/35 14/8/34
f 18/12/37 19/13/38 17/11/35
f 20/14/39 19/13/40 18/12/37
f 21/15/41 20/14/39 9/16/42
f 21/15/41 19/13/43 20/14/39
f 13/17/44 19/13/45 21/15/41
f 1/18/46 7/19/47 5/20/48
f 1/18/46 16/21/49 7/19/50
f 10/7/24 21/22/51 9/6/42
f 10/7/24 11/7/52 21/22/41
f 3/23/53 18/12/54 14/8/34
f 3/23/55 2/24/6 18/12/54
f 15/25/56 12/26/27 8/27/17
f 15/25/36 17/28/35 12/26/57
f 11/7/28 13/6/44 21/22/58
f 8/3/59 12/2/27 6/4/14
o Pii_RIZAADO_eye
v 1.294172 -0.666602 0.733477
v 1.233386 -0.132022 0.733477
v 1.021820 -0.132022 1.511416
v -0.062056 -0.132022 1.511416
v -0.135479 -0.748266 1.546788
v -0.334408 -0.666602 0.733477
v 1.095243 -0.748266 1.546788
v -0.273621 -0.132022 0.733477
v 0.479882 -0.586942 1.661484
vn -0.6260 0.4208 0.6565
vn -0.7536 0.3413 0.5618
vn 0.0012 0.5216 0.8532
vn -0.9777 0.2077 0.0314
vn -0.7536 0.3412 0.5618
vn -0.9477 0.3189 0.0106
vn -0.6260 0.4208 0.6566
vn 0.6260 0.4208 0.6566
vn 0.9777 0.2077 0.0314
vn 0.9477 0.3190 0.0106
vn 0.6260 0.4208 0.6565
vn 0.7547 0.3422 0.5597
vn 0.7548 0.3421 0.5597
vt 0.275435 0.933896
vt 0.271095 0.832938
vt 0.248354 0.856393
vt 0.394001 0.844809
vt 0.178484 0.933896
vt 0.178484 0.844809
vt 0.059918 0.933896
s 0
usemtl material_atlas_00014_1
f 25/29/60 26/30/61 30/31/62
f 25/29/60 27/32/63 26/30/64
f 29/33/65 27/34/63 25/35/66
f 24/35/67 22/34/68 23/33/69
f 24/29/70 28/30/71 22/32/68
f 30/31/62 28/30/72 24/29/70
o Pii_RIZAADO_fire2
v 0.686738 -1.537796 -1.182858
v 0.305439 -1.537796 -1.402999
v 0.771757 -1.063435 -1.096874
v 0.298715 -1.827179 -1.522167
v 0.810737 -1.827179 -1.226552
v 0.485246 -2.066530 -1.226552
v 0.305439 -1.537796 -0.962711
v 0.298715 -1.827179 -0.930937
vn 0.4852 0.2417 -0.8404
vn 0.4901 0.1984 -0.8488
vn 0.4989 0.0672 -0.8641
vn 0.4852 0.2417 -0.8403
vn 0.4997 0.0331 -0.8656
vn 0.4956 -0.1321 -0.8585
vn -0.2629 -0.8243 -0.5015
vn 0.2301 -0.2118 -0.9499
vn 0.4998 -0.0247 0.8658
vn 0.4984 -0.0792 0.8633
vn 0.4855 -0.2394 0.8408
vn 0.4999 -0.0246 0.8658
vn 0.4951 -0.1390 0.8576
vn 0.4984 -0.0791 0.8633
vn 0.4836 -0.2541 0.8376
vn 0.4952 -0.1390 0.8576
vn 0.0639 -0.5682 0.8204
vn -0.2629 -0.8243 0.5015
vn -0.9641 0.2657 -0.0000
vn -0.9210 0.3895 -0.0000
vn -0.7131 0.7010 -0.0000
vn -0.9641 0.2656 -0.0000
vn -0.9799 -0.1997 -0.0000
vn -0.9211 0.3894 -0.0000
vn -0.9494 -0.3139 -0.0000
vn -0.7115 -0.5970 -0.3706
vn 0.0220 -0.9998 0.0001
vn -0.8712 -0.4147 0.2627
vt 0.515421 0.577642
vt 0.517712 0.577642
vt 0.516567 0.584515
vt 0.517712 0.570770
vt 0.515421 0.570770
vt 0.516567 0.563897
vt 0.513130 0.577642
vt 0.514276 0.584515
vt 0.513130 0.570770
vt 0.514276 0.563897
vt 0.510839 0.577642
vt 0.511985 0.584515
vt 0.510839 0.570770
vt 0.511985 0.563897
s 0
usemtl material_atlas_00014_1
f 31/36/73 32/37/74 33/38/75
f 31/36/76 34/39/77 32/37/74
f 35/40/78 34/39/77 31/36/76
f 35/40/78 36/41/79 34/39/80
f 37/42/81 31/36/82 33/43/83
f 37/42/84 35/40/85 31/36/86
f 38/44/87 35/40/88 37/42/84
f 38/44/89 36/45/90 35/40/88
f 32/46/91 37/42/92 33/47/93
f 32/46/94 38/44/95 37/42/96
f 34/48/97 38/44/95 32/46/94
f 34/48/98 36/49/99 38/44/100
o Pii_RIZAADO_mouth2
v 0.479882 -1.413026 1.512096
v 0.816908 -1.189209 1.847219
v 0.479882 -1.197933 1.896145
v 1.157542 -1.180400 1.528310
v 1.092777 -1.470706 0.733477
v 1.330270 -1.108895 0.733477
v 1.059476 -1.108895 -0.062224
v 1.371950 -0.886069 0.733477
v 1.101084 -0.620456 -0.262168
v 1.294172 -0.666602 0.733477
v 1.020846 -0.132022 -0.122595
v 1.233386 -0.132022 0.733477
v 0.991529 0.276610 0.733477
v 1.021820 -0.132022 1.511416
v 0.479882 0.198747 1.286600
v 0.479882 -0.132022 1.621570
v -0.062056 -0.132022 1.511416
v 0.479882 -1.390712 0.270666
v 0.479882 -1.613944 0.733477
v -0.133012 -1.470706 0.733477
v -0.197778 -1.180400 1.528310
v -0.370505 -1.108895 0.733477
v -0.213763 -0.962694 1.537617
v -0.412185 -0.886069 0.733477
v -0.135479 -0.748266 1.546788
v -0.334408 -0.666602 0.733477
v 0.153387 -1.189483 1.852933
v 0.145683 -0.988580 1.900180
v 0.479882 -1.012671 1.978698
v 0.824855 -0.987804 1.893329
v 0.785921 -0.786256 1.882869
v 1.095243 -0.748266 1.546788
v 0.479882 -0.263684 -0.382818
v 0.479882 0.288110 0.066575
v -0.061082 -0.132022 -0.122595
v -0.031764 0.276610 0.733477
v -0.273621 -0.132022 0.733477
v 0.183404 -0.787434 1.889117
v 0.479882 -0.823881 1.948807
v 0.479882 0.353966 0.733477
v -0.099711 -1.108895 -0.062224
v 1.173528 -0.962694 1.537617
v -0.141320 -0.620456 -0.262168
v 0.479882 -1.000303 -0.326492
v 0.479882 -0.586942 1.661484
v 0.253478 0.069648 0.716146
v 0.378395 0.685775 -0.357763
v 0.253478 0.069648 -0.005777
v 0.378395 0.834012 -0.219113
v 0.706287 0.069648 0.716146
v 0.581369 0.834012 -0.219113
v 0.706287 0.069648 -0.005777
v 0.581369 0.685775 -0.357763
vn 0.0009 -0.9381 0.3463
vn 0.4454 -0.5219 0.7275
vn 0.0052 -0.5385 0.8426
vn 0.0009 -0.9382 0.3462
vn 0.7160 -0.5818 0.3858
vn 0.4455 -0.5219 0.7275
vn 0.4772 -0.8751 -0.0805
vn 0.7160 -0.5818 0.3859
vn 0.9483 -0.3174 -0.0074
vn 0.6281 -0.5774 -0.5217
vn 0.9483 -0.3174 -0.0075
vn 0.6280 -0.5774 -0.5217
vn 0.9972 0.0743 -0.0106
vn 0.7319 0.0373 -0.6804
vn 0.6280 -0.5774 -0.5218
vn 0.9777 0.2077 0.0314
vn 0.9972 0.0744 -0.0107
vn 0.7229 0.4798 -0.4972
vn 0.9777 0.2078 0.0313
vn 0.7319 0.0373 -0.6803
vn 0.9477 0.3190 0.0106
vn 0.9777 0.2077 0.0313
vn 0.5219 0.8517 0.0476
vn 0.9477 0.3190 0.0105
vn 0.6260 0.4208 0.6566
vn -0.0000 0.8736 0.4867
vn -0.0000 0.4273 0.9041
vn 0.6260 0.4208 0.6565
vn -0.6260 0.4208 0.6565
vn -0.0000 -0.8832 -0.4689
vn -0.0000 -0.9951 -0.0989
vn 0.0001 -0.8832 -0.4689
vn 0.0009 -0.9381 0.3462
vn 0.0008 -0.9381 0.3462
vn -0.4772 -0.8751 -0.0805
vn -0.7150 -0.5817 0.3877
vn 0.0008 -0.9381 0.3463
vn -0.7151 -0.5817 0.3877
vn -0.9482 -0.3174 -0.0074
vn -0.8696 0.0023 0.4938
vn -0.9483 -0.3174 -0.0074
vn -0.7150 -0.5817 0.3878
vn -0.8696 0.0024 0.4938
vn -0.9972 0.0743 -0.0106
vn -0.7536 0.3412 0.5619
vn -0.9972 0.0744 -0.0106
vn -0.8695 0.0024 0.4938
vn -0.9777 0.2078 0.0314
vn -0.4390 -0.5238 0.7300
vn -0.8695 0.0024 0.4939
vn -0.7150 -0.5818 0.3877
vn -0.4820 -0.0590 0.8742
vn -0.8695 0.0023 0.4939
vn 0.0051 -0.5384 0.8427
vn -0.4819 -0.0589 0.8742
vn -0.4389 -0.5239 0.7300
vn 0.0052 -0.5384 0.8427
vn 0.0062 -0.0516 0.9986
vn 0.4896 -0.0562 0.8701
vn 0.0062 -0.0517 0.9986
vn 0.4895 -0.0562 0.8702
vn 0.3340 0.4673 0.8186
vn 0.7547 0.3421 0.5598
vn 0.0001 0.3083 -0.9513
vn -0.0000 0.3083 -0.9513
vn -0.0000 0.8915 -0.4530
vn -0.7229 0.4798 -0.4972
vn -0.5219 0.8517 0.0476
vn -0.9477 0.3190 0.0106
vn -0.9477 0.3190 0.0107
vn -0.6260 0.4208 0.6566
vn -0.4820 -0.0589 0.8742
vn -0.3258 0.4666 0.8223
vn -0.7536 0.3411 0.5619
vn 0.0060 0.4988 0.8667
vn -0.0000 0.8915 -0.4529
vn -0.0000 0.9962 0.0875
vn -0.0000 0.8736 0.4866
vn -0.0001 0.9962 0.0876
vn -0.0001 -0.8832 -0.4689
vn -0.6280 -0.5774 -0.5218
vn -0.9483 -0.3174 -0.0075
vn -0.6281 -0.5774 -0.5217
vn -0.6280 -0.5774 -0.5217
vn 0.8710 0.0033 0.4913
vn 0.7159 -0.5819 0.3859
vn 0.4454 -0.5219 0.7274
vn -0.7229 0.4798 -0.4973
vn -0.9777 0.2077 0.0313
vn -0.7319 0.0373 -0.6804
vn -0.9777 0.2078 0.0313
vn -0.0001 0.3083 -0.9513
vn -0.7319 0.0373 -0.6803
vn -0.7229 0.4797 -0.4972
vn -0.0000 -0.4742 -0.8804
vn -0.0000 -0.8832 -0.4690
vn 0.0001 -0.4742 -0.8804
vn -0.0000 -0.4741 -0.8804
vn 0.7320 0.0373 -0.6803
vn -0.7320 0.0373 -0.6803
vn -0.0001 -0.4741 -0.8805
vn -0.4389 -0.5238 0.7300
vn 0.7547 0.3422 0.5597
vn 0.9972 0.0744 -0.0106
vn 0.9777 0.2078 0.0314
vn 0.8710 0.0034 0.4913
vn 0.9972 0.0744 -0.0105
vn 0.9972 0.0743 -0.0105
vn 0.9483 -0.3173 -0.0074
vn -0.0000 0.9962 0.0876
vn -0.0000 0.4272 0.9041
vn 0.0013 0.5216 0.8532
vn 0.0012 0.5216 0.8532
vn -0.3258 0.4666 0.8222
vn -0.8579 0.4533 0.2422
vn -0.6607 0.5472 -0.5139
vn -0.9801 0.1987 -0.0000
vn -0.9901 0.1349 -0.0378
vn -0.6696 0.5073 -0.5424
vn -0.5960 0.3439 -0.7256
vn 0.4208 0.7291 0.5397
vn -0.0000 0.9724 0.2333
vn -0.6452 0.6405 0.4166
vn 0.3742 0.8726 -0.3138
vn 0.9875 0.1429 -0.0663
vn 0.6027 0.7420 -0.2938
vn 0.4209 0.7291 0.5397
vn 0.8876 -0.0950 -0.4507
vn 0.3531 -0.0664 -0.9332
vn 0.6515 0.5460 -0.5267
vn -0.0000 -0.4960 -0.8683
vn 0.3531 -0.0665 -0.9332
vn 0.6775 -0.2565 -0.6893
vn -0.3596 0.3400 -0.8690
vn 0.6027 0.7420 -0.2936
vn -0.5960 0.3438 -0.7256
vn -0.3902 0.9029 0.1804
vn 0.3532 -0.0665 -0.9332
vt 0.727083 0.745255
vt 0.796077 0.770717
vt 0.727083 0.769500
vt 0.865769 0.771940
vt 0.832757 0.739380
vt 0.888552 0.779222
vt 0.850322 0.779222
vt 0.892091 0.801901
vt 0.859156 0.828940
vt 0.895552 0.824246
vt 0.842108 0.878663
vt 0.866001 0.878663
vt 0.809148 0.924766
vt 0.833377 0.878663
vt 0.727083 0.918167
vt 0.727083 0.878663
vt 0.620815 0.878663
vt 0.727083 0.741646
vt 0.727083 0.724800
vt 0.621409 0.739380
vt 0.588423 0.771940
vt 0.565615 0.779222
vt 0.592117 0.794105
vt 0.562101 0.801901
vt 0.595759 0.815931
vt 0.558640 0.824246
vt 0.675731 0.771723
vt 0.623966 0.805060
vt 0.621151 0.773517
vt 0.677075 0.801308
vt 0.726515 0.770051
vt 0.726515 0.797820
vt 0.777531 0.801419
vt 0.776162 0.831534
vt 0.826299 0.837038
vt 0.727083 0.865257
vt 0.727083 0.916150
vt 0.612084 0.878663
vt 0.645045 0.924766
vt 0.588191 0.878663
vt 0.626730 0.837038
vt 0.678418 0.831364
vt 0.726515 0.826082
vt 0.727083 0.702336
vt 0.727083 0.721098
vt 0.809148 0.710952
vt 0.645045 0.710952
vt 0.727083 0.704352
vt 0.603870 0.779222
vt 0.778926 0.771776
vt 0.829063 0.805060
vt 0.831853 0.773517
vt 0.595036 0.828940
vt 0.718740 0.907561
vt 0.718740 0.890503
vt 0.620014 0.903681
vt 0.817439 0.903681
vt 0.824543 0.921120
vt 0.718740 0.933859
vt 0.612937 0.921120
vt 0.660259 0.770680
vt 0.858433 0.815931
vt 0.862075 0.794105
vt 0.727083 0.832354
vt 0.676015 0.904893
vt 0.727006 0.941581
vt 0.621202 0.912059
vt 0.727006 0.898225
vt 0.779649 0.905105
vt 0.832809 0.912059
vt 0.624302 0.727234
vt 0.687484 0.759476
vt 0.687484 0.770590
vt 0.835909 0.727234
vt 0.772726 0.770590
vt 0.772726 0.759476
s 0
usemtl material_atlas_00014_1
f 39/50/101 40/51/102 41/52/103
f 39/50/104 42/53/105 40/51/106
f 43/54/107 42/53/108 39/50/101
f 43/54/107 44/55/109 42/53/105
f 45/56/110 44/55/111 43/54/107
f 45/56/112 46/57/113 44/55/111
f 47/58/114 46/57/113 45/56/115
f 47/58/114 48/59/116 46/57/117
f 49/60/118 48/59/119 47/58/120
f 49/60/118 50/61/121 48/59/122
f 51/62/123 50/61/124 49/60/118
f 51/62/123 52/63/125 50/61/121
f 53/64/126 52/63/125 51/62/123
f 53/64/126 54/65/127 52/63/128
f 55/66/129 54/65/127 53/64/126
f 43/54/107 56/67/130 45/56/115
f 43/54/107 57/68/131 56/67/132
f 39/50/133 57/68/131 43/54/107
f 39/50/134 58/69/135 57/68/131
f 59/70/136 58/69/135 39/50/137
f 59/70/138 60/71/139 58/69/135
f 61/72/140 60/71/141 59/70/142
f 61/72/143 62/73/144 60/71/141
f 63/74/145 62/73/146 61/72/147
f 63/74/145 64/75/148 62/73/146
f 65/76/149 61/77/150 59/78/151
f 65/76/149 66/79/152 61/77/153
f 41/80/154 66/79/155 65/76/156
f 41/80/157 67/81/158 66/79/155
f 68/82/159 67/81/160 41/80/157
f 68/82/161 69/83/162 67/81/158
f 70/84/163 69/83/162 68/82/159
f 71/85/164 49/60/118 47/58/120
f 71/85/165 72/86/166 49/60/118
f 73/87/167 72/86/166 71/85/165
f 73/87/167 74/88/168 72/86/166
f 75/89/169 74/88/168 73/87/167
f 75/89/170 55/66/171 74/88/168
f 66/79/172 63/90/145 61/77/150
f 66/79/155 76/91/173 63/90/174
f 67/81/158 76/91/173 66/79/155
f 67/81/158 77/92/175 76/91/173
f 69/83/162 77/92/175 67/81/158
f 72/86/176 51/62/123 49/60/118
f 72/93/166 78/94/177 51/95/123
f 74/96/168 78/94/177 72/93/166
f 74/96/168 53/97/178 78/94/179
f 55/66/171 53/64/178 74/88/168
f 58/69/135 56/67/180 57/68/131
f 58/69/135 79/98/181 56/67/130
f 60/71/182 79/98/183 58/69/135
f 60/71/182 62/73/144 79/98/184
f 40/99/102 68/82/161 41/80/157
f 40/99/102 80/100/185 68/82/159
f 42/101/186 80/100/185 40/99/187
f 73/87/188 64/75/189 75/89/169
f 73/87/167 81/102/190 64/75/191
f 71/85/192 81/102/193 73/87/194
f 82/103/195 56/104/196 79/105/183
f 82/103/195 45/106/110 56/104/196
f 47/107/120 45/106/110 82/103/197
f 82/103/198 71/108/165 47/107/199
f 82/103/198 81/109/200 71/108/165
f 79/105/183 81/109/200 82/103/201
f 65/110/149 39/50/137 41/52/157
f 65/110/202 59/70/142 39/50/137
f 62/73/144 81/102/190 79/98/184
f 62/73/146 64/75/148 81/102/193
f 70/111/203 46/57/204 48/59/205
f 70/111/203 80/112/206 46/57/207
f 80/112/185 44/55/109 46/57/208
f 80/112/185 42/53/105 44/55/209
f 68/82/159 80/100/206 70/84/163
f 78/94/210 53/97/178 51/95/123
f 54/65/211 83/113/212 52/63/128
f 54/65/211 55/66/129 83/113/213
f 76/114/173 83/115/212 63/116/174
f 76/114/214 77/117/175 83/115/212
f 69/118/162 83/115/212 77/117/175
f 69/118/162 70/119/163 83/115/213
f 84/120/215 85/121/216 86/120/217
f 84/120/218 87/122/219 85/121/220
f 88/123/221 87/122/222 84/120/223
f 88/123/221 89/124/224 87/122/222
f 90/123/225 89/124/226 88/123/227
f 90/123/228 91/125/229 89/124/230
f 86/120/231 91/125/232 90/123/233
f 86/120/231 85/121/234 91/125/232
f 89/124/235 85/121/236 87/122/237
f 89/124/235 91/125/238 85/121/236
o Pii_RIZAADO_tume2
v 0.876304 -2.814806 0.043942
v 1.320612 -2.440571 0.785525
v 1.272731 -2.814806 0.785525
v 0.083460 -2.814806 0.043942
v -0.312967 -2.814806 0.785525
v 1.128905 -1.550153 0.785524
v -0.360848 -2.440571 0.785525
v -0.169140 -1.550153 0.785524
v 0.876304 -2.814806 1.326788
v 0.083460 -2.814806 1.326788
v 0.479882 -2.934755 0.785525
v 0.059517 -2.440571 1.513618
v 0.900247 -2.440571 1.513618
v 0.155371 -1.550153 1.317957
v 0.804394 -1.550153 1.317957
v 0.083455 -3.051761 0.785525
v 0.876309 -3.051761 0.785525
v 1.638399 -1.941972 1.564138
v -0.678635 -1.941972 1.564138
vn -0.1279 -0.9904 0.0523
vn -0.8798 -0.4686 -0.0791
vn -0.4425 -0.7862 -0.4313
vn -0.1280 -0.9904 0.0523
vn -0.3760 -0.7124 0.5926
vn -0.8798 -0.4686 -0.0792
vn 0.0001 -0.9990 0.0440
vn -0.3760 -0.7123 0.5927
vn 0.1280 -0.9904 0.0523
vn 0.8357 -0.5246 0.1621
vn 0.1890 -0.7482 0.6360
vn 0.1279 -0.9904 0.0523
vn 0.5430 -0.7004 -0.4633
vn 0.8357 -0.5246 0.1622
vn -0.0000 -0.9990 0.0440
vn 0.0589 -0.9451 -0.3214
vn 0.1279 -0.9904 0.0524
vn 0.4133 0.1789 0.8929
vn 0.0718 0.8069 0.5863
vn 0.3466 -0.1893 0.9187
vn 0.5743 0.7160 0.3970
vn 0.6300 0.7316 -0.2606
vn 0.9665 -0.1339 -0.2188
vn 0.6299 0.7316 -0.2606
vn 0.9859 0.1652 0.0278
vn -0.9859 0.1652 0.0278
vn -0.5600 0.8008 -0.2122
vn -0.9868 -0.1166 -0.1127
vn -0.5743 0.7159 0.3970
vn -0.0601 0.7198 0.6916
vn -0.5601 0.8008 -0.2122
vn -0.2348 -0.3216 0.9173
vn -0.4133 0.1789 0.8929
vn -0.0589 -0.9451 -0.3215
vn -0.0000 -0.9990 0.0439
vn 0.1890 -0.7481 0.6361
vn 0.3465 -0.1893 0.9188
vn 0.9665 -0.1340 -0.2188
vn 0.7978 -0.2846 0.5316
vn -0.2347 -0.3216 0.9173
vn -0.7977 -0.2846 0.5316
vt 0.634551 0.564116
vt 0.634551 0.583732
s 0
usemtl material_atlas_00014_1
f 107/126/239 96/127/240 95/127/241
f 107/126/242 101/127/243 96/127/244
f 102/127/245 101/127/246 107/126/242
f 108/126/247 94/127/248 100/127/249
f 108/126/250 92/127/251 94/127/252
f 102/127/253 92/127/254 108/126/255
f 109/126/256 106/127/257 104/127/258
f 109/126/259 97/127/260 106/127/257
f 93/127/261 97/127/262 109/126/263
f 110/126/264 99/127/265 98/127/266
f 110/126/267 105/127/268 99/127/269
f 103/127/270 105/127/268 110/126/271
f 107/126/242 95/127/272 102/127/273
f 108/126/247 100/127/274 102/127/253
f 104/127/275 93/127/276 109/126/277
f 98/127/266 103/127/278 110/126/279
