# Blender 4.2.1 LTS
# www.blender.org
mtllib kakuna.mtl
o polygon0
v 0.500000 -3.039596 1.084931
v -0.148800 -2.607898 0.928308
v 0.136425 -2.607898 1.442274
v -0.301231 -1.862162 0.859746
v -0.026529 -2.020701 1.494957
v 0.143644 -1.619791 1.444432
v 1.026529 -2.020701 1.494957
v 0.856355 -1.619791 1.444432
v 1.301231 -1.862162 0.859746
v 1.212718 -1.619791 0.859746
v 0.136425 -2.607898 0.326416
v 0.053718 -1.862162 0.167622
v 0.143644 -1.619791 0.275061
v -0.212718 -1.619791 0.859746
v 0.500000 -1.315949 1.253057
v 0.856355 -1.619791 0.275061
v 0.946281 -1.862162 0.167622
v 0.863575 -2.607898 0.326416
v 1.148800 -2.607898 0.928308
v 0.863575 -2.607898 1.442274
v 1.026529 -1.538740 -0.065122
v 1.553058 -1.767272 0.883374
v 0.500000 -0.471805 0.859746
v 1.240498 -1.566958 1.210079
v 0.996793 -1.542755 1.361680
v 0.003207 -1.542755 1.361680
v -0.240498 -1.566958 1.210079
v -0.553058 -1.767272 0.883374
v -0.026529 -1.538740 -0.065122
v 1.026529 -1.796602 0.034149
v 1.553058 -1.923791 0.793500
v 0.500000 -0.729667 0.959024
v 1.262321 -1.972132 1.360281
v 0.996793 -1.800618 1.460951
v 0.003207 -1.800618 1.460951
v -0.262321 -1.972132 1.360281
v -0.553058 -1.923791 0.793500
v -0.026529 -1.796602 0.034149
vn -0.4385 -0.5032 0.7446
vn -0.8184 -0.5744 0.0161
vn -0.0000 -0.9955 0.0946
vn -0.9948 0.1018 -0.0031
vn -0.5100 0.0574 0.8582
vn -0.3831 0.5272 0.7585
vn 0.5100 0.0574 0.8582
vn 0.3831 0.5272 0.7585
vn 0.9948 0.1018 -0.0031
vn 0.6965 0.7163 0.0427
vn -0.4155 -0.6391 -0.6472
vn -0.5144 0.1185 -0.8493
vn -0.3201 0.7821 -0.5347
vn -0.6965 0.7163 0.0427
vn -0.0000 0.9869 0.1614
vn 0.3200 0.7821 -0.5347
vn 0.5145 0.1185 -0.8493
vn 0.4155 -0.6391 -0.6472
vn 0.8184 -0.5744 0.0161
vn 0.4385 -0.5032 0.7447
vn -0.0000 0.9412 0.3380
vn 0.7753 0.6308 0.0316
vn 0.4190 0.7039 -0.5735
vn 0.6203 0.5861 0.5212
vn 0.2652 -0.0100 0.9642
vn -0.2178 -0.4551 0.8634
vn -0.6203 0.5862 0.5212
vn -0.7753 0.6308 0.0316
vn -0.0000 -0.9722 -0.2342
vn -0.0000 -0.9998 0.0194
vn -0.0000 -0.9588 0.2841
vn -0.0000 -0.9130 0.4080
vn -0.0000 -0.9588 0.2842
vn -0.4190 0.7039 -0.5735
vn -0.0000 0.9537 0.3006
vn 0.7517 0.6589 0.0290
vn 0.3665 0.7061 -0.6059
vn 0.6507 0.5636 0.5089
vn 0.2347 0.1889 0.9535
vn -0.1775 -0.0114 0.9840
vn -0.6507 0.5636 0.5089
vn -0.7517 0.6589 0.0290
vn -0.0000 -0.9863 -0.1652
vn -0.0000 -0.9904 -0.1385
vn -0.0000 -0.9937 -0.1118
vn -0.0000 -0.9637 0.2670
vn -0.0000 -0.7747 0.6324
vn -0.3665 0.7061 -0.6059
vt 0.495473 0.928870
vt 0.417571 0.928870
vt 0.538607 0.854130
vt 0.408529 0.782020
vt 0.417571 0.667605
vt 0.495473 0.667605
vt 0.477212 0.770459
vt 0.494797 0.823975
vt 0.599213 0.770459
vt 0.583961 0.823975
vt 0.669473 0.782020
vt 0.669344 0.823975
vt 0.922826 0.928571
vt 0.847241 0.928571
vt 0.801195 0.853830
vt 0.849558 0.781720
vt 0.847241 0.667305
vt 0.922826 0.667305
vt 0.931868 0.781720
vt 0.846356 0.823675
vt 0.931739 0.823675
vt 0.801195 0.853782
vt 0.670265 0.823675
vt 0.755648 0.823675
vt 0.752446 0.781720
vt 0.670136 0.781720
vt 0.754763 0.667305
vt 0.679178 0.667305
vt 0.754763 0.928571
vt 0.679178 0.928571
vt 0.538607 0.854082
vt 0.408642 0.823975
vt 0.660431 0.667605
vt 0.584846 0.667605
vt 0.584846 0.928870
vt 0.660431 0.928870
vt 0.656731 0.642543
vt 0.655138 0.653897
vt 0.666642 0.648220
vt 0.643635 0.648220
vt 0.643635 0.645382
vt 0.643635 0.639689
vt 0.643635 0.636850
vt 0.655138 0.631173
vt 0.666642 0.636850
s 1
usemtl material_atlas_00020_1
f 3/1/1 2/2/2 1/3/3
f 4/4/4 2/5/2 3/6/1
f 5/7/5 4/4/4 3/6/1
f 6/8/6 4/4/4 5/7/5
f 7/9/7 6/8/6 5/7/5
f 8/10/8 6/8/6 7/9/7
f 9/11/9 8/10/8 7/9/7
f 10/12/10 8/10/8 9/11/9
f 2/13/2 11/14/11 1/15/3
f 12/16/12 11/17/11 2/18/2
f 4/19/4 12/16/12 2/18/2
f 13/20/13 12/16/12 4/19/4
f 14/21/14 13/20/13 4/19/4
f 15/22/15 13/20/13 14/21/14
f 10/23/10 16/24/16 15/22/15
f 17/25/17 16/24/16 10/23/10
f 9/26/9 17/25/17 10/23/10
f 18/27/18 17/25/17 9/26/9
f 19/28/19 18/27/18 9/26/9
f 1/15/3 18/29/18 19/30/19
f 16/24/16 13/20/13 15/22/15
f 12/16/12 13/20/13 16/24/16
f 17/25/17 12/16/12 16/24/16
f 11/17/11 12/16/12 17/25/17
f 18/27/18 11/17/11 17/25/17
f 1/15/3 11/14/11 18/29/18
f 15/31/15 8/10/8 10/12/10
f 6/8/6 8/10/8 15/31/15
f 14/32/14 6/8/6 15/31/15
f 4/4/4 6/8/6 14/32/14
f 7/9/7 19/33/19 9/11/9
f 20/34/20 19/33/19 7/9/7
f 5/7/5 20/34/20 7/9/7
f 3/6/1 20/34/20 5/7/5
f 20/35/20 1/3/3 19/36/19
f 3/1/1 1/3/3 20/35/20
f 23/37/21 22/38/22 21/39/23
f 24/40/24 22/38/22 23/37/21
f 25/41/25 24/40/24 23/37/21
f 23/37/21 26/42/26 25/41/25
f 27/43/27 26/42/26 23/37/21
f 28/44/28 27/43/27 23/37/21
f 21/39/29 28/44/30 29/45/29
f 22/38/31 28/44/30 21/39/29
f 22/38/31 27/43/32 28/44/30
f 24/40/33 27/43/32 22/38/31
f 24/40/33 26/42/26 27/43/32
f 25/41/25 26/42/26 24/40/33
f 23/37/21 29/45/34 28/44/28
f 21/39/23 29/45/34 23/37/21
f 32/37/35 31/38/36 30/39/37
f 33/40/38 31/38/36 32/37/35
f 34/41/39 33/40/38 32/37/35
f 32/37/35 35/42/40 34/41/39
f 36/43/41 35/42/40 32/37/35
f 37/44/42 36/43/41 32/37/35
f 30/39/43 37/44/44 38/45/43
f 31/38/45 37/44/44 30/39/43
f 31/38/45 36/43/46 37/44/44
f 33/40/47 36/43/46 31/38/45
f 33/40/47 35/42/40 36/43/46
f 34/41/39 35/42/40 33/40/47
f 32/37/35 38/45/48 37/44/42
f 30/39/37 38/45/48 32/37/35
o polygon3
v -0.697433 -1.187197 0.859746
v -0.592178 -0.977728 0.168295
v -0.697433 -0.357152 0.859746
v -0.240053 -0.100657 0.101657
v -0.175004 0.218855 0.859746
v 0.500000 0.314366 0.391224
v 0.500000 0.314366 1.328269
v 1.175004 0.218855 0.859746
v 1.185304 -0.100657 1.617836
v 1.697432 -0.357152 0.859746
v -0.143692 -1.173255 0.206801
v -0.175004 -1.492773 0.859746
v 0.500000 -1.531180 0.436896
v 0.500000 -1.588277 1.328269
v 1.175004 -1.492773 0.859746
v 1.185304 -1.348496 1.704381
v 1.697432 -1.187197 0.859746
v 0.042621 -0.772175 -0.366872
v 0.500000 -0.159683 -0.259047
v 1.240053 -0.100657 0.101657
v 0.500000 -1.114228 -0.099508
v 0.957379 -0.772175 -0.366872
v 1.143692 -1.173255 0.206801
v 1.592178 -0.977728 0.168295
v -0.185304 -0.100657 1.617836
v 0.500000 -0.159683 1.853470
v 0.885921 -0.772175 1.947386
v 0.500000 -1.384667 2.079727
v 0.500000 -0.772175 2.047526
v 0.042621 -0.772175 1.916466
v -0.185304 -1.348496 1.704381
vn -0.9366 0.3443 0.0654
vn -0.8770 0.1839 -0.4439
vn -0.9664 -0.0744 0.2460
vn -0.5799 0.5930 -0.5586
vn -0.4968 0.8677 0.0149
vn -0.0000 0.9456 -0.3253
vn -0.0000 0.9303 0.3668
vn 0.4968 0.8677 0.0149
vn 0.5476 0.5390 0.6400
vn 0.9366 0.3443 0.0654
vn -0.3099 -0.8081 -0.5009
vn -0.4532 -0.8681 -0.2025
vn -0.3182 -0.8227 -0.4710
vn -0.3403 -0.9318 -0.1260
vn -0.0000 -0.9226 -0.3858
vn -0.0000 -0.9926 0.1211
vn 0.3403 -0.9318 -0.1260
vn 0.3160 -0.9300 0.1878
vn 0.4532 -0.8681 -0.2024
vn -0.3649 0.2844 -0.8865
vn -0.0000 0.5648 -0.8252
vn 0.5799 0.5930 -0.5586
vn -0.1657 -0.7178 -0.6762
vn -0.0000 -0.7555 -0.6552
vn 0.1657 -0.7178 -0.6762
vn 0.3099 -0.8081 -0.5009
vn 0.3182 -0.8227 -0.4710
vn -0.5520 0.5385 0.6366
vn -0.0045 0.4730 0.8810
vn 0.4198 0.1104 0.9009
vn -0.0065 -0.0391 0.9992
vn 0.6646 -0.1219 0.7372
vn -0.0124 0.1789 0.9838
vn -0.4369 0.1052 0.8933
vn 0.8770 0.1839 -0.4439
vn 0.9664 -0.0743 0.2460
vn 0.3649 0.2844 -0.8865
vn -0.6719 -0.1311 0.7289
vn -0.3160 -0.9300 0.1878
vn -0.4533 -0.8681 -0.2024
vn -0.0000 -0.9652 0.2615
vt 0.636917 0.612063
vt 0.650255 0.605461
vt 0.636917 0.603237
vt 0.651542 0.614790
vt 0.636917 0.618195
vt 0.645959 0.619207
vt 0.627875 0.619207
vt 0.622293 0.614790
vt 0.649515 0.600630
vt 0.636917 0.597225
vt 0.645074 0.596819
vt 0.627875 0.596213
vt 0.620635 0.601515
vt 0.660568 0.607646
vt 0.658492 0.614160
vt 0.655419 0.601252
vt 0.617755 0.614160
vt 0.616533 0.607646
vt 0.613395 0.601132
vt 0.614007 0.607646
s 1
usemtl material_atlas_00020_1
f 41/46/49 40/47/50 39/48/51
f 42/49/52 40/47/50 41/46/49
f 43/50/53 42/49/52 41/46/49
f 44/51/54 42/49/52 43/50/53
f 45/52/55 44/51/54 43/50/53
f 46/50/56 44/51/54 45/52/55
f 47/53/57 46/50/56 45/52/55
f 48/46/58 46/50/56 47/53/57
f 49/54/59 39/48/60 40/47/61
f 50/55/62 39/48/60 49/54/59
f 51/56/63 50/55/62 49/54/59
f 52/57/64 50/55/62 51/56/63
f 53/55/65 52/57/64 51/56/63
f 54/58/66 52/57/64 53/55/65
f 55/48/67 54/58/66 53/55/65
f 42/49/52 56/59/68 40/47/50
f 57/60/69 56/59/68 42/49/52
f 44/51/54 57/60/69 42/49/52
f 58/49/70 57/60/69 44/51/54
f 46/50/56 58/49/70 44/51/54
f 48/46/58 58/49/70 46/50/56
f 56/59/71 49/54/59 40/47/61
f 59/61/72 49/54/59 56/59/71
f 60/59/73 59/61/72 56/59/71
f 61/54/74 59/61/72 60/59/73
f 62/47/75 61/54/74 60/59/73
f 55/48/67 61/54/74 62/47/75
f 63/53/76 43/50/53 41/46/49
f 45/52/55 43/50/53 63/53/76
f 64/62/77 45/52/55 63/53/76
f 47/53/57 45/52/55 64/62/77
f 65/63/78 47/53/57 64/62/77
f 65/63/78 66/64/79 54/58/80
f 67/65/81 66/64/79 65/63/78
f 64/62/77 67/65/81 65/63/78
f 68/63/82 67/65/81 64/62/77
f 63/53/76 68/63/82 64/62/77
f 62/47/83 48/46/58 55/48/84
f 58/49/70 48/46/58 62/47/83
f 60/59/85 58/49/70 62/47/83
f 57/60/69 60/59/85 56/59/68
f 58/49/70 60/59/85 57/60/69
f 66/64/79 68/63/82 69/58/86
f 67/65/81 68/63/82 66/64/79
f 50/55/62 69/58/87 39/48/88
f 52/57/64 69/58/87 50/55/62
f 66/64/89 52/57/64 54/58/66
f 69/58/87 52/57/64 66/64/89
f 59/61/72 51/56/63 49/54/59
f 61/54/74 51/56/63 59/61/72
f 53/55/65 61/54/74 55/48/67
f 51/56/63 61/54/74 53/55/65
o polygon4
v -0.697433 -1.187197 0.859746
v -0.697433 -0.357152 0.859746
v -0.414674 -0.772175 1.551197
v -0.185304 -0.100657 1.617836
v 0.042621 -0.772175 1.916466
v 1.185304 -0.100657 1.617836
v 1.697432 -0.357152 0.859746
v 1.414673 -0.772175 1.551197
v 1.697432 -1.187197 0.859746
v 1.185304 -1.348496 1.704381
v -0.185304 -1.348496 1.704381
v 0.885921 -0.772175 1.947386
vn -0.7996 0.0247 0.6000
vn -0.9366 0.3442 0.0655
vn -0.9664 -0.0743 0.2461
vn -0.5521 0.5385 0.6366
vn -0.4370 0.1052 0.8933
vn 0.7921 0.0258 0.6098
vn 0.9366 0.3442 0.0655
vn 0.5477 0.5389 0.6400
vn 0.9664 -0.0743 0.2461
vn 0.6647 -0.1219 0.7371
vn -0.6720 -0.1311 0.7289
vn 0.4198 0.1103 0.9009
vt 0.134825 0.848113
vt 0.207413 0.904963
vt 0.207374 0.806439
vt 0.097722 0.932008
vt 0.199063 0.842112
vt 0.240666 0.928870
vt 0.263124 0.848113
vt 0.104309 0.780456
vt 0.232608 0.780456
s 1
usemtl material_atlas_00020_1
f 72/66/90 71/67/91 70/68/92
f 73/69/93 71/67/91 72/66/90
f 74/70/94 73/71/93 72/72/90
f 77/66/95 76/67/96 75/69/97
f 78/68/98 76/67/96 77/66/95
f 79/73/99 78/68/98 77/66/95
f 72/72/90 80/74/100 74/70/94
f 70/68/92 80/73/100 72/66/90
f 77/72/95 81/70/101 79/74/99
f 75/71/97 81/70/101 77/72/95
