# Blender 4.2.1 LTS
# www.blender.org
mtllib krabby_s.mtl
o Pii_KURABU_body2
v -0.569958 -1.315370 2.175536
v -0.459506 -1.172856 1.683650
v -0.531627 -0.943891 2.249561
v -0.991847 -1.799953 1.645027
v -1.082420 -1.214956 2.217482
v -1.272340 -1.467525 1.343941
v -1.358488 -0.911801 1.632293
v -1.018400 -0.888814 1.340843
v -0.936544 -0.413636 1.818888
v -0.569446 -0.519167 2.238928
v -1.022110 -1.777389 1.509597
v -0.697656 -2.015611 1.497324
v -0.833946 -1.954656 1.173339
v -0.852899 -2.235677 1.315869
v -0.313195 -1.944481 1.123809
v 1.571887 -1.315370 2.175536
v 1.533556 -0.943891 2.249561
v 1.461435 -1.172856 1.683650
v 2.084350 -1.214956 2.217482
v 1.993776 -1.799953 1.645027
v 2.274269 -1.467525 1.343941
v 2.020329 -0.888814 1.340843
v 1.938473 -0.413636 1.818888
v 2.360417 -0.911801 1.632293
v 1.571375 -0.519167 2.238928
v 2.024039 -1.777389 1.509597
v 1.835875 -1.954656 1.173339
v 1.699585 -2.015611 1.497324
v 1.854828 -2.235677 1.315869
v 1.315124 -1.944481 1.123809
v -0.658302 -2.274322 1.163169
v -0.556403 -2.167112 0.493630
v -0.215500 -2.672101 0.604847
v -0.658302 -1.673151 0.958148
v -0.556403 -1.780361 1.627687
v -0.383252 -1.275372 1.516470
v -0.384760 -1.715477 1.880839
v -0.179756 -1.219970 1.562940
v -0.047198 -1.693959 2.012324
v 0.346415 -1.654065 2.003651
v 0.500965 -2.006140 2.040495
v 0.655514 -1.654065 2.003651
v 1.049127 -1.693959 2.012324
v 1.181685 -1.219970 1.562940
v 1.386689 -1.715477 1.880839
v 1.385181 -1.275372 1.516470
v 1.558332 -1.780361 1.627687
v 1.660231 -1.673151 0.958148
v 1.660231 -2.274322 1.163169
v 1.558332 -2.167112 0.493630
v 1.217430 -2.672101 0.604847
v 1.189902 -2.316774 0.054769
v 0.500965 -2.730227 0.294471
v -0.187973 -2.316774 0.054769
v -0.048040 -1.255967 0.815877
v 0.500965 -1.317824 0.408070
v -0.215500 -1.699391 0.273124
v 0.162395 -1.098550 0.989545
v -0.019671 -1.106486 1.345020
v 0.176159 -0.551296 1.173575
v 0.311122 -1.053941 1.175039
v 0.690807 -1.053941 1.175039
v 0.839534 -1.098550 0.989545
v 0.825770 -0.551296 1.173575
v 1.021600 -1.106486 1.345020
v 0.683317 -1.167754 1.467364
v 0.318612 -1.167754 1.467364
v 0.720910 -1.372841 1.758291
v 0.281019 -1.372841 1.758291
v 0.500965 -2.104456 2.129412
v 1.217430 -2.248082 1.848193
v 1.215393 -1.736312 2.030947
v 1.214359 -1.514375 1.939416
v -0.215500 -2.248082 1.848193
v -0.213464 -1.736312 2.030947
v -0.212430 -1.514375 1.939416
v 0.500965 -2.891705 0.944814
v -0.152526 -2.691505 1.305440
v 0.500965 -2.629648 1.713247
v 1.154455 -2.691505 1.305440
v 1.217430 -1.699391 0.273124
v 1.049969 -1.255967 0.815877
v 0.500965 -1.843016 -0.008095
v -1.168580 -3.004567 0.473235
v -0.678483 -2.558078 0.628445
v -0.760444 -2.636236 0.896418
v -0.731540 -2.343845 0.799603
v -0.185722 -2.821560 0.827219
v -1.183742 -3.003928 1.401148
v -0.752343 -2.636924 1.000100
v -0.686105 -2.557467 1.272008
v -0.729289 -2.344070 1.097613
v -0.182260 -2.821158 1.103771
v 2.185671 -3.003928 1.401148
v 1.688034 -2.557467 1.272008
v 1.754272 -2.636924 1.000100
v 1.731218 -2.344070 1.097613
v 1.184190 -2.821158 1.103771
v 2.170509 -3.004567 0.473235
v 1.762373 -2.636236 0.896418
v 1.680412 -2.558078 0.628445
v 1.733469 -2.343845 0.799603
v 1.187651 -2.821560 0.827219
vn 0.5616 -0.5575 0.6114
vn 0.9087 -0.1513 -0.3891
vn 0.6440 -0.2129 0.7348
vn 0.5599 -0.8263 -0.0608
vn 0.9087 -0.1512 -0.3891
vn -0.5082 -0.2470 0.8250
vn -0.0797 -0.8696 0.4873
vn 0.5617 -0.5575 0.6113
vn -0.6613 -0.1640 0.7320
vn -0.9817 -0.1829 -0.0528
vn -0.5192 -0.6375 0.5693
vn -0.9269 0.3457 -0.1460
vn -0.9817 -0.1830 -0.0528
vn -0.9270 0.3456 -0.1459
vn -0.0315 0.4062 -0.9132
vn -0.5847 -0.3871 -0.7129
vn -0.2074 0.9641 -0.1659
vn -0.9269 0.3456 -0.1459
vn 0.3248 0.6758 -0.6617
vn 0.7612 0.1141 -0.6384
vn -0.0316 0.4062 -0.9132
vn 0.7014 0.5263 -0.4807
vn 0.3669 0.7298 -0.5769
vn -0.6804 0.6590 0.3207
vn -0.3887 0.8358 -0.3877
vn 0.8428 -0.4488 0.2971
vn 0.5957 -0.4595 0.6588
vn 0.2012 -0.4922 0.8469
vn -0.7535 0.6029 0.2623
vn -0.7524 0.0118 0.6586
vn -0.6200 0.4370 0.6516
vn 0.8334 -0.0630 -0.5490
vn 0.1096 -0.1092 -0.9880
vn -0.0316 0.4063 -0.9132
vn 0.8334 -0.0629 -0.5490
vn 0.6885 -0.5558 -0.4658
vn 0.1095 -0.1092 -0.9880
vn 0.6441 -0.2129 0.7347
vn -0.5082 -0.2470 0.8251
vn 0.5617 -0.5575 0.6114
vn 0.5868 0.8041 -0.0956
vn 0.3109 0.9492 0.0478
vn -0.3101 -0.4650 0.8292
vn 0.1332 -0.6848 0.7165
vn 0.1332 -0.6847 0.7165
vn -0.5584 -0.3450 -0.7544
vn -0.5584 -0.3450 -0.7545
vn -0.8946 -0.1527 -0.4201
vn -0.0760 -0.4469 -0.8913
vn -0.0016 0.9826 0.1855
vn 0.5421 -0.7282 0.4193
vn -0.5616 -0.5575 0.6114
vn -0.6440 -0.2129 0.7348
vn -0.9087 -0.1512 -0.3891
vn -0.5617 -0.5575 0.6114
vn 0.5082 -0.2471 0.8251
vn -0.6441 -0.2129 0.7347
vn 0.0797 -0.8696 0.4873
vn 0.5082 -0.2470 0.8251
vn -0.5617 -0.5575 0.6113
vn 0.5192 -0.6375 0.5692
vn 0.9817 -0.1829 -0.0528
vn 0.6613 -0.1640 0.7320
vn -0.8335 -0.0630 -0.5490
vn -0.1095 -0.1092 -0.9880
vn -0.6885 -0.5558 -0.4658
vn -0.8334 -0.0630 -0.5490
vn 0.0316 0.4062 -0.9132
vn -0.1096 -0.1092 -0.9880
vn -0.3248 0.6758 -0.6617
vn -0.7612 0.1141 -0.6384
vn 0.2074 0.9641 -0.1660
vn 0.9269 0.3457 -0.1459
vn 0.0316 0.4062 -0.9133
vn 0.7524 0.0118 0.6586
vn 0.9269 0.3457 -0.1460
vn 0.7535 0.6029 0.2624
vn 0.9817 -0.1830 -0.0528
vn 0.6804 0.6590 0.3207
vn -0.3670 0.7298 -0.5769
vn 0.3887 0.8358 -0.3877
vn -0.2012 -0.4922 0.8469
vn -0.5957 -0.4595 0.6588
vn -0.8428 -0.4488 0.2971
vn 0.7535 0.6029 0.2623
vn 0.6200 0.4370 0.6516
vn -0.7014 0.5263 -0.4807
vn -0.9086 -0.1513 -0.3892
vn -0.5599 -0.8263 -0.0608
vn 0.5848 -0.3871 -0.7128
vn 0.0315 0.4062 -0.9133
vn -0.5868 0.8041 -0.0956
vn -0.3109 0.9492 0.0478
vn 0.8946 -0.1527 -0.4201
vn 0.5584 -0.3450 -0.7545
vn 0.5584 -0.3450 -0.7544
vn -0.1332 -0.6847 0.7165
vn 0.3101 -0.4650 0.8292
vn -0.1332 -0.6848 0.7165
vn -0.5421 -0.7282 0.4193
vn 0.0016 0.9826 0.1855
vn 0.0760 -0.4469 -0.8913
vn -0.8933 -0.4255 0.1451
vn -0.8869 -0.1491 -0.4373
vn -0.5174 -0.8216 -0.2394
vn -0.8975 0.4013 -0.1829
vn -0.9113 0.0389 0.4100
vn -0.6485 0.7293 0.2180
vn -0.8975 0.4012 -0.1829
vn -0.6412 0.2499 0.7256
vn -0.6485 0.7294 0.2180
vn -0.9112 0.0389 0.4100
vn -0.1898 0.8216 0.5375
vn -0.0280 0.3047 0.9520
vn -0.1898 0.8216 0.5376
vn -0.6411 0.2499 0.7256
vn -0.0279 0.3048 0.9520
vn 0.0482 0.5058 0.8613
vn -0.1897 0.8216 0.5376
vn -0.0000 0.3409 0.9401
vn 0.0482 0.5057 0.8613
vn -0.0279 0.3047 0.9520
vn -0.0555 0.4806 0.8752
vn 0.0279 0.3047 0.9520
vn 0.0279 0.3048 0.9520
vn 0.1898 0.8216 0.5376
vn 0.6411 0.2499 0.7256
vn 0.0280 0.3048 0.9520
vn 0.6484 0.7294 0.2180
vn 0.1898 0.8216 0.5375
vn 0.9112 0.0389 0.4100
vn 0.6485 0.7293 0.2180
vn 0.6412 0.2499 0.7256
vn 0.9113 0.0389 0.4100
vn 0.8975 0.4012 -0.1829
vn 0.6485 0.7293 0.2179
vn 0.8933 -0.4255 0.1451
vn 0.8975 0.4013 -0.1829
vn 0.9113 0.0388 0.4100
vn 0.8869 -0.1491 -0.4372
vn 0.8975 0.4013 -0.1830
vn 0.5174 -0.8216 -0.2394
vn 0.8869 -0.1491 -0.4373
vn 0.4005 -0.2957 -0.8673
vn -0.0000 -0.8580 -0.5137
vn 0.5173 -0.8216 -0.2394
vn -0.0000 -0.8579 -0.5137
vn -0.4005 -0.2958 -0.8672
vn -0.5173 -0.8216 -0.2394
vn -0.4005 -0.2957 -0.8673
vn -0.0000 -0.8579 -0.5138
vn -0.5173 -0.8216 -0.2395
vn -0.4553 0.8162 -0.3558
vn -0.0000 0.8109 -0.5852
vn -0.5119 0.5250 -0.6799
vn -0.1503 0.8761 -0.4581
vn -0.0001 0.8109 -0.5852
vn -0.4153 0.9089 0.0387
vn -0.2956 0.8840 -0.3622
vn -0.4553 0.8162 -0.3557
vn -0.5990 0.7815 -0.1745
vn -0.8783 0.1721 -0.4460
vn 0.1340 0.8201 0.5563
vn 0.4385 0.1203 0.8906
vn 0.0472 0.8233 0.5656
vn 0.4524 0.7139 -0.5344
vn 0.1115 0.8920 -0.4381
vn 0.7412 0.1971 -0.6417
vn -0.1901 0.9773 -0.0939
vn 0.1925 0.9799 0.0523
vn 0.1806 0.8465 -0.5008
vn -0.7412 0.1971 -0.6417
vn -0.1426 0.8586 -0.4925
vn -0.2937 0.8488 -0.4396
vn 0.8783 0.1721 -0.4460
vn 0.5990 0.7815 -0.1745
vn 0.3574 0.8507 -0.3855
vn -0.1830 0.7624 0.6207
vn -0.0472 0.8233 0.5656
vn -0.4385 0.1203 0.8906
vn -0.1156 0.9534 0.2785
vn -0.0098 0.8915 0.4528
vn 0.1622 0.9353 0.3144
vn 0.1111 0.9068 0.4068
vn -0.0098 0.8915 0.4529
vn 0.0098 0.8724 0.4887
vn -0.1622 0.9353 0.3144
vn 0.1111 0.9067 0.4068
vn -0.1474 0.7858 0.6007
vn -0.1474 0.7857 0.6007
vn 0.1998 0.7959 0.5715
vn -0.1897 0.8216 0.5375
vn -0.3251 0.9217 0.2117
vn -0.6484 0.7294 0.2180
vn -0.4153 0.9088 0.0387
vn -0.5120 0.5250 -0.6799
vn -0.0000 -0.0630 0.9980
vn -0.0000 0.3410 0.9401
vn 0.4745 -0.4608 0.7500
vn 0.3078 0.0300 0.9510
vn 0.4746 -0.4608 0.7500
vn 0.3169 0.3629 0.8763
vn -0.3649 -0.0418 -0.9301
vn 0.3078 0.0301 0.9510
vn 0.3168 0.3629 0.8763
vn -0.4745 -0.4608 0.7500
vn -0.9112 0.0388 0.4101
vn -0.9112 0.0388 0.4100
vn -0.3078 0.0300 0.9510
vn -0.3169 0.3629 0.8763
vn -0.3168 0.3629 0.8763
vn 0.3649 -0.0418 -0.9301
vn -0.0001 -0.9996 0.0293
vn -0.4203 -0.8588 0.2928
vn -0.5173 -0.8216 -0.2393
vn -0.0000 -0.9996 0.0293
vn -0.0000 -0.8092 0.5875
vn -0.4203 -0.8588 0.2929
vn 0.4203 -0.8588 0.2929
vn 0.0001 -0.8092 0.5875
vn 0.8932 -0.4255 0.1451
vn -0.4746 -0.4608 0.7500
vn -0.0280 0.3048 0.9520
vn -0.0000 -0.8092 0.5876
vn 0.5119 0.5250 -0.6799
vn 0.4553 0.8162 -0.3558
vn -0.0000 0.3653 -0.9309
vn 0.4005 -0.2958 -0.8672
vn 0.5119 0.5250 -0.6800
vn -0.4005 -0.2958 -0.8673
vn 0.1806 0.8465 -0.5009
vn -0.0000 0.8109 -0.5851
vn -0.1502 0.8761 -0.4581
vn 0.1807 0.8465 -0.5009
vn 0.4153 0.9088 0.0387
vn 0.4553 0.8162 -0.3557
vn 0.3575 0.8507 -0.3854
vn 0.8933 -0.4254 0.1451
vn 0.1897 0.8216 0.5376
vn -0.5119 0.5250 -0.6800
vn 0.1897 0.8216 0.5375
vn -0.0097 0.8915 0.4529
vn 0.3251 0.9217 0.2117
vn 0.4153 0.9089 0.0387
vn 0.5120 0.5250 -0.6799
vn -0.0001 -0.8092 0.5875
vn -0.8932 -0.4255 0.1451
vn 0.4203 -0.8588 0.2928
vn 0.0001 -0.9996 0.0293
vn 0.5173 -0.8216 -0.2393
vn 0.1999 0.7959 0.5715
vn 0.6749 -0.7378 -0.0088
vn 0.2067 -0.9545 -0.2151
vn 0.2067 -0.9545 -0.2152
vn -0.2632 0.5616 -0.7845
vn 0.1602 0.6400 -0.7515
vn -0.3515 0.3254 0.8778
vn -0.7980 0.2591 0.5441
vn 0.2058 0.2892 0.9349
vn -0.3254 -0.8764 -0.3551
vn 0.5537 0.5992 -0.5783
vn 0.6742 -0.7368 0.0510
vn 0.1949 -0.9532 0.2310
vn -0.7661 0.2565 -0.5893
vn -0.3004 0.3225 -0.8976
vn -0.3004 0.3226 -0.8976
vn 0.1161 0.6425 0.7575
vn -0.3072 0.5641 0.7664
vn 0.1161 0.6425 0.7574
vn 0.5179 0.6017 0.6080
vn 0.1949 -0.9532 0.2311
vn -0.3446 -0.8751 0.3397
vn 0.2603 0.2865 -0.9220
vn -0.6742 -0.7368 0.0510
vn -0.1949 -0.9532 0.2310
vn -0.1949 -0.9532 0.2311
vn 0.3072 0.5641 0.7664
vn -0.1161 0.6425 0.7574
vn 0.3004 0.3225 -0.8976
vn 0.7661 0.2565 -0.5893
vn -0.2603 0.2865 -0.9220
vn 0.3446 -0.8751 0.3397
vn -0.5179 0.6017 0.6080
vn -0.6749 -0.7378 -0.0088
vn -0.2067 -0.9544 -0.2152
vn -0.2067 -0.9545 -0.2151
vn 0.7980 0.2591 0.5441
vn 0.3514 0.3254 0.8778
vn 0.3515 0.3254 0.8778
vn -0.1602 0.6400 -0.7515
vn 0.2632 0.5616 -0.7845
vn -0.1602 0.6401 -0.7514
vn -0.5537 0.5992 -0.5783
vn 0.3254 -0.8764 -0.3551
vn -0.2058 0.2892 0.9349
vt 0.586166 0.760360
vt 0.592490 0.804986
vt 0.544799 0.777168
vt 0.699515 0.808280
vt 0.593187 0.804948
vt 0.686925 0.880602
vt 0.601329 0.900174
vt 0.600961 0.900192
vt 0.840618 0.882967
vt 0.917819 0.900192
vt 0.918187 0.900174
vt 0.909349 0.804986
vt 0.842387 0.807882
vt 0.870197 0.882167
vt 0.529405 0.767033
vt 0.910045 0.804948
vt 0.759816 0.762119
vt 0.759294 0.796433
vt 0.763490 0.797978
vt 0.764032 0.795046
vt 0.760183 0.846940
vt 0.528960 0.902147
vt 0.689807 0.905572
vt 0.736009 0.913706
vt 0.759874 0.835381
vt 0.677642 0.840928
vt 0.833054 0.883878
vt 0.830424 0.797410
vt 0.736009 0.769053
vt 0.528322 0.902919
vt 0.801831 0.878191
vt 0.734017 0.878191
vt 0.675486 0.878191
s 0
usemtl material_atlas_00001_1
f 1/1/1 2/2/2 3/3/3
f 1/1/1 4/4/4 2/2/5
f 5/5/6 4/4/7 1/1/8
f 5/5/9 6/6/10 4/4/11
f 7/7/12 6/6/13 5/5/9
f 7/7/14 8/8/15 6/6/16
f 9/9/17 8/10/15 7/11/18
f 9/9/19 2/12/20 8/10/21
f 10/13/22 2/12/20 9/14/19
f 2/15/23 5/15/24 3/15/25
f 2/15/26 10/15/27 5/15/28
f 9/14/29 5/16/30 10/13/31
f 9/9/29 7/11/12 5/16/30
f 2/2/32 6/6/33 8/8/34
f 2/2/35 4/4/36 6/6/37
f 3/3/38 5/5/39 1/1/40
f 11/17/41 12/18/42 13/19/42
f 11/17/43 14/20/44 12/18/45
f 13/19/46 14/20/47 11/17/48
f 13/19/46 15/21/49 14/20/47
f 12/18/42 15/21/50 13/19/42
f 12/18/45 14/20/45 15/21/51
f 16/1/52 17/3/53 18/2/54
f 16/1/55 19/5/56 17/3/57
f 20/4/58 19/5/59 16/1/60
f 20/4/61 21/6/62 19/5/63
f 18/2/64 21/6/65 20/4/66
f 18/2/67 22/8/68 21/6/69
f 23/9/70 22/10/68 18/12/71
f 23/9/72 24/11/73 22/10/74
f 19/16/75 24/11/76 23/9/77
f 19/5/63 21/6/78 24/7/73
f 19/15/79 18/15/80 17/15/81
f 19/15/82 25/15/83 18/15/84
f 23/14/85 25/13/86 19/16/75
f 23/14/70 18/12/71 25/13/87
f 16/1/52 18/2/88 20/4/89
f 21/6/90 22/8/91 24/7/73
f 26/17/92 27/19/93 28/18/93
f 26/17/94 29/20/95 27/19/96
f 28/18/97 29/20/97 26/17/98
f 28/18/99 30/21/100 29/20/99
f 27/19/93 30/21/101 28/18/93
f 27/19/95 29/20/95 30/21/102
f 31/22/103 32/22/104 33/22/105
f 31/22/103 34/22/106 32/22/104
f 35/22/107 34/22/106 31/22/103
f 35/22/107 36/22/108 34/22/109
f 37/22/110 36/22/111 35/22/112
f 37/22/110 38/22/113 36/22/108
f 39/22/114 38/22/115 37/22/116
f 39/22/117 40/22/118 38/22/119
f 41/22/120 40/22/121 39/22/122
f 41/22/120 42/22/123 40/22/118
f 43/22/124 42/22/123 41/22/120
f 43/22/125 44/22/126 42/22/123
f 45/22/127 44/22/126 43/22/128
f 45/22/127 46/22/129 44/22/130
f 47/22/131 46/22/132 45/22/133
f 47/22/134 48/22/135 46/22/136
f 49/22/137 48/22/138 47/22/139
f 49/22/137 50/22/140 48/22/141
f 51/22/142 50/22/143 49/22/137
f 51/22/142 52/22/144 50/22/143
f 53/22/145 52/22/144 51/22/146
f 53/22/147 54/22/148 52/22/144
f 33/22/149 54/22/150 53/22/151
f 33/22/152 32/22/104 54/22/150
f 55/22/153 56/22/154 57/22/155
f 55/22/153 58/22/156 56/22/157
f 59/22/158 58/22/159 55/22/160
f 59/22/161 60/22/162 58/22/159
f 61/22/163 60/22/164 59/22/165
f 61/22/166 58/22/167 60/22/168
f 62/22/169 58/22/156 61/22/170
f 62/22/169 63/22/171 58/22/156
f 64/22/172 63/22/173 62/22/174
f 64/22/175 65/22/176 63/22/177
f 62/22/178 65/22/179 64/22/180
f 62/22/181 66/22/182 65/22/183
f 61/22/184 66/22/185 62/22/181
f 61/22/184 67/22/186 66/22/185
f 59/22/187 67/22/186 61/22/188
f 68/22/189 40/22/118 42/22/123
f 68/22/190 69/22/191 40/22/118
f 67/22/186 69/22/191 68/22/189
f 67/22/186 38/22/192 69/22/191
f 59/22/187 38/22/113 67/22/186
f 59/22/193 36/22/194 38/22/113
f 55/22/160 36/22/108 59/22/195
f 55/22/160 34/22/106 36/22/108
f 57/22/196 34/22/109 55/22/153
f 57/22/196 32/22/104 34/22/109
f 54/22/148 32/22/104 57/22/196
f 70/23/197 41/23/120 39/23/122
f 70/23/197 43/23/128 41/23/198
f 71/23/199 43/23/125 70/23/197
f 71/23/199 72/23/200 43/23/128
f 45/23/127 72/23/200 71/23/201
f 45/23/127 73/23/202 72/23/200
f 43/23/203 73/23/203 45/23/203
f 43/23/125 72/23/204 73/23/205
f 74/23/206 35/23/207 31/23/103
f 74/23/206 37/23/110 35/23/208
f 75/23/209 37/23/110 74/23/206
f 75/23/209 76/23/210 37/23/116
f 39/23/117 76/23/211 75/23/209
f 39/23/212 37/23/212 76/23/212
f 77/24/213 78/25/214 33/26/215
f 77/24/216 79/27/217 78/25/218
f 80/25/219 79/27/217 77/24/216
f 80/25/219 71/28/199 79/27/220
f 49/29/221 71/28/199 80/25/219
f 74/23/222 39/23/117 75/23/209
f 74/23/206 70/23/197 39/23/223
f 79/23/224 70/23/197 74/23/206
f 79/23/224 71/23/199 70/23/197
f 81/22/225 56/22/154 82/22/226
f 81/22/225 83/22/227 56/22/154
f 52/22/228 83/22/227 81/22/229
f 52/22/144 54/22/230 83/22/227
f 63/22/231 56/22/232 58/22/233
f 63/22/234 82/22/226 56/22/232
f 65/22/235 82/22/236 63/22/237
f 53/23/145 77/23/216 33/23/149
f 53/23/145 51/23/146 77/23/216
f 71/23/199 47/23/139 45/23/127
f 71/23/199 49/23/238 47/23/139
f 68/22/189 66/22/185 67/22/186
f 68/22/189 44/22/239 66/22/185
f 57/22/240 83/22/227 54/22/148
f 57/22/240 56/22/154 83/22/227
f 44/22/241 65/22/183 66/22/242
f 44/22/130 46/22/129 65/22/243
f 46/22/129 82/22/236 65/22/244
f 46/22/132 48/22/138 82/22/236
f 48/22/135 81/22/245 82/22/226
f 48/22/138 50/22/143 81/22/245
f 74/28/206 78/25/218 79/27/246
f 74/28/206 31/29/247 78/25/218
f 80/25/248 51/26/142 49/29/221
f 80/25/219 77/24/249 51/26/250
f 69/30/251 38/30/115 40/30/118
f 68/30/189 42/30/123 44/30/126
f 81/22/229 50/22/143 52/22/228
f 33/26/215 78/25/218 31/29/247
f 84/31/252 85/32/253 86/32/254
f 84/31/255 87/32/256 85/32/256
f 86/32/257 87/32/257 84/31/258
f 86/32/257 88/33/259 87/32/257
f 85/32/253 88/33/260 86/32/253
f 85/32/256 87/32/256 88/33/261
f 89/31/262 90/32/263 91/32/263
f 89/31/264 92/32/265 90/32/266
f 91/32/267 92/32/267 89/31/268
f 91/32/269 93/33/270 92/32/269
f 90/32/271 93/33/272 91/32/271
f 90/32/265 92/32/265 93/33/273
f 94/31/274 95/32/275 96/32/276
f 94/31/277 97/32/278 95/32/278
f 96/32/279 97/32/279 94/31/280
f 96/32/279 98/33/281 97/32/279
f 95/32/276 98/33/282 96/32/276
f 95/32/278 97/32/278 98/33/283
f 99/31/284 100/32/285 101/32/286
f 99/31/287 102/32/288 100/32/289
f 101/32/290 102/32/290 99/31/291
f 101/32/292 103/33/293 102/32/290
f 100/32/285 103/33/294 101/32/286
f 100/32/289 102/32/289 103/33/295
o Pii_KURABU_eye
v -0.179756 -1.219970 1.562940
v 0.346415 -1.654065 2.003651
v 0.655514 -1.654065 2.003651
v 1.181685 -1.219970 1.562940
v 0.720910 -1.372841 1.758291
v 0.281019 -1.372841 1.758291
v -0.123507 -1.269252 1.754587
v -0.279234 -1.461213 1.717357
v -0.077004 -1.586237 1.909962
v 0.151884 -1.292658 1.840379
v 0.064805 -1.246281 1.588707
v 1.078933 -1.586237 1.909962
v 0.850045 -1.292658 1.840379
v 1.125436 -1.269252 1.754587
v 1.281163 -1.461213 1.717357
v 0.937124 -1.246281 1.588707
vn -0.4390 0.6267 0.6439
vn -0.6793 0.4367 0.5897
vn -0.3217 0.3515 0.8792
vn -0.1898 0.8216 0.5375
vn 0.1768 0.8258 0.5355
vn 0.3128 0.9475 0.0664
vn 0.1998 0.7959 0.5715
vn 0.3129 0.9475 0.0663
vn 0.1768 0.8258 0.5356
vn 0.3216 0.3515 0.8792
vn -0.1769 0.8258 0.5355
vn -0.0555 0.4806 0.8752
vn 0.3217 0.3515 0.8792
vn 0.4389 0.6267 0.6439
vn 0.6793 0.4367 0.5897
vn 0.4390 0.6267 0.6439
vn 0.6793 0.4368 0.5897
vn 0.1898 0.8216 0.5375
vn -0.1768 0.8258 0.5356
vn -0.1474 0.7858 0.6006
vn -0.0555 0.4805 0.8752
vn -0.3129 0.9475 0.0663
vn -0.1474 0.7857 0.6007
vn -0.3128 0.9475 0.0664
vn -0.1768 0.8258 0.5355
vn 0.1769 0.8258 0.5355
vn -0.4389 0.6266 0.6439
vn -0.3216 0.3515 0.8792
vn 0.0482 0.5058 0.8613
vn 0.0482 0.5057 0.8614
vn 0.1999 0.7959 0.5715
vt 0.215432 0.857882
vt 0.248599 0.828642
vt 0.187941 0.786716
vt 0.240319 0.898013
vt 0.146380 0.855071
vt 0.181645 0.904376
vt 0.118994 0.867485
vt 0.344226 0.786716
vt 0.302665 0.855071
vt 0.239355 0.785271
vt 0.275279 0.867485
s 0
usemtl material_atlas_00001_1
f 110/34/296 111/35/297 112/36/298
f 110/34/296 104/37/299 111/35/297
f 113/38/300 104/37/299 110/34/296
f 113/38/300 114/39/301 104/37/299
f 109/40/302 114/39/303 113/38/304
f 115/41/305 116/42/306 106/43/307
f 115/36/308 117/34/309 116/38/306
f 118/35/310 117/34/311 115/36/308
f 118/35/312 107/37/313 117/34/311
f 116/42/314 108/44/315 106/43/316
f 116/38/314 119/39/317 108/40/318
f 107/37/313 119/39/319 116/38/320
f 112/36/298 113/38/321 110/34/322
f 112/41/323 105/43/324 113/42/321
f 116/38/320 117/34/311 107/37/313
f 113/42/304 105/43/325 109/44/326
