# Blender 4.2.1 LTS
# www.blender.org
mtllib pidgey_s.mtl
o polygon0
v 1.556345 -0.883221 1.326285
v 1.201103 -0.298764 1.992334
v 1.424980 -0.298764 1.326285
v 1.072450 0.054535 1.326285
v 1.201103 -0.298764 0.697370
v 0.500000 0.094990 0.810306
v 0.500000 -0.227974 0.458613
v -0.201103 -0.298764 0.697370
v 0.500000 -0.781380 0.266481
v -0.246949 -0.781380 0.585047
v -0.240360 -1.263997 0.576693
v -0.556345 -0.883221 1.326285
v -0.500035 -1.347001 1.326285
v -0.240360 -1.263997 1.992334
v -0.110537 -1.648421 1.326285
v 0.500000 -1.617296 1.978549
v 0.500000 -1.746609 1.326285
v 1.110537 -1.648421 1.326285
v 0.500000 -1.657745 0.711155
v 1.240360 -1.263997 0.576693
v 0.500000 -1.334787 0.337942
v -0.424980 -0.298764 1.326285
v -0.201103 -0.298764 1.992334
v -0.072450 0.054535 1.326285
v 0.500000 0.054535 1.870115
v 0.500000 0.183854 1.326285
v -0.246949 -0.883221 2.076811
v 0.500000 -0.883221 2.395377
v 0.500000 -1.263997 2.268220
v 1.240360 -1.263997 1.992334
v 1.246948 -0.883221 2.076811
v 1.500035 -1.347001 1.326285
v 1.246948 -0.781380 0.585047
v 0.500000 -0.298764 2.268220
v 0.251598 -1.273803 2.390360
v 0.500000 -1.498046 2.590634
v 0.500000 -1.520335 2.323401
v 0.748402 -1.273803 2.390360
v 0.500000 -1.417165 2.003390
v 0.748402 -1.170638 2.070349
v 0.251598 -1.170638 2.070349
v 0.500000 -1.027276 2.457319
v 0.500000 -0.924106 2.137308
vn 0.8745 0.4849 -0.0079
vn 0.6310 0.4792 0.6101
vn 0.9987 0.0516 0.0043
vn 0.4602 0.8878 0.0081
vn 0.6268 0.5016 -0.5962
vn -0.0000 0.9018 -0.4322
vn -0.0000 0.5505 -0.8349
vn -0.6268 0.5016 -0.5962
vn -0.0000 0.1204 -0.9927
vn -0.7100 0.1139 -0.6949
vn -0.6344 -0.4269 -0.6444
vn -0.9987 0.0516 0.0043
vn -0.8674 -0.4972 0.0198
vn -0.6090 -0.4651 0.6425
vn -0.4017 -0.9155 0.0211
vn -0.0000 -0.8740 0.4859
vn -0.0000 -0.9997 0.0257
vn 0.4017 -0.9155 0.0211
vn -0.0000 -0.9132 -0.4075
vn 0.6344 -0.4269 -0.6444
vn -0.0000 -0.4755 -0.8797
vn -0.8745 0.4849 -0.0079
vn -0.6310 0.4792 0.6101
vn -0.4602 0.8878 0.0081
vn -0.0000 0.8962 0.4436
vn -0.0000 0.9995 0.0315
vn -0.7129 -0.0051 0.7012
vn -0.0000 -0.0402 0.9992
vn -0.0000 -0.4849 0.8746
vn 0.6090 -0.4651 0.6425
vn 0.7129 -0.0051 0.7012
vn 0.8674 -0.4972 0.0198
vn 0.7100 0.1139 -0.6949
vn -0.0000 0.5102 0.8600
vn -0.0000 -0.0401 0.9992
vn -0.0000 -0.9938 -0.1111
vn -0.0000 -0.9965 0.0831
vn -0.7128 -0.6970 -0.0779
vn 0.7128 -0.6970 -0.0779
vn -0.0000 -0.6076 -0.7943
vn 0.8201 0.1500 -0.5523
vn -0.8201 0.1500 -0.5523
vn -0.0000 0.6477 0.7619
vn -0.6469 0.4939 0.5811
vn -0.0000 0.2725 0.9622
vn -0.0000 0.9474 -0.3200
vn 0.6469 0.4939 0.5811
vt 0.451710 0.884847
vt 0.366090 0.882644
vt 0.451155 0.815266
vt 0.424755 0.923601
vt 0.451155 0.882644
vt 0.536565 0.882644
vt 0.471647 0.896988
vt 0.492702 0.881542
vt 0.518000 0.889753
vt 0.504499 0.821730
vt 0.488815 0.879890
vt 0.484131 0.885897
vt 0.500714 0.823933
vt 0.500485 0.770179
vt 0.450600 0.813614
vt 0.504601 0.825585
vt 0.505482 0.769629
vt 0.438389 0.758909
vt 0.368637 0.770730
vt 0.438389 0.761113
vt 0.429011 0.728694
vt 0.343697 0.732301
vt 0.447366 0.732736
vt 0.373124 0.747723
vt 0.458438 0.744116
vt 0.417939 0.717314
vt 0.508692 0.727615
vt 0.511034 0.765773
vt 0.506364 0.755359
vt 0.501595 0.767976
vt 0.496925 0.757563
vt 0.495814 0.759766
vt 0.367797 0.900991
vt 0.427441 0.903232
vt 0.365649 0.815266
vt 0.510881 0.815266
vt 0.591278 0.815266
vt 0.594267 0.770730
vt 0.532668 0.770730
vt 0.307038 0.770730
vt 0.498254 0.877687
vt 0.510153 0.821730
vt 0.345019 0.881483
vt 0.570649 0.881483
vt 0.591719 0.882644
vt 0.507581 0.729818
vt 0.509924 0.767976
vt 0.505253 0.757563
vt 0.491822 0.930951
vt 0.501296 0.937002
vt 0.492992 0.928410
vt 0.491822 0.913409
vt 0.492951 0.913437
vt 0.517436 0.930951
vt 0.517436 0.913409
s 1
usemtl material_atlas_00013_1
f 3/1/1 2/2/2 1/3/3
f 4/4/4 2/2/2 3/5/1
f 5/6/5 4/4/4 3/5/1
f 6/7/6 4/4/4 5/8/5
f 7/9/7 6/7/6 5/8/5
f 8/8/8 6/7/6 7/9/7
f 9/10/9 8/11/8 7/12/7
f 10/13/10 8/11/8 9/10/9
f 11/14/11 10/13/10 9/10/9
f 12/15/12 10/16/10 11/17/11
f 13/18/13 12/15/12 11/17/11
f 14/19/14 12/3/12 13/20/13
f 15/21/15 14/19/14 13/20/13
f 16/22/16 14/19/14 15/21/15
f 17/23/17 16/24/16 15/25/15
f 18/21/18 16/22/16 17/26/17
f 19/27/19 18/21/18 17/26/17
f 20/28/20 18/21/18 19/27/19
f 21/29/21 20/28/20 19/27/19
f 9/10/9 20/30/20 21/31/21
f 11/14/11 9/10/9 21/32/21
f 12/3/12 8/8/8 10/16/10
f 22/5/22 8/8/8 12/3/12
f 23/2/23 22/5/22 12/3/12
f 24/4/24 22/5/22 23/2/23
f 25/33/25 24/4/24 23/2/23
f 26/34/26 24/4/24 25/33/25
f 4/4/4 26/34/26 25/33/25
f 6/7/6 26/34/26 4/4/4
f 14/19/14 27/35/27 12/3/12
f 28/36/28 27/37/27 14/38/14
f 29/39/29 28/36/28 14/38/14
f 30/38/30 28/36/28 29/39/29
f 16/22/16 30/19/30 29/40/29
f 18/21/18 30/19/30 16/22/16
f 30/38/30 31/37/31 28/36/28
f 1/3/3 31/35/31 30/19/30
f 32/20/32 1/3/3 30/19/30
f 20/28/20 1/3/3 32/20/32
f 18/21/18 20/30/20 32/20/32
f 1/3/3 5/41/5 3/5/1
f 33/42/33 5/41/5 1/3/3
f 20/28/20 33/42/33 1/3/3
f 9/10/9 33/13/33 20/30/20
f 25/33/25 2/2/2 4/4/4
f 34/43/34 2/2/2 25/33/25
f 23/2/23 34/43/34 25/33/25
f 28/36/35 34/44/34 23/45/23
f 24/4/24 8/8/8 22/5/22
f 6/7/6 8/8/8 24/4/24
f 26/34/26 6/7/6 24/4/24
f 19/46/19 11/47/11 21/48/21
f 15/25/15 11/17/11 19/46/19
f 17/23/17 15/25/15 19/46/19
f 5/11/5 9/10/9 7/12/7
f 33/13/33 9/10/9 5/11/5
f 28/36/35 2/45/2 34/44/34
f 32/20/32 30/19/30 18/21/18
f 14/19/14 16/22/16 29/40/29
f 13/18/13 11/17/11 15/25/15
f 37/49/36 36/50/37 35/51/38
f 38/51/39 36/50/37 37/49/36
f 39/52/40 38/51/39 37/49/36
f 40/53/41 38/51/39 39/52/40
f 41/53/42 40/53/41 39/52/40
f 42/54/43 35/51/44 36/50/45
f 43/55/46 35/51/44 42/54/43
f 38/51/47 43/55/46 42/54/43
f 40/53/41 43/55/46 38/51/47
f 43/55/46 41/53/42 35/51/44
f 40/53/41 41/53/42 43/55/46
f 39/52/40 35/51/38 41/53/42
f 37/49/36 35/51/38 39/52/40
f 38/51/47 42/54/43 36/50/45
o polygon1
v 1.556345 -0.883221 1.326285
v 1.246948 -0.883221 2.076811
v 1.201103 -0.298764 1.992334
v 0.500000 -0.883221 2.395377
v -0.246949 -0.883221 2.076811
v -0.201103 -0.298764 1.992334
v -0.556345 -0.883221 1.326285
vn 0.6311 0.4791 0.6101
vn 0.7129 -0.0050 0.7012
vn 0.9987 0.0516 0.0044
vn -0.0000 -0.0401 0.9992
vn -0.6311 0.4791 0.6101
vn -0.7129 -0.0050 0.7012
vn -0.9987 0.0517 0.0044
vt 0.131976 0.893485
vt 0.132115 0.825965
vt 0.165436 0.830196
vt 0.068584 0.826670
vt 0.066568 0.827375
vt 0.170812 0.832311
s 1
usemtl material_atlas_00013_1
f 46/56/48 45/57/49 44/58/50
f 47/59/51 45/57/49 46/56/48
f 49/56/52 48/57/53 47/60/51
f 50/61/54 48/57/53 49/56/52
o polygon2
v -0.045759 -2.070763 1.381914
v -0.347775 -1.840120 1.093313
v -0.045760 -1.771236 0.986280
v -0.958634 -1.420602 0.350911
v -0.005674 -1.830948 0.591321
v 0.023868 -2.355735 0.234553
v 0.500000 -1.852601 0.303599
v 0.500000 -2.251091 0.104082
v 1.005671 -1.830947 0.591317
v 0.976132 -2.355735 0.234553
v 1.958634 -1.420602 0.350911
v 1.347775 -1.840120 1.093313
v 1.167787 -2.027239 0.690492
v 1.045763 -2.070760 1.381907
v 1.175511 -2.384188 1.069299
v 0.500000 -2.207006 1.575638
v 0.500000 -2.669008 1.232364
v 0.500000 -1.640112 1.328315
v 0.500000 -1.664924 0.697485
v -0.167787 -2.027239 0.690492
v -0.175511 -2.384188 1.069299
v 0.500000 -2.502830 -0.202912
v 0.976132 -2.607485 0.465104
v 1.045760 -1.771236 0.986280
v 0.023868 -2.607485 0.465104
v 0.500000 -2.836746 0.597416
v 0.807895 -3.029101 0.721293
v 0.192042 -3.028734 0.721081
vn -0.0974 0.9695 0.2248
vn -0.7074 0.0701 0.7033
vn -0.6553 0.1904 0.7310
vn 0.3293 0.9344 -0.1356
vn 0.0609 0.8233 -0.5643
vn -0.6874 0.0762 -0.7222
vn -0.0000 0.7846 -0.6200
vn -0.0000 0.6514 -0.7587
vn -0.0609 0.8233 -0.5643
vn 0.6875 0.0761 -0.7222
vn -0.3293 0.9344 -0.1356
vn 0.6553 0.1904 0.7310
vn 0.8589 -0.5065 0.0752
vn 0.7074 0.0701 0.7033
vn 0.8738 -0.3859 0.2959
vn -0.0000 -0.0983 0.9952
vn -0.0002 -0.7689 0.6394
vn -0.0000 0.8308 0.5566
vn -0.0000 0.9844 -0.1762
vn -0.8589 -0.5065 0.0752
vn -0.6433 -0.7485 0.1610
vn -0.8738 -0.3860 0.2958
vn 0.6478 -0.5852 -0.4877
vn -0.0000 -0.3932 -0.9194
vn 0.6433 -0.7485 0.1610
vn 0.0974 0.9695 0.2249
vn -0.6478 -0.5852 -0.4877
vn -0.0002 -0.9083 -0.4184
vn 0.3025 -0.9530 -0.0177
vn -0.3025 -0.9523 -0.0397
vt 0.899081 0.864522
vt 0.876328 0.885848
vt 0.899081 0.914270
vt 0.830304 0.784638
vt 0.902101 0.814864
vt 0.904327 0.770007
vt 0.938583 0.778688
vt 0.938583 0.753600
vt 0.758766 0.914229
vt 0.767960 0.827132
vt 0.781519 0.885643
vt 0.757250 0.873635
vt 0.719435 0.938430
vt 0.719435 0.895267
vt 0.938583 0.907528
vt 0.938583 0.938628
vt 0.938583 0.828211
vt 0.827544 0.784638
vt 0.753520 0.769809
vt 0.753520 0.798798
vt 0.719435 0.714801
vt 0.719435 0.815431
vt 0.761574 0.721625
vt 0.764313 0.780157
vt 0.767229 0.797083
vt 0.750296 0.797596
vt 0.753896 0.807343
vt 0.761580 0.721673
vt 0.938583 0.715000
s 1
usemtl material_atlas_00013_1
f 53/62/55 52/63/56 51/64/57
f 54/65/58 52/63/56 53/62/55
f 55/66/59 54/65/58 53/62/55
f 56/67/60 54/65/58 55/66/59
f 57/68/61 56/67/60 55/66/59
f 58/69/62 56/67/60 57/68/61
f 59/66/63 58/69/62 57/68/61
f 60/67/64 58/69/62 59/66/63
f 61/65/65 60/67/64 59/66/63
f 64/70/66 63/71/67 62/72/68
f 65/73/69 63/71/67 64/70/66
f 66/74/70 65/73/69 64/70/66
f 67/75/71 65/73/69 66/74/70
f 51/70/57 67/75/71 66/74/70
f 68/76/72 51/64/57 66/77/70
f 53/62/55 51/64/57 68/76/72
f 69/78/73 53/62/55 68/76/72
f 55/66/59 53/62/55 69/78/73
f 57/68/61 55/66/59 69/78/73
f 70/71/74 52/72/56 54/79/75
f 51/70/57 52/72/56 70/71/74
f 71/73/76 51/70/57 70/71/74
f 67/75/71 51/70/57 71/73/76
f 60/80/64 73/81/77 72/82/78
f 63/71/67 73/81/77 60/80/64
f 61/79/79 63/71/67 60/80/64
f 62/72/68 63/71/67 61/79/79
f 64/64/66 68/76/72 66/77/70
f 74/62/80 68/76/72 64/64/66
f 62/63/68 74/62/80 64/64/66
f 61/65/65 74/62/80 62/63/68
f 56/80/60 70/71/74 54/79/75
f 71/73/76 70/71/74 56/80/60
f 75/81/81 71/73/76 56/80/60
f 72/82/78 75/81/81 56/80/60
f 76/83/82 75/81/81 72/82/78
f 73/81/77 76/83/82 72/82/78
f 77/84/83 76/85/82 73/86/77
f 67/87/71 76/85/82 77/84/83
f 65/88/69 67/87/71 77/84/83
f 78/89/84 67/87/71 71/88/76
f 76/85/82 67/87/71 78/89/84
f 75/86/81 76/85/82 78/89/84
f 72/90/78 58/69/62 60/67/64
f 56/67/60 58/69/62 72/90/78
f 59/66/63 74/62/80 61/65/65
f 57/68/61 74/62/80 59/66/63
f 74/62/80 69/78/73 68/76/72
f 57/68/61 69/78/73 74/62/80
f 63/71/67 65/73/69 73/81/77
f 77/84/83 73/86/77 65/88/69
f 75/86/81 78/89/84 71/88/76
o polygon3
v 0.266215 -2.507658 -0.840555
v 0.266215 -2.498942 -0.641720
v 0.500000 -2.507658 -0.910753
v 0.500000 -2.485690 -0.571366
v 0.733785 -2.498942 -0.641720
v 0.500000 -2.496293 -0.236825
v 0.733785 -2.507658 -0.840555
v 0.500000 -2.414912 -0.579641
vn -0.0000 -0.9984 0.0569
vn 0.0472 -0.9988 0.0126
vn 0.0283 -0.9980 0.0569
vn -0.0000 -0.9999 0.0127
vn -0.0472 -0.9988 0.0126
vn -0.0000 -0.9995 -0.0317
vn -0.0000 0.9994 -0.0344
vn 0.2074 0.9655 -0.1574
vn -0.0000 0.9629 -0.2697
vn 0.3573 0.9299 0.0869
vn -0.0000 0.9730 0.2310
vn -0.2074 0.9655 -0.1574
vn -0.3573 0.9299 0.0869
vn -0.0283 -0.9980 0.0569
vt 0.334471 0.898880
vt 0.344889 0.938628
vt 0.355761 0.928047
vt 0.315900 0.916934
vt 0.294616 0.887760
vt 0.297598 0.934735
vt 0.316354 0.916497
vt 0.305489 0.877179
s 1
usemtl material_atlas_00013_1
f 81/91/85 80/92/86 79/93/87
f 82/94/88 80/92/86 81/91/85
f 83/95/89 82/94/88 81/91/85
f 84/96/90 82/94/88 83/95/89
f 86/97/91 85/98/92 81/91/93
f 83/95/94 85/98/92 86/97/91
f 84/96/95 83/95/94 86/97/91
f 79/93/96 86/97/91 81/91/93
f 80/92/97 86/97/91 79/93/96
f 82/94/88 84/96/90 80/92/86
f 81/91/85 85/98/98 83/95/89
f 80/92/97 84/96/95 86/97/91
o polygon5
v 0.500023 -0.644664 2.470479
v 0.827494 -0.028807 2.218378
v 1.241122 -0.222750 2.020008
v 1.192336 0.308745 1.190469
v 1.695464 0.021523 0.773463
v 0.500023 0.181818 1.020408
v -0.695412 0.021523 0.773463
v -0.241077 -0.222750 2.020008
v -0.192284 0.308745 1.190469
v 0.172552 -0.028807 2.218378
v 0.500023 0.602838 1.164986
vn 0.7666 0.2454 0.5933
vn 0.3024 0.6476 0.6994
vn -0.0000 -0.1431 0.9897
vn 0.3729 0.8984 -0.2321
vn 0.6476 0.5169 -0.5599
vn -0.0000 0.5805 -0.8143
vn -0.6476 0.5168 -0.5599
vn -0.7666 0.2455 0.5933
vn -0.3729 0.8984 -0.2321
vn -0.3024 0.6476 0.6994
vn -0.0000 0.9917 0.1288
vt 0.899396 0.717616
vt 0.860201 0.735314
vt 0.859819 0.717616
vt 0.859812 0.726714
vt 0.828924 0.717616
vt 0.797619 0.735369
vt 0.828924 0.726714
vt 0.798036 0.726714
s 1
usemtl material_atlas_00013_1
f 89/99/99 88/100/100 87/101/101
f 90/102/102 88/100/100 89/99/99
f 91/99/103 90/102/102 89/99/99
f 92/103/104 90/102/102 91/99/103
f 89/99/99 92/103/104 91/99/103
f 93/99/105 92/103/104 89/99/99
f 94/99/106 93/99/105 89/99/99
f 95/100/107 93/99/105 94/99/106
f 96/100/108 95/100/107 94/99/106
f 88/100/100 96/104/108 87/103/101
f 97/105/109 96/104/108 88/100/100
f 90/102/102 97/105/109 88/100/100
f 95/106/107 97/105/109 90/102/102
f 92/103/104 95/106/107 90/102/102
f 93/99/105 95/100/107 92/103/104
f 97/105/109 95/106/107 96/104/108
f 87/101/101 96/100/108 94/99/106
f 87/103/101 94/99/106 89/99/99
